<svg id="Calque_1" data-name="Calque 1" xmlns="http://www.w3.org/2000/svg" viewBox="0 0 169.809 169.809"><defs><style>.cls-1{fill:#f5d123}.cls-1,.cls-2{stroke-width:0}.cls-2{fill:#251236}</style></defs><path class="cls-1" d="M135.614 8.357c-33.81-.01-67.61-.01-101.42 0-15.59 0-27.8 12.21-27.8 27.8-.01 32.5-.01 64.99 0 97.49 0 15.59 12.21 27.79 27.8 27.8 16.79.02 33.59.01 50.38.01 17.01 0 34.03.01 51.04-.01 15.59-.01 27.8-12.21 27.8-27.8.01-32.5.01-64.99 0-97.49 0-15.58-12.22-27.8-27.8-27.8Zm-58.9 107.67c-.76-.04-1.72-1.49-2.1-2.48-1.43-3.76-2.74-7.58-3.94-11.42-.54-1.76-1.45-2.36-3.28-2.33-6.43.1-12.87.12-19.29-.01-2.05-.04-2.89.75-3.42 2.6-1.07 3.66-2.43 7.23-3.5 10.88-.61 2.09-1.64 3.07-3.93 2.97-3.57-.15-7.14-.04-11.27-.04 1.07-3.22 1.95-5.97 2.9-8.69 6.04-17.26 12.11-34.51 18.16-51.77.46-1.34 1.2-2.73 1.14-4.06-.15-3.44 1.41-4.23 4.54-4.02 3.79.25 7.63-.1 11.43.16 1.08.07 2.69 1.11 3.04 2.08 7.77 21.5 15.39 43.05 23.04 64.6.13.38.15.8.3 1.65-4.76 0-9.3.12-13.82-.12Zm58.32.17c-.54 0-1.1-.06-1.63.01-2.93.41-4.02-.64-3.94-3.77.21-8.39.11-16.79.04-25.19-.01-1.72-.18-3.5-.65-5.15-1.96-6.82-10.92-8.87-15.76-3.58-.74.81-.89 2.38-.9 3.61-.07 10.14-.13 20.28.01 30.42.05 2.91-.94 3.93-3.78 3.69-2.27-.19-4.59-.18-6.86 0-2.71.21-3.61-.79-3.58-3.52.12-11.67.08-23.34.04-35.01-.02-3.7-.11-7.41-.36-11.1-.12-1.85.39-2.64 2.3-2.55 2.07.1 4.15.16 6.21-.01 2.77-.23 4.76.44 5.04 4.22 5.01-3.48 9.92-5.13 15.48-4.97 8.78.26 15.62 5.62 16.28 14.32.76 9.97.59 20.03.7 30.05.09 8.53.02 8.53-8.64 8.53Z"/><path class="cls-2" d="M135.034 116.197c-.54 0-1.1-.06-1.63.01-2.93.41-4.02-.64-3.94-3.77.21-8.39.11-16.79.04-25.19-.01-1.72-.18-3.5-.65-5.15-1.96-6.82-10.92-8.87-15.76-3.58-.74.81-.89 2.38-.9 3.61-.07 10.14-.13 20.28.01 30.42.05 2.91-.94 3.93-3.78 3.69-2.27-.19-4.59-.18-6.86 0-2.71.21-3.61-.79-3.58-3.52.12-11.67.08-23.34.04-35.01-.02-3.7-.11-7.41-.36-11.1-.12-1.85.39-2.64 2.3-2.55 2.07.1 4.15.16 6.21-.01 2.77-.23 4.76.44 5.04 4.22 5.01-3.48 9.92-5.13 15.48-4.97 8.78.26 15.62 5.62 16.28 14.32.76 9.97.59 20.03.7 30.05.09 8.53.02 8.53-8.64 8.53ZM90.534 116.147c-4.76 0-9.3.12-13.82-.12-.76-.04-1.72-1.49-2.1-2.48-1.43-3.76-2.74-7.58-3.94-11.42-.54-1.76-1.45-2.36-3.28-2.33-6.43.1-12.87.12-19.29-.01-2.05-.04-2.89.75-3.42 2.6-1.07 3.66-2.43 7.23-3.5 10.88-.61 2.09-1.64 3.07-3.93 2.97-3.57-.15-7.14-.04-11.27-.04 1.07-3.22 1.95-5.97 2.9-8.69 6.04-17.26 12.11-34.51 18.16-51.77.46-1.34 1.2-2.73 1.14-4.06-.15-3.44 1.41-4.23 4.54-4.02 3.79.25 7.63-.1 11.43.16 1.08.07 2.69 1.11 3.04 2.08 7.77 21.5 15.39 43.05 23.04 64.6.13.38.15.8.3 1.65Z"/><path class="cls-1" d="M65.952 86.799h-16.4c2.7-8.8 5.34-17.4 8.17-26.64 2.85 9.22 5.5 17.79 8.23 26.64Z"/></svg>