<svg id="Calque_1" data-name="Calque 1" xmlns="http://www.w3.org/2000/svg" viewBox="0 0 169.809 169.809"><defs><style>.cls-1{fill:#f5d123}.cls-1,.cls-2{stroke-width:0}.cls-2{fill:#251236}</style></defs><path class="cls-2" d="M131.789 93.993c-7.72.1-15.44.02-23.16.02.28 6.64 5.18 11.16 12.67 11.2 4.94.03 9.89-.84 15.16-1.34 0 2.98.13 6.23-.09 9.46-.06.77-1.2 1.85-2.04 2.11-8.87 2.68-17.82 3.42-26.59-.18-10-4.1-15.8-15.81-13.94-28.06.53-3.51 1.49-7.08 2.98-10.29 6.87-14.78 22.84-15.98 33.07-11.09 7.7 3.69 10.8 10.74 11.1 18.73.43 11.03.28 9.32-9.16 9.44ZM90.449 116.153c-5.06 0-9.57.12-14.06-.11-.77-.04-1.75-1.47-2.12-2.45-1.45-3.76-2.76-7.57-3.96-11.42-.54-1.74-1.42-2.4-3.27-2.37-6.54.1-13.08.09-19.62 0-1.71-.02-2.54.58-3.02 2.2-1.15 3.86-2.5 7.66-3.65 11.52-.59 1.99-1.7 2.79-3.8 2.71-3.55-.13-7.12-.03-11.37-.03 7.99-23.07 15.77-45.53 23.72-68.47 4.63 0 9.97-.15 15.28.15.94.05 2.15 1.86 2.59 3.09 6.16 17 12.22 34.03 18.29 51.06 1.6 4.49 3.17 8.98 4.99 14.12Z"/><path class="cls-1" d="m57.253 60.143 8.238 26.579H49.154l8.1-26.579ZM108.653 84.331c.193-5.555 3.753-9.319 8.91-9.722 4.494-.352 8.485 2.555 9.562 6.798.453 1.784.034 2.877-1.85 2.9-5.538.068-11.078.024-16.621.024Z"/><path class="cls-1" d="M135.579 8.353c-16.8-.01-33.59 0-50.38 0-17.02 0-34.03-.01-51.04 0-15.57.01-27.76 12.23-27.77 27.84-.01 32.5-.01 65 0 97.49.01 15.58 12.23 27.77 27.84 27.77 33.81.01 67.61.01 101.42 0 15.57 0 27.76-12.23 27.77-27.84.01-32.49.01-64.99 0-97.49-.01-15.57-12.23-27.76-27.84-27.77Zm-59.19 107.69c-.77-.04-1.75-1.47-2.12-2.45-1.45-3.76-2.76-7.57-3.96-11.42-.54-1.74-1.42-2.4-3.27-2.37-6.54.1-13.08.09-19.62 0-1.71-.02-2.54.58-3.02 2.2-1.15 3.86-2.5 7.66-3.65 11.52-.59 1.99-1.7 2.79-3.8 2.71-3.55-.13-7.12-.03-11.37-.03 7.99-23.07 15.77-45.53 23.72-68.47 4.63 0 9.97-.15 15.28.15.94.05 2.15 1.86 2.59 3.09 6.16 17 12.22 34.03 18.29 51.06 1.6 4.49 3.17 8.98 4.99 14.12-5.06 0-9.57.12-14.06-.11Zm55.4-22.05c-7.72.1-15.44.02-23.16.02.28 6.64 5.18 11.16 12.67 11.2 4.94.03 9.89-.84 15.16-1.34 0 2.98.13 6.23-.09 9.46-.06.77-1.2 1.85-2.04 2.11-8.87 2.68-17.82 3.42-26.59-.18-10-4.1-15.8-15.81-13.94-28.06.53-3.51 1.49-7.08 2.98-10.29 6.87-14.78 22.84-15.98 33.07-11.09 7.7 3.69 10.8 10.74 11.1 18.73.43 11.03.28 9.32-9.16 9.44Z"/></svg>