<svg id="Calque_1" data-name="Calque 1" xmlns="http://www.w3.org/2000/svg" viewBox="0 0 169.809 169.809"><defs><style>.cls-1{fill:#f5d123}.cls-1,.cls-2{stroke-width:0}.cls-2{fill:#251236}</style></defs><path class="cls-1" d="M135.709 8.321c-33.82-.01-67.64-.01-101.45 0-15.63 0-27.89 12.19-27.89 27.73-.01 32.51-.01 65.02 0 97.53 0 15.63 12.09 27.83 27.73 27.88 16.91.06 33.82.02 50.73.02 17.02-.01 34.03.04 51.05-.02 15.41-.06 27.56-12.32 27.56-27.73.01-32.5.01-65.01 0-97.52 0-15.63-12.18-27.88-27.73-27.89Zm-68.5 85.6c-4.71.59-9.49.65-14.66.98 0 5.81-.18 11.56.07 17.29.14 3.33-.92 4.57-4.25 4.22-2.37-.24-4.79-.12-7.19-.03-1.92.07-2.7-.62-2.7-2.64.05-21.14.01-42.28.11-63.42 0-.86 1.06-2.45 1.62-2.45 9.46.02 19.02-.56 28.35.62 12.21 1.54 19.63 11 19.32 22.57-.34 12.67-8 21.26-20.67 22.86Zm65.39 8.5c-.35 5.86-3.26 10.12-8.39 12.72-6.6 3.35-13.69 3.27-20.76 2.15-8.67-1.38-8.65-1.5-8.65-10.3v-4.25c5.45 1.18 10.47 2.39 15.55 3.3 1.65.29 3.55.1 5.15-.44 1.15-.39 2.61-1.62 2.78-2.68.18-1.04-.79-2.74-1.77-3.4-1.86-1.27-4.13-1.92-6.14-2.99-3.63-1.93-7.64-3.46-10.69-6.09-7.59-6.54-6.22-18.68 2.49-23.62 8.23-4.66 16.98-3.77 25.7-1.5.74.19 1.74 1.25 1.78 1.95.18 3.54.08 7.09.08 10.69-4.16-.98-7.78-2.05-11.48-2.62-2.2-.34-4.57-.12-6.77.32-1.04.21-2.51 1.45-2.62 2.36-.14 1.12.63 2.81 1.56 3.51 1.71 1.27 3.82 2.02 5.78 2.96 3.04 1.45 6.18 2.72 9.11 4.36 5.26 2.94 7.65 7.55 7.29 13.57Z"/><path class="cls-2" d="M132.599 102.421c-.35 5.86-3.26 10.12-8.39 12.72-6.6 3.35-13.69 3.27-20.76 2.15-8.67-1.38-8.65-1.5-8.65-10.3v-4.25c5.45 1.18 10.47 2.39 15.55 3.3 1.65.29 3.55.1 5.15-.44 1.15-.39 2.61-1.62 2.78-2.68.18-1.04-.79-2.74-1.77-3.4-1.86-1.27-4.13-1.92-6.14-2.99-3.63-1.93-7.64-3.46-10.69-6.09-7.59-6.54-6.22-18.68 2.49-23.62 8.23-4.66 16.98-3.77 25.7-1.5.74.19 1.74 1.25 1.78 1.95.18 3.54.08 7.09.08 10.69-4.16-.98-7.78-2.05-11.48-2.62-2.2-.34-4.57-.12-6.77.32-1.04.21-2.51 1.45-2.62 2.36-.14 1.12.63 2.81 1.56 3.51 1.71 1.27 3.82 2.02 5.78 2.96 3.04 1.45 6.18 2.72 9.11 4.36 5.26 2.94 7.65 7.55 7.29 13.57ZM68.559 48.491c-9.33-1.18-18.89-.6-28.35-.62-.56 0-1.62 1.59-1.62 2.45-.1 21.14-.06 42.28-.11 63.42 0 2.02.78 2.71 2.7 2.64 2.4-.09 4.82-.21 7.19.03 3.33.35 4.39-.89 4.25-4.22-.25-5.73-.07-11.48-.07-17.29 5.17-.33 9.95-.39 14.66-.98 12.67-1.6 20.33-10.19 20.67-22.86.31-11.57-7.11-21.03-19.32-22.57Zm-1.29 32.16c-4.11 1.17-8.52 1.31-12.82 1.65-.57.04-1.74-1.4-1.8-2.22-.22-2.92-.09-5.87-.09-8.81s-.14-5.89.09-8.81c.06-.86 1.21-2.36 1.82-2.34 4.09.14 8.29.14 12.24 1.09 4.52 1.09 6.86 4.89 6.99 9.53.14 4.68-1.97 8.64-6.43 9.91Z"/><path class="cls-1" d="M73.699 70.741c.14 4.68-1.97 8.64-6.43 9.91-4.11 1.17-8.52 1.31-12.82 1.65-.57.04-1.74-1.4-1.8-2.22-.22-2.92-.09-5.87-.09-8.81s-.14-5.89.09-8.81c.06-.86 1.21-2.36 1.82-2.34 4.09.14 8.29.14 12.24 1.09 4.52 1.09 6.86 4.89 6.99 9.53Z"/></svg>