<?xml version="1.0" encoding="UTF-8"?>
<svg id="Calque_1" data-name="Calque 1" xmlns="http://www.w3.org/2000/svg" viewBox="0 0 169.809 169.809"><metadata><c2pa:manifest xmlns:c2pa="http://c2pa.org/manifest">AAAsZ2p1bWIAAAAeanVtZGMycGEAEQAQgAAAqgA4m3EDYzJwYQAAACxBanVtYgAAAEdqdW1kYzJtYQARABCAAACqADibcQN1cm46dXVpZDo0NDUzN2FjNC05YjhmLTQ2ODEtYjg3Zi1mNTA5YzEwMzhjMDUAAAABp2p1bWIAAAApanVtZGMyYXMAEQAQgAAAqgA4m3EDYzJwYS5hc3NlcnRpb25zAAAAAMpqdW1iAAAAJmp1bWRjYm9yABEAEIAAAKoAOJtxA2MycGEuYWN0aW9ucwAAAACcY2JvcqFnYWN0aW9uc4GjZmFjdGlvbmtjMnBhLmVkaXRlZG1zb2Z0d2FyZUFnZW50bUFkb2JlIEZpcmVmbHlxZGlnaXRhbFNvdXJjZVR5cGV4Rmh0dHA6Ly9jdi5pcHRjLm9yZy9uZXdzY29kZXMvZGlnaXRhbHNvdXJjZXR5cGUvdHJhaW5lZEFsZ29yaXRobWljTWVkaWEAAACsanVtYgAAAChqdW1kY2JvcgARABCAAACqADibcQNjMnBhLmhhc2guZGF0YQAAAAB8Y2JvcqVqZXhjbHVzaW9uc4GiZXN0YXJ0GM9mbGVuZ3RoGTs0ZG5hbWVuanVtYmYgbWFuaWZlc3RjYWxnZnNoYTI1NmRoYXNoWCAXPpx9oRCoF5h0RDdW/v9X9DZSJzoYPY8D+cao5HGcI2NwYWRJAAAAAAAAAAAAAAACC2p1bWIAAAAkanVtZGMyY2wAEQAQgAAAqgA4m3EDYzJwYS5jbGFpbQAAAAHfY2JvcqhoZGM6dGl0bGVvR2VuZXJhdGVkIEltYWdlaWRjOmZvcm1hdG1pbWFnZS9zdmcreG1samluc3RhbmNlSUR4LHhtcDppaWQ6OGViMzc4ZTctNzIzMy00MTI0LWFlNjYtM2NiM2I3NTZiODI0b2NsYWltX2dlbmVyYXRvcng2QWRvYmVfSWxsdXN0cmF0b3IvMjguMCBhZG9iZV9jMnBhLzAuNy42IGMycGEtcnMvMC4yNS4ydGNsYWltX2dlbmVyYXRvcl9pbmZvgb9kbmFtZXFBZG9iZSBJbGx1c3RyYXRvcmd2ZXJzaW9uZDI4LjD/aXNpZ25hdHVyZXgZc2VsZiNqdW1iZj1jMnBhLnNpZ25hdHVyZWphc3NlcnRpb25zgqJjdXJseCdzZWxmI2p1bWJmPWMycGEuYXNzZXJ0aW9ucy9jMnBhLmFjdGlvbnNkaGFzaFgg66xm4WqDn3xgnOk59f7WI0GCp10rxJISEEb0ImTQK8GiY3VybHgpc2VsZiNqdW1iZj1jMnBhLmFzc2VydGlvbnMvYzJwYS5oYXNoLmRhdGFkaGFzaFggS6vStcfIiabu2UENnc8hwCTMrzlCTXYYyEaECptIFUpjYWxnZnNoYTI1NgAAKEBqdW1iAAAAKGp1bWRjMmNzABEAEIAAAKoAOJtxA2MycGEuc2lnbmF0dXJlAAAAKBBjYm9y0oREoQE4JKNmc2lnVHN0oWl0c3RUb2tlbnOBoWN2YWxZDjUwgg4xMAMCAQAwgg4oBgkqhkiG9w0BBwKggg4ZMIIOFQIBAzEPMA0GCWCGSAFlAwQCAQUAMIGCBgsqhkiG9w0BCRABBKBzBHEwbwIBAQYJYIZIAYb9bAcBMDEwDQYJYIZIAWUDBAIBBQAEIJT5aR4IYnTvIVUZR2w/G/VM2JM/xImPwiwOklHb3DKdAhEAqWTZJpNgQ6cSoXSGPkBlChgPMjAyMzExMTcxNTQ0NTJaAgg4ZcZVuStb26CCC70wggUHMIIC76ADAgECAhAFHp6R1x6RCrvkPVzt0N3ZMA0GCSqGSIb3DQEBCwUAMGMxCzAJBgNVBAYTAlVTMRcwFQYDVQQKEw5EaWdpQ2VydCwgSW5jLjE7MDkGA1UEAxMyRGlnaUNlcnQgVHJ1c3RlZCBHNCBSU0E0MDk2IFNIQTI1NiBUaW1lU3RhbXBpbmcgQ0EwHhcNMjMwOTA4MDAwMDAwWhcNMzQxMjA3MjM1OTU5WjBYMQswCQYDVQQGEwJVUzEXMBUGA1UEChMORGlnaUNlcnQsIEluYy4xMDAuBgNVBAMTJ0RpZ2lDZXJ0IEFkb2JlIEFBVEwgVGltZXN0YW1wIFJlc3BvbmRlcjBZMBMGByqGSM49AgEGCCqGSM49AwEHA0IABE0srlH5A/+15/MFl1asNh8Q8TubOsEVfu0qlJrF0smjtwL1IeHZ/AB7J59u1Trpho1BDN85lfTY30rNBsfT+myjggGLMIIBhzAOBgNVHQ8BAf8EBAMCB4AwDAYDVR0TAQH/BAIwADAWBgNVHSUBAf8EDDAKBggrBgEFBQcDCDAgBgNVHSAEGTAXMAgGBmeBDAEEAjALBglghkgBhv1sBwEwHwYDVR0jBBgwFoAUuhbZbU2FL3MpdpovdYxqII+eyG8wHQYDVR0OBBYEFLA1qlbDIamLztO4vIsWJVed7zThMFoGA1UdHwRTMFEwT6BNoEuGSWh0dHA6Ly9jcmwzLmRpZ2ljZXJ0LmNvbS9EaWdpQ2VydFRydXN0ZWRHNFJTQTQwOTZTSEEyNTZUaW1lU3RhbXBpbmdDQS5jcmwwgZAGCCsGAQUFBwEBBIGDMIGAMCQGCCsGAQUFBzABhhhodHRwOi8vb2NzcC5kaWdpY2VydC5jb20wWAYIKwYBBQUHMAKGTGh0dHA6Ly9jYWNlcnRzLmRpZ2ljZXJ0LmNvbS9EaWdpQ2VydFRydXN0ZWRHNFJTQTQwOTZTSEEyNTZUaW1lU3RhbXBpbmdDQS5jcnQwDQYJKoZIhvcNAQELBQADggIBAHgrjELHhBCEWJSCyRX7lsL0C9LJgbX1ryVYySNRxHkMR2LqC7PQZRJgDNR+kJop8P5v2Bzp/jMrzw4U4pY6rYv3I8HpFlJa4uBwUTIUgHWpi8Xxd1JEEX94POODi7HySekX60A055BozFb7GGVaxb0LreQTRXnkr6ggPNUPX9Gh+2ScOxlTdQQLgZbkdYvxo3Ap6cy9riZijRxOZqiOyWSxMUhgKxeKzwrFW6Xbe0awNhOUXZzIxc4ixpKzWSItpPJ30ZiBQn49U3ADYTnshbN9ZkTA1pHf/Nov2ZUvvddkZ8UYvwo9vBvLTDvnmABnRMBKaXYAs3ZCvw9CkDPOWTeUJMFRAtmUx52ohaA3nD8bCJ6UfpQ2pFfOdShwpb6GKv0g+BgcdIG2LHPJ0Ufmr+XmpgZgq/HIge0hjcCADpjDgq2z4B0L4xtAA1M8MrUx02hxb7104nFKqMuv5zJTQl3sgwqXUyP+9zHQP9y/Z5Fx/AQWrOXCW56dV7P4cFBJl8zHqinlhkOStZ1m22+9Hlq+eC0hJ2lkF1LuzRdJJb/51LXoPKRnopFDng6XpoD7eG6w4YpAx9+P00JuUoBsYSrdsuFiyWyQQGBAnjI69ggbSLcW+hJytuinaxawVlItJkS2eV5Z4XsxPg7f82uRkdtN0hTHeI93CN3OWeRebnK7MIIGrjCCBJagAwIBAgIQBzY3tyRUfNhHrP0oZipeWzANBgkqhkiG9w0BAQsFADBiMQswCQYDVQQGEwJVUzEVMBMGA1UEChMMRGlnaUNlcnQgSW5jMRkwFwYDVQQLExB3d3cuZGlnaWNlcnQuY29tMSEwHwYDVQQDExhEaWdpQ2VydCBUcnVzdGVkIFJvb3QgRzQwHhcNMjIwMzIzMDAwMDAwWhcNMzcwMzIyMjM1OTU5WjBjMQswCQYDVQQGEwJVUzEXMBUGA1UEChMORGlnaUNlcnQsIEluYy4xOzA5BgNVBAMTMkRpZ2lDZXJ0IFRydXN0ZWQgRzQgUlNBNDA5NiBTSEEyNTYgVGltZVN0YW1waW5nIENBMIICIjANBgkqhkiG9w0BAQEFAAOCAg8AMIICCgKCAgEAxoY1BkmzwT1ySVFVxyUDxPKRN6mXUaHW0oPRnkyibaCwzIP5WvYRoUQVQl+kiPNo+n3znIkLf50fng8zH1ATCyZzlm34V6gCff1DtITaEfFzsbPuK4CEiiIY3+vaPcQXf6sZKz5C3GeO6lE98NZW1OcoLevTsbV15x8GZY2UKdPZ7Gnf2ZCHRgB720RBidx8ald68Dd5n12sy+iEZLRS8nZH92GDGd1ftFQLIWhuNyG7QKxfst5Kfc71ORJn7w6lY2zkpsUdzTYNXNXmG6jBZHRAp8ByxbpOH7G1WE15/tePc5OsLDnipUjW8LAxE6lXKZYnLvWHpo9OdhVVJnCYJn+gGkcgQ+NDY4B7dW4nJZCYOjgRs/b2nuY7W+yB3iIU2YIqx5K/oN7jPqJz+ucfWmyU8lKVEStYdEAoq3NDzt9KoRxrOMUp88qqlnNCaJ+2RrOdOqPVA+C/8KI8ykLcGEh/FDTP0kyr75s9/g64ZCr6dSgkQe1CvwWcZklSUPRR8zZJTYsg0ixXNXkrqPNFYLwjjVj33GHek/45wPmyMKVM1+mYSlg+0wOI/rOP015LdhJRk8mMDDtbiiKowSYI+RQQEgN9XyO7ZONj4KbhPvbCdLI/Hgl27KtdRnXiYKNYCQEoAA6EVO7O6V3IXjASvUaetdN2udIOa5kM0jO0zbECAwEAAaOCAV0wggFZMBIGA1UdEwEB/wQIMAYBAf8CAQAwHQYDVR0OBBYEFLoW2W1NhS9zKXaaL3WMaiCPnshvMB8GA1UdIwQYMBaAFOzX44LScV1kTN8uZz/nupiuHA9PMA4GA1UdDwEB/wQEAwIBhjATBgNVHSUEDDAKBggrBgEFBQcDCDB3BggrBgEFBQcBAQRrMGkwJAYIKwYBBQUHMAGGGGh0dHA6Ly9vY3NwLmRpZ2ljZXJ0LmNvbTBBBggrBgEFBQcwAoY1aHR0cDovL2NhY2VydHMuZGlnaWNlcnQuY29tL0RpZ2lDZXJ0VHJ1c3RlZFJvb3RHNC5jcnQwQwYDVR0fBDwwOjA4oDagNIYyaHR0cDovL2NybDMuZGlnaWNlcnQuY29tL0RpZ2lDZXJ0VHJ1c3RlZFJvb3RHNC5jcmwwIAYDVR0gBBkwFzAIBgZngQwBBAIwCwYJYIZIAYb9bAcBMA0GCSqGSIb3DQEBCwUAA4ICAQB9WY7Ak7ZvmKlEIgF+ZtbYIULhsBguEE0TzzBTzr8Y+8dQXeJLKftwig2qKWn8acHPHQfpPmDI2AvlXFvXbYf6hCAlNDFnzbYSlm/EUExiHQwIgqgWvalWzxVzjQEiJc6VaT9Hd/tydBTX/6tPiix6q4XNQ1/tYLaqT5Fmniye4Iqs5f2MvGQmh2ySvZ180HAKfO+ovHVPulr3qRCyXen/KFSJ8NWKcXZl2szwcqMj+sAngkSumScbqyQeJsG33irr9p6xeZmBo1aGqwpFyd/EjaDnmPv7pp1yr8THwcFqcdnGE4AJxLafzYeHJLtPo0m5d2aR8XKc6UsCUqc3fpNTrDsdCEkPlM05et3/JWOZJyw9P2un8WbDQc1PtkCbISFA0LcTJM3cHXg65J6t5TRxktcma+Q4c6umAU+9Pzt4rUyt+8SVe+0KXzM5h0F4ejjpnOHdI/0dKNPH+ejxmF/7K9h+8kaddSweJywm228Vex4Ziza4k9Tm8heZWcpw8De/mADfIBZPJ/tgZxahZrrdVcA6KYawmKAr7ZVBtzrVFZgxtGIJDwq9gdkT/r+k0fNX2bwE+oLeMt8EifAAzV3C+dAjfwAL5HYCJtnwZXZCpimHCUcr5n8apIUP/JiW9lVUKx+A+sDyDivl1vupL0QVSucTDh3bNzgaoSv27dZ8/DGCAbcwggGzAgEBMHcwYzELMAkGA1UEBhMCVVMxFzAVBgNVBAoTDkRpZ2lDZXJ0LCBJbmMuMTswOQYDVQQDEzJEaWdpQ2VydCBUcnVzdGVkIEc0IFJTQTQwOTYgU0hBMjU2IFRpbWVTdGFtcGluZyBDQQIQBR6ekdcekQq75D1c7dDd2TANBglghkgBZQMEAgEFAKCB0TAaBgkqhkiG9w0BCQMxDQYLKoZIhvcNAQkQAQQwHAYJKoZIhvcNAQkFMQ8XDTIzMTExNzE1NDQ1MlowKwYLKoZIhvcNAQkQAgwxHDAaMBgwFgQU2Rq5M/4XremCHqYT9aQ6cU4+fn0wLwYJKoZIhvcNAQkEMSIEINgrap7wliAm660vBSEJEKKzQD3OuPbaCaPkWqn7vPvVMDcGCyqGSIb3DQEJEAIvMSgwJjAkMCIEIILa8ZSVezaEAkWP1ScAaf5ixxRW+p4Lhqv4J+hTICfZMAoGCCqGSM49BAMCBEYwRAIgMFEFtzvzNbruXrA62ErvkWRj0nd3+rN6wc3htvRRy6oCIBFpuLlK0AqCyNtbdGLOCE9CVEm8qGEA4uNuZvo0F5wJZ3g1Y2hhaW6CWQYzMIIGLzCCBBegAwIBAgIQG1sLO9qw5F3y8w2eVNHa0jANBgkqhkiG9w0BAQsFADB1MQswCQYDVQQGEwJVUzEjMCEGA1UEChMaQWRvYmUgU3lzdGVtcyBJbmNvcnBvcmF0ZWQxHTAbBgNVBAsTFEFkb2JlIFRydXN0IFNlcnZpY2VzMSIwIAYDVQQDExlBZG9iZSBQcm9kdWN0IFNlcnZpY2VzIEczMB4XDTIzMDIwMTAwMDAwMFoXDTI0MDIwMTIzNTk1OVowgaExETAPBgNVBAMMCGNhaS1wcm9kMRwwGgYDVQQLDBNDb250ZW50IENyZWRlbnRpYWxzMRMwEQYDVQQKDApBZG9iZSBJbmMuMREwDwYDVQQHDAhTYW4gSm9zZTETMBEGA1UECAwKQ2FsaWZvcm5pYTELMAkGA1UEBhMCVVMxJDAiBgkqhkiG9w0BCQEWFWdycC1jYWktb3BzQGFkb2JlLmNvbTCCASIwDQYJKoZIhvcNAQEBBQADggEPADCCAQoCggEBAO/TAKd9hj2WQcOzKStMbsViWdgcFzK5qW4Pm71QuPO/4WxNY4uDw2GvP1FPEj0R4Fu7dabt/i+o+xBh/GQSnTAhroNWYQ5mFsB5F9uHJtZD8Pha+9yTiYRlH5BmZOkifsdfrWBu0wUeUlTGRgFy0igC31MEAVvP13kiDZYbRuwff1vr/xRJecgiTgUHp20FFPXF4TBIO3A53VgGldc0EmZFYdc0llnzmh/a0FN6yD+Qy9Os4knFgNn3tTjXrBy9tWiaV56z41dRjf9kHjEf42xmKWzubVsva/aFKceIuipl5QqSVsdSZPhmmOtkJ224ixabmPY89cqvscpS4JtlJcECAwEABaOCAYwwggGIMAwGA1UdEwEB/wQCMAAwDgYDVR0PAQH/BAQDAgeAMB4GA1UdJQQXMBUGCSqGSIb3LwEBDAYIKwYBBQUHAwQwgY4GA1UdIASBhjCBgzCBgAYJKoZIhvcvAQIDMHMwcQYIKwYBBQUHAgIwZQxjWW91IGFyZSBub3QgcGVybWl0dGVkIHRvIHVzZSB0aGlzIExpY2Vuc2UgQ2VydGlmaWNhdGUgZXhjZXB0IGFzIHBlcm1pdHRlZCBieSB0aGUgbGljZW5zZSBhZ3JlZW1lbnQuMF0GA1UdHwRWMFQwUqBQoE6GTGh0dHA6Ly9wa2ktY3JsLnN5bWF1dGguY29tL2NhXzdhNWMzYTBjNzMxMTc0MDZhZGQxOTMxMmJjMWJjMjNmL0xhdGVzdENSTC5jcmwwNwYIKwYBBQUHAQEEKzApMCcGCCsGAQUFBzABhhtodHRwOi8vcGtpLW9jc3Auc3ltYXV0aC5jb20wHwYDVR0jBBgwFoAUVyl6Mk3M/uQ1TsAfJHPOc1Or32owDQYJKoZIhvcNAQELBQADggIBAFeOUZrfIAr8aKOfqf8k1T0VmbvYw/q9zlzOtZ73LRP4RrC5G+GkPkR2LVOdeSul7ywySBKNMZ1tj7IaGrzOUJZB5c3X9pajcv1evW43Fj+hWkufS5ZZ+d8nvJH2AqX/Kgx+GPJ1Pi3V9ceL8yF+GtZJVEepfZTfVQUbP97b3w/aS/6+qHOkhSjVuP6OJu2g8swxBwI5O0qIk5OHijdVJmnBAMRELOj3U2QX4udmPBiXp8TlRIiSD+gKiiZfFI+mjDJsOtxEn2KVu0lwRHjz8saDDO/9zs5h2uifg+cRebUWQ5pWP5BF/s7CI1OLOieEjMtHlV+nRAc5a/9s/O8KM9B35evRDjTfZaVLFDCiy01MA+2hUBTg4LBUfcRyHfx6YnTT/p+QMJ2vsw3z/ifYtI2sxS9oERl2YuoMIGc7TZ1sWuamDelNzQWpFDgYv/zymNE1IzLm1T1KhCdIIZioiyN8vwDOA8QaJddGAAFhzW5d5x/j95rJvcrYw+zuGdZNtQqkcckjDGl03e9MZ1k1anP07F+6jd4QtCWRO8AIeCqRpeL8UBqcd7k8KGfp+vX/hw0XyCgPRu48CmBLfPPCqNGHGsfwhLA98mfwmrO6sxosMyedzXy0fNSIy1fveN/qheHu+gLFf9PgPecU+XFTeibZylwtDVZ3jTbrHXyuVIZHWQalMIIGoTCCBImgAwIBAgIQDKi2VHuJ5tIGiXXNi5uJ4jANBgkqhkiG9w0BAQsFADBsMQswCQYDVQQGEwJVUzEjMCEGA1UEChMaQWRvYmUgU3lzdGVtcyBJbmNvcnBvcmF0ZWQxHTAbBgNVBAsTFEFkb2JlIFRydXN0IFNlcnZpY2VzMRkwFwYDVQQDExBBZG9iZSBSb290IENBIEcyMB4XDTE2MTEyOTAwMDAwMFoXDTQxMTEyODIzNTk1OVowdTELMAkGA1UEBhMCVVMxIzAhBgNVBAoTGkFkb2JlIFN5c3RlbXMgSW5jb3Jwb3JhdGVkMR0wGwYDVQQLExRBZG9iZSBUcnVzdCBTZXJ2aWNlczEiMCAGA1UEAxMZQWRvYmUgUHJvZHVjdCBTZXJ2aWNlcyBHMzCCAiIwDQYJKoZIhvcNAQEBBQADggIPADCCAgoCggIBALcfLr29CbNcSGz+DIOubAHqUXglpIA+iaexsohk2vaJdoH5+R3zlfx4mI2Yjs/k7hxVPg1zWnfOsRKoFXhlTJbyBxnvxB3CgcbxA13ZU1wecyBJH5dP0hp+yer01/DDcm30oveXkA1DmfX4wmqvjwRY0uWX3jZs4v8kfjLANIyiqFmq0kQhRRQaVBUFnwIC8lzssTp10DkLnY8TY+lrtF9CAdd/iB9dVnCnFhFlzOI+I4eoS8tvQndxKFRt6MXFXpzBfxDIA9rV48eDVG0zQdf4PfjEejcOTIaeZP4N2rTRMQMYbboAvk90g0oUhCX7NqrookVB7V90YTnCtbNTiYE+bNrPcRsuf7sVaXACGitiogyV1t8cTfJ1z5pNTUlbv5sbX2qa+E70iW4a1O1AN6oUGPZ+Dp9rGx9V9U8Puy03pPCggOWQ4IThET4iKfybfPd6qL9WxOayZGoHFYNFqo4fPTYQmgQPFckbd6L5RsginTVdlC925+b3RbE5O6qpqfZmpM9f0rlV2MSH+i+vvEVzmrV1mj5JrnLixNUzznj+0tTeSU6BQrPNJdg9hLcaEFxgkePCv3E1Eec1f30PoXSDs6KNJxZ++2PGHXdpO/8fQRO/KZqHjJ8OlV2H1wrlhII+qe46Wy6MUDKFjAlc5YO9llTYSRZUsOGg/H3Ons3hAgMBAAGjggE0MIIBMDASBgNVHRMBAf8ECDAGAQH/AgEAMDUGA1UdHwQuMCwwKqAooCaGJGh0dHA6Ly9jcmwuYWRvYmUuY29tL2Fkb2Jlcm9vdGcyLmNybDAOBgNVHQ8BAf8EBAMCAQYwFAYDVR0lBA0wCwYJKoZIhvcvAQEHMFcGA1UdIARQME4wTAYJKoZIhvcvAQIDMD8wPQYIKwYBBQUHAgEWMWh0dHBzOi8vd3d3LmFkb2JlLmNvbS9taXNjL3BraS9wcm9kX3N2Y2VfY3BzLmh0bWwwJAYDVR0RBB0wG6QZMBcxFTATBgNVBAMTDFNZTUMtNDA5Ni0zMzAdBgNVHQ4EFgQUVyl6Mk3M/uQ1TsAfJHPOc1Or32owHwYDVR0jBBgwFoAUphzhbVQkTKiPSHK/bqmM1eTsMdQwDQYJKoZIhvcNAQELBQADggIBAHHO5QeMptwt3MjgO2VeAJKBleuVICSvn2k4Xcl88bjapU0AZTslwRhcnr5Zt9wbBjtZgyX6M7si8k9vuyFcVhb1ucmDFfuUtTXgoTFyGZws1jV57oiEEnZjw/NkxFQpJ3kKRRE+DQ8EsaPP8pH8Oh8fH4bis9MI4Y5FjF5it3TWVyLmFXG8pxy8iTswPr1lN7B9k9Iz7RaexTd/RmZ3uGBtGlTJZx4bR4cWl1Qor9kVaEeMNULbyh0Kc3zzm0edwpe+Ii0rRlRSj8Ai2EUqWEReyer1Uv18VuC87zdm+lRCjnLyZjdy4acRUZd2GM1vncJ8LW7h1uliZZo332y5tTMSxRpRveWgs99V/MM6mDbL2/fuQF3L/C5evbS15jtTrbGP98CCzVBKeFS2UxN8Kpt5/ITJwpWYoismQkuy+BNJgpW8fgUUjB93laOo4L3uNf3ytxUDOEAjSJKRrOxY4y8vqbQvicslqnH7zkaxVfxjoAeYQ/huYISXCKXooA/5R7AkWLDmubBXakRIcCFi5klrTcHy2XSd3ZAnO8kaZt4GpeqkX05GKcUzccSsrym5GiQ6MUfb7Vqwt4ja0HfVb8Qt017bs6B26rpnqoHAKnn1hfburJ0OEPRZF83riQKzbkrzyIYAY1bYIB9MNL5v5ZgkGIgv2NdhngsX4GJS9927Y3BhZFkLvgAAAAAAAAAAAAAAAAAAAAAAAAAAAAAAAAAAAAAAAAAAAAAAAAAAAAAAAAAAAAAAAAAAAAAAAAAAAAAAAAAAAAAAAAAAAAAAAAAAAAAAAAAAAAAAAAAAAAAAAAAAAAAAAAAAAAAAAAAAAAAAAAAAAAAAAAAAAAAAAAAAAAAAAAAAAAAAAAAAAAAAAAAAAAAAAAAAAAAAAAAAAAAAAAAAAAAAAAAAAAAAAAAAAAAAAAAAAAAAAAAAAAAAAAAAAAAAAAAAAAAAAAAAAAAAAAAAAAAAAAAAAAAAAAAAAAAAAAAAAAAAAAAAAAAAAAAAAAAAAAAAAAAAAAAAAAAAAAAAAAAAAAAAAAAAAAAAAAAAAAAAAAAAAAAAAAAAAAAAAAAAAAAAAAAAAAAAAAAAAAAAAAAAAAAAAAAAAAAAAAAAAAAAAAAAAAAAAAAAAAAAAAAAAAAAAAAAAAAAAAAAAAAAAAAAAAAAAAAAAAAAAAAAAAAAAAAAAAAAAAAAAAAAAAAAAAAAAAAAAAAAAAAAAAAAAAAAAAAAAAAAAAAAAAAAAAAAAAAAAAAAAAAAAAAAAAAAAAAAAAAAAAAAAAAAAAAAAAAAAAAAAAAAAAAAAAAAAAAAAAAAAAAAAAAAAAAAAAAAAAAAAAAAAAAAAAAAAAAAAAAAAAAAAAAAAAAAAAAAAAAAAAAAAAAAAAAAAAAAAAAAAAAAAAAAAAAAAAAAAAAAAAAAAAAAAAAAAAAAAAAAAAAAAAAAAAAAAAAAAAAAAAAAAAAAAAAAAAAAAAAAAAAAAAAAAAAAAAAAAAAAAAAAAAAAAAAAAAAAAAAAAAAAAAAAAAAAAAAAAAAAAAAAAAAAAAAAAAAAAAAAAAAAAAAAAAAAAAAAAAAAAAAAAAAAAAAAAAAAAAAAAAAAAAAAAAAAAAAAAAAAAAAAAAAAAAAAAAAAAAAAAAAAAAAAAAAAAAAAAAAAAAAAAAAAAAAAAAAAAAAAAAAAAAAAAAAAAAAAAAAAAAAAAAAAAAAAAAAAAAAAAAAAAAAAAAAAAAAAAAAAAAAAAAAAAAAAAAAAAAAAAAAAAAAAAAAAAAAAAAAAAAAAAAAAAAAAAAAAAAAAAAAAAAAAAAAAAAAAAAAAAAAAAAAAAAAAAAAAAAAAAAAAAAAAAAAAAAAAAAAAAAAAAAAAAAAAAAAAAAAAAAAAAAAAAAAAAAAAAAAAAAAAAAAAAAAAAAAAAAAAAAAAAAAAAAAAAAAAAAAAAAAAAAAAAAAAAAAAAAAAAAAAAAAAAAAAAAAAAAAAAAAAAAAAAAAAAAAAAAAAAAAAAAAAAAAAAAAAAAAAAAAAAAAAAAAAAAAAAAAAAAAAAAAAAAAAAAAAAAAAAAAAAAAAAAAAAAAAAAAAAAAAAAAAAAAAAAAAAAAAAAAAAAAAAAAAAAAAAAAAAAAAAAAAAAAAAAAAAAAAAAAAAAAAAAAAAAAAAAAAAAAAAAAAAAAAAAAAAAAAAAAAAAAAAAAAAAAAAAAAAAAAAAAAAAAAAAAAAAAAAAAAAAAAAAAAAAAAAAAAAAAAAAAAAAAAAAAAAAAAAAAAAAAAAAAAAAAAAAAAAAAAAAAAAAAAAAAAAAAAAAAAAAAAAAAAAAAAAAAAAAAAAAAAAAAAAAAAAAAAAAAAAAAAAAAAAAAAAAAAAAAAAAAAAAAAAAAAAAAAAAAAAAAAAAAAAAAAAAAAAAAAAAAAAAAAAAAAAAAAAAAAAAAAAAAAAAAAAAAAAAAAAAAAAAAAAAAAAAAAAAAAAAAAAAAAAAAAAAAAAAAAAAAAAAAAAAAAAAAAAAAAAAAAAAAAAAAAAAAAAAAAAAAAAAAAAAAAAAAAAAAAAAAAAAAAAAAAAAAAAAAAAAAAAAAAAAAAAAAAAAAAAAAAAAAAAAAAAAAAAAAAAAAAAAAAAAAAAAAAAAAAAAAAAAAAAAAAAAAAAAAAAAAAAAAAAAAAAAAAAAAAAAAAAAAAAAAAAAAAAAAAAAAAAAAAAAAAAAAAAAAAAAAAAAAAAAAAAAAAAAAAAAAAAAAAAAAAAAAAAAAAAAAAAAAAAAAAAAAAAAAAAAAAAAAAAAAAAAAAAAAAAAAAAAAAAAAAAAAAAAAAAAAAAAAAAAAAAAAAAAAAAAAAAAAAAAAAAAAAAAAAAAAAAAAAAAAAAAAAAAAAAAAAAAAAAAAAAAAAAAAAAAAAAAAAAAAAAAAAAAAAAAAAAAAAAAAAAAAAAAAAAAAAAAAAAAAAAAAAAAAAAAAAAAAAAAAAAAAAAAAAAAAAAAAAAAAAAAAAAAAAAAAAAAAAAAAAAAAAAAAAAAAAAAAAAAAAAAAAAAAAAAAAAAAAAAAAAAAAAAAAAAAAAAAAAAAAAAAAAAAAAAAAAAAAAAAAAAAAAAAAAAAAAAAAAAAAAAAAAAAAAAAAAAAAAAAAAAAAAAAAAAAAAAAAAAAAAAAAAAAAAAAAAAAAAAAAAAAAAAAAAAAAAAAAAAAAAAAAAAAAAAAAAAAAAAAAAAAAAAAAAAAAAAAAAAAAAAAAAAAAAAAAAAAAAAAAAAAAAAAAAAAAAAAAAAAAAAAAAAAAAAAAAAAAAAAAAAAAAAAAAAAAAAAAAAAAAAAAAAAAAAAAAAAAAAAAAAAAAAAAAAAAAAAAAAAAAAAAAAAAAAAAAAAAAAAAAAAAAAAAAAAAAAAAAAAAAAAAAAAAAAAAAAAAAAAAAAAAAAAAAAAAAAAAAAAAAAAAAAAAAAAAAAAAAAAAAAAAAAAAAAAAAAAAAAAAAAAAAAAAAAAAAAAAAAAAAAAAAAAAAAAAAAAAAAAAAAAAAAAAAAAAAAAAAAAAAAAAAAAAAAAAAAAAAAAAAAAAAAAAAAAAAAAAAAAAAAAAAAAAAAAAAAAAAAAAAAAAAAAAAAAAAAAAAAAAAAAAAAAAAAAAAAAAAAAAAAAAAAAAAAAAAAAAAAAAAAAAAAAAAAAAAAAAAAAAAAAAAAAAAAAAAAAAAAAAAAAAAAAAAAAAAAAAAAAAAAAAAAAAAAAAAAAAAAAAAAAAAAAAAAAAAAAAAAAAAAAAAAAAAAAAAAAAAAAAAAAAAAAAAAAAAAAAAAAAAAAAAAAAAAAAAAAAAAAAAAAAAAAAAAAAAAAAAAAAAAAAAAAAAAAAAAAAAAAAAAAAAAAAAAAAAAAAAAAAAAAAAAAAAAAAAAAAAAAAAAAAAAAAAAAAAAAAAAAAAAAAAAAAAAAAAAAAAAAAAAAAAAAAAAAAAAAAAAAAAAAAAAAAAAAAAAAAAAAAAAAAAAAAAAAAAAAAAAAAAAAAAAAAAAAAAAAAAAAAAAAAAAAAAAAAAAAAAAAAAAAAAAAAAAAAAAAAAAAAAAAAAAAAAAAAAAAAAAAAAAAAAAAAAAAAAAAAAAAAAAAAAAAAAAAAAAAAAAAAAAAAAAAAAAAAAAAAAAAAAAAAAAAAAAAAAAAAAAAAAAAAAAAAAAAAAAAAAAAAAAAAAAAAAAAAAAAAAAAAAAAAAAAAAAAAAAAAAAAAAAAAAAAAAAAAAAAAAAAAAAAAAAAAAAAAAAAAAAAAAAAAAAAAAAAAAAAAAAAAAAAAAAAAAAAAAAAAAAAAAAAAAAAAAAAAAAAAAAAAAAAAAAAAAAAAAAAAAAAAAAAAAAAAAAAAAAAAAAAAAAAAAAAAAAAAAAAAAAAAAAAAAAAAAAAAAAAAAAAAAAAAAAAAAAAAAAAAAAAAAAAAAAAAAAAAAAAAAAAAAAAAAAAAAAAAAAAAAAAAAAAAAAAAAAAAAAAAAAAAAAAAAAAAAAAAAAAAAAAAAAAAAAAAAAAAAAAAAAAAAAAAAAAAAAAAAAAAAAAAAAAAAAAAAAAAAAAAAAAAAAAAAAAAAAAAAAAAAAAAAAAAAAAAAAAAAAAAAAAAAAAAAAAAAAAAAAAAAAAAAAAAAAAAAAAAAAAAAAAAAAAAAAAAAAAAAAAAAAAAAAAAAAAAAAAAAAAAAAAAAAAAAAAAAAAAAAAAAAAAAAAAAAAAAAAAAAAAAAAAAAAAAAAAAPZZAQBz7chKx8wXLQ3Gcen8AxltvPNdM9BueuwPaFSEmp+JmJg018VOxjLzQhAJJ6MeiD33zVMgSJEVJ56HxcLw0G6w1qWfQ8nqoB2HA+kEnzKP/Y3DvVsb8l4tzv42qIvcAlwX3fl2Rtr1aNjsIGELWMdMbTCAlSTYuH04FDI4FzyHW0qn4cV7nphGaMJUhb5kF7Z5w3HDnvesDSkvfnB9kTXYaPTsPXB16x7qF5OD5Xzsvlogvun0T2hOWYxrjGPagwxgLvntTVCQfGUBieJmOfXj7/qIyM/ygf38FZpBXl1zymz2KD0R8HXXLuUVTOjlGcrH7fRsnuFs1D7KKBuqwyYW</c2pa:manifest></metadata>
  <defs>
    <style>.cls-1 {
  fill: #f5d123;
}

.cls-1, .cls-2 {
  stroke-width: 0;
}

.cls-2 {
  fill: #251236;
}

</style>
  </defs>
  <path class="cls-1" d="m135.709,8.321c-33.82-.01-67.64-.01-101.45,0-15.63,0-27.89,12.19-27.89,27.73-.01,32.51-.01,65.02,0,97.53,0,15.63,12.09,27.83,27.73,27.88,16.91.06,33.82.02,50.73.02,17.02-.01,34.03.04,51.05-.02,15.41-.06,27.56-12.32,27.56-27.73.01-32.5.01-65.01,0-97.52,0-15.63-12.18-27.88-27.73-27.89Zm-68.5,85.6c-4.71.59-9.49.65-14.66.98,0,5.81-.18,11.56.07,17.29.14,3.33-.92,4.57-4.25,4.22-2.37-.24-4.79-.12-7.19-.03-1.92.07-2.7-.62-2.7-2.64.05-21.14.01-42.28.11-63.42,0-.86,1.06-2.45,1.62-2.45,9.46.02,19.02-.56,28.35.62,12.21,1.54,19.63,11,19.32,22.57-.34,12.67-8,21.26-20.67,22.86Zm65.39,8.5c-.35,5.86-3.26,10.12-8.39,12.72-6.6,3.35-13.69,3.27-20.76,2.15-8.67-1.38-8.65-1.5-8.65-10.3v-4.25c5.45,1.18,10.47,2.39,15.55,3.3,1.65.29,3.55.1,5.15-.44,1.15-.39,2.61-1.62,2.78-2.68.18-1.04-.79-2.74-1.77-3.4-1.86-1.27-4.13-1.92-6.14-2.99-3.63-1.93-7.64-3.46-10.69-6.09-7.59-6.54-6.22-18.68,2.49-23.62,8.23-4.66,16.98-3.77,25.7-1.5.74.19,1.74,1.25,1.78,1.95.18,3.54.08,7.09.08,10.69-4.16-.98-7.78-2.05-11.48-2.62-2.2-.34-4.57-.12-6.77.32-1.04.21-2.51,1.45-2.62,2.36-.14,1.12.63,2.81,1.56,3.51,1.71,1.27,3.82,2.02,5.78,2.96,3.04,1.45,6.18,2.72,9.11,4.36,5.26,2.94,7.65,7.55,7.29,13.57Z"></path>
  <path class="cls-2" d="m132.599,102.421c-.35,5.86-3.26,10.12-8.39,12.72-6.6,3.35-13.69,3.27-20.76,2.15-8.67-1.38-8.65-1.5-8.65-10.3v-4.25c5.45,1.18,10.47,2.39,15.55,3.3,1.65.29,3.55.1,5.15-.44,1.15-.39,2.61-1.62,2.78-2.68.18-1.04-.79-2.74-1.77-3.4-1.86-1.27-4.13-1.92-6.14-2.99-3.63-1.93-7.64-3.46-10.69-6.09-7.59-6.54-6.22-18.68,2.49-23.62,8.23-4.66,16.98-3.77,25.7-1.5.74.19,1.74,1.25,1.78,1.95.18,3.54.08,7.09.08,10.69-4.16-.98-7.78-2.05-11.48-2.62-2.2-.34-4.57-.12-6.77.32-1.04.21-2.51,1.45-2.62,2.36-.14,1.12.63,2.81,1.56,3.51,1.71,1.27,3.82,2.02,5.78,2.96,3.04,1.45,6.18,2.72,9.11,4.36,5.26,2.94,7.65,7.55,7.29,13.57Z"></path>
  <path class="cls-2" d="m68.559,48.491c-9.33-1.18-18.89-.6-28.35-.62-.56,0-1.62,1.59-1.62,2.45-.1,21.14-.06,42.28-.11,63.42,0,2.02.78,2.71,2.7,2.64,2.4-.09,4.82-.21,7.19.03,3.33.35,4.39-.89,4.25-4.22-.25-5.73-.07-11.48-.07-17.29,5.17-.33,9.95-.39,14.66-.98,12.67-1.6,20.33-10.19,20.67-22.86.31-11.57-7.11-21.03-19.32-22.57Zm-1.29,32.16c-4.11,1.17-8.52,1.31-12.82,1.65-.57.04-1.74-1.4-1.8-2.22-.22-2.92-.09-5.87-.09-8.81s-.14-5.89.09-8.81c.06-.86,1.21-2.36,1.82-2.34,4.09.14,8.29.14,12.24,1.09,4.52,1.09,6.86,4.89,6.99,9.53.14,4.68-1.97,8.64-6.43,9.91Z"></path>
  <path class="cls-1" d="m73.699,70.741c.14,4.68-1.97,8.64-6.43,9.91-4.11,1.17-8.52,1.31-12.82,1.65-.57.04-1.74-1.4-1.8-2.22-.22-2.92-.09-5.87-.09-8.81s-.14-5.89.09-8.81c.06-.86,1.21-2.36,1.82-2.34,4.09.14,8.29.14,12.24,1.09,4.52,1.09,6.86,4.89,6.99,9.53Z"></path>
</svg>