<svg id="Calque_1" data-name="Calque 1" xmlns="http://www.w3.org/2000/svg" viewBox="0 0 169.809 169.809"><defs><style>.cls-1{fill:#f5d123}.cls-1,.cls-2{stroke-width:0}.cls-2{fill:#251236}</style></defs><path class="cls-1" d="M134.719 8.502c-16.58-.01-33.15 0-49.73 0-16.79 0-33.59-.01-50.38 0-15.97.01-28.06 12.17-28.06 28.21-.01 32.17-.01 64.34 0 96.51 0 15.82 12.13 28.05 27.88 28.07 33.59.03 67.18.02 100.76-.01 16-.01 28.07-12.17 28.07-28.21.01-32.06.01-64.12 0-96.18 0-16.4-12.06-28.39-28.54-28.39Zm-71.35 73.58c0 10.14-.07 20.28.04 30.41.04 2.91-.93 4.25-3.93 4.08-2.39-.14-4.8-.1-7.2-.02-2.49.08-3.5-1.01-3.47-3.52.09-6.98.02-13.96.02-20.93 0-13.41.07-26.82-.05-40.23-.03-3.22.96-4.67 4.3-4.39 2.17.19 4.37.16 6.54.01 2.86-.19 3.81 1.06 3.79 3.84-.1 10.25-.04 20.5-.04 30.75Zm58.89 28.31c-.02 1.3-1.1 3.32-2.18 3.73-9.35 3.59-19.01 4.87-28.81 2.14-10.63-2.95-16.73-11.21-17.57-22.22-1.52-19.8 13.41-31.04 28.95-30.84 4.84.06 4.89-.1 4.91-4.96.02-4.47.05-8.93.03-13.4-.01-2.17.93-3.19 3.17-3.12 2.61.09 5.23.13 7.84-.01 2.71-.15 3.63.99 3.61 3.64-.1 10.9-.04 21.79-.04 32.69h.19c0 10.78.08 21.57-.1 32.35Z"/><path class="cls-2" d="M122.359 78.042h-.19c0-10.9-.06-21.79.04-32.69.02-2.65-.9-3.79-3.61-3.64-2.61.14-5.23.1-7.84.01-2.24-.07-3.18.95-3.17 3.12.02 4.47-.01 8.93-.03 13.4-.02 4.86-.07 5.02-4.91 4.96-15.54-.2-30.47 11.04-28.95 30.84.84 11.01 6.94 19.27 17.57 22.22 9.8 2.73 19.46 1.45 28.81-2.14 1.08-.41 2.16-2.43 2.18-3.73.18-10.78.1-21.57.1-32.35Zm-17.91 26.95c-5.39.26-10.47-.66-13.4-5.7-3.21-5.53-3.63-11.54-.22-17.13 3.11-5.1 8.15-6.96 14.04-6.66 1.94.1 2.66 1.14 2.65 2.96-.02 3.92 0 7.85 0 11.78h.02c0 3.82-.05 7.63.01 11.45.04 2.2-.97 3.19-3.1 3.3ZM63.409 112.492c.04 2.91-.93 4.25-3.93 4.08-2.39-.14-4.8-.1-7.2-.02-2.49.08-3.5-1.01-3.47-3.52.09-6.98.02-13.96.02-20.93 0-13.41.07-26.82-.05-40.23-.03-3.22.96-4.67 4.3-4.39 2.17.19 4.37.16 6.54.01 2.86-.19 3.81 1.06 3.79 3.84-.1 10.25-.04 20.5-.04 30.75 0 10.14-.07 20.28.04 30.41Z"/><path class="cls-1" d="M107.549 101.692c.04 2.2-.97 3.19-3.1 3.3-5.39.26-10.47-.66-13.4-5.7-3.21-5.53-3.63-11.54-.22-17.13 3.11-5.1 8.15-6.96 14.04-6.66 1.94.1 2.66 1.14 2.65 2.96-.02 3.92 0 7.85 0 11.78h.02c0 3.82-.05 7.63.01 11.45Z"/></svg>