<?xml version="1.0" encoding="UTF-8"?>
<svg id="Calque_1" data-name="Calque 1" xmlns="http://www.w3.org/2000/svg" viewBox="0 0 169.809 169.809"><metadata><c2pa:manifest xmlns:c2pa="http://c2pa.org/manifest">AAAsZ2p1bWIAAAAeanVtZGMycGEAEQAQgAAAqgA4m3EDYzJwYQAAACxBanVtYgAAAEdqdW1kYzJtYQARABCAAACqADibcQN1cm46dXVpZDpjNGE0NTc2OC1jZDBiLTQ0NmEtYWQ0Yi1lYmVjZWFmN2E4NzkAAAABp2p1bWIAAAApanVtZGMyYXMAEQAQgAAAqgA4m3EDYzJwYS5hc3NlcnRpb25zAAAAAMpqdW1iAAAAJmp1bWRjYm9yABEAEIAAAKoAOJtxA2MycGEuYWN0aW9ucwAAAACcY2JvcqFnYWN0aW9uc4GjZmFjdGlvbmtjMnBhLmVkaXRlZG1zb2Z0d2FyZUFnZW50bUFkb2JlIEZpcmVmbHlxZGlnaXRhbFNvdXJjZVR5cGV4Rmh0dHA6Ly9jdi5pcHRjLm9yZy9uZXdzY29kZXMvZGlnaXRhbHNvdXJjZXR5cGUvdHJhaW5lZEFsZ29yaXRobWljTWVkaWEAAACsanVtYgAAAChqdW1kY2JvcgARABCAAACqADibcQNjMnBhLmhhc2guZGF0YQAAAAB8Y2JvcqVqZXhjbHVzaW9uc4GiZXN0YXJ0GM9mbGVuZ3RoGTs0ZG5hbWVuanVtYmYgbWFuaWZlc3RjYWxnZnNoYTI1NmRoYXNoWCAMH7aP68DitFD5EBGDWfjyD0ZYm9xZRwspwNMeckV0mGNwYWRJAAAAAAAAAAAAAAACC2p1bWIAAAAkanVtZGMyY2wAEQAQgAAAqgA4m3EDYzJwYS5jbGFpbQAAAAHfY2JvcqhoZGM6dGl0bGVvR2VuZXJhdGVkIEltYWdlaWRjOmZvcm1hdG1pbWFnZS9zdmcreG1samluc3RhbmNlSUR4LHhtcDppaWQ6ZDMxODJjZmYtYzQ1Ni00YzM3LTlmZWEtMGZkNGM1NWFlZTgxb2NsYWltX2dlbmVyYXRvcng2QWRvYmVfSWxsdXN0cmF0b3IvMjguMCBhZG9iZV9jMnBhLzAuNy42IGMycGEtcnMvMC4yNS4ydGNsYWltX2dlbmVyYXRvcl9pbmZvgb9kbmFtZXFBZG9iZSBJbGx1c3RyYXRvcmd2ZXJzaW9uZDI4LjD/aXNpZ25hdHVyZXgZc2VsZiNqdW1iZj1jMnBhLnNpZ25hdHVyZWphc3NlcnRpb25zgqJjdXJseCdzZWxmI2p1bWJmPWMycGEuYXNzZXJ0aW9ucy9jMnBhLmFjdGlvbnNkaGFzaFgg66xm4WqDn3xgnOk59f7WI0GCp10rxJISEEb0ImTQK8GiY3VybHgpc2VsZiNqdW1iZj1jMnBhLmFzc2VydGlvbnMvYzJwYS5oYXNoLmRhdGFkaGFzaFggOzqsGpL2f4nwoyVP8jKH/TnQXN0jn4xW5nsrZi1LVCFjYWxnZnNoYTI1NgAAKEBqdW1iAAAAKGp1bWRjMmNzABEAEIAAAKoAOJtxA2MycGEuc2lnbmF0dXJlAAAAKBBjYm9y0oREoQE4JKNmc2lnVHN0oWl0c3RUb2tlbnOBoWN2YWxZDjUwgg4xMAMCAQAwgg4oBgkqhkiG9w0BBwKggg4ZMIIOFQIBAzEPMA0GCWCGSAFlAwQCAQUAMIGCBgsqhkiG9w0BCRABBKBzBHEwbwIBAQYJYIZIAYb9bAcBMDEwDQYJYIZIAWUDBAIBBQAEIJ8hS/OjUBEeKys5MksEN9BBwiY/LLCxgFAwxlGOHdWiAhBUXJgFwon65vVXDw3kGBT5GA8yMDIzMTExNzE1NDQ1MloCCQCc+eWSOKsO4aCCC70wggUHMIIC76ADAgECAhAFHp6R1x6RCrvkPVzt0N3ZMA0GCSqGSIb3DQEBCwUAMGMxCzAJBgNVBAYTAlVTMRcwFQYDVQQKEw5EaWdpQ2VydCwgSW5jLjE7MDkGA1UEAxMyRGlnaUNlcnQgVHJ1c3RlZCBHNCBSU0E0MDk2IFNIQTI1NiBUaW1lU3RhbXBpbmcgQ0EwHhcNMjMwOTA4MDAwMDAwWhcNMzQxMjA3MjM1OTU5WjBYMQswCQYDVQQGEwJVUzEXMBUGA1UEChMORGlnaUNlcnQsIEluYy4xMDAuBgNVBAMTJ0RpZ2lDZXJ0IEFkb2JlIEFBVEwgVGltZXN0YW1wIFJlc3BvbmRlcjBZMBMGByqGSM49AgEGCCqGSM49AwEHA0IABE0srlH5A/+15/MFl1asNh8Q8TubOsEVfu0qlJrF0smjtwL1IeHZ/AB7J59u1Trpho1BDN85lfTY30rNBsfT+myjggGLMIIBhzAOBgNVHQ8BAf8EBAMCB4AwDAYDVR0TAQH/BAIwADAWBgNVHSUBAf8EDDAKBggrBgEFBQcDCDAgBgNVHSAEGTAXMAgGBmeBDAEEAjALBglghkgBhv1sBwEwHwYDVR0jBBgwFoAUuhbZbU2FL3MpdpovdYxqII+eyG8wHQYDVR0OBBYEFLA1qlbDIamLztO4vIsWJVed7zThMFoGA1UdHwRTMFEwT6BNoEuGSWh0dHA6Ly9jcmwzLmRpZ2ljZXJ0LmNvbS9EaWdpQ2VydFRydXN0ZWRHNFJTQTQwOTZTSEEyNTZUaW1lU3RhbXBpbmdDQS5jcmwwgZAGCCsGAQUFBwEBBIGDMIGAMCQGCCsGAQUFBzABhhhodHRwOi8vb2NzcC5kaWdpY2VydC5jb20wWAYIKwYBBQUHMAKGTGh0dHA6Ly9jYWNlcnRzLmRpZ2ljZXJ0LmNvbS9EaWdpQ2VydFRydXN0ZWRHNFJTQTQwOTZTSEEyNTZUaW1lU3RhbXBpbmdDQS5jcnQwDQYJKoZIhvcNAQELBQADggIBAHgrjELHhBCEWJSCyRX7lsL0C9LJgbX1ryVYySNRxHkMR2LqC7PQZRJgDNR+kJop8P5v2Bzp/jMrzw4U4pY6rYv3I8HpFlJa4uBwUTIUgHWpi8Xxd1JEEX94POODi7HySekX60A055BozFb7GGVaxb0LreQTRXnkr6ggPNUPX9Gh+2ScOxlTdQQLgZbkdYvxo3Ap6cy9riZijRxOZqiOyWSxMUhgKxeKzwrFW6Xbe0awNhOUXZzIxc4ixpKzWSItpPJ30ZiBQn49U3ADYTnshbN9ZkTA1pHf/Nov2ZUvvddkZ8UYvwo9vBvLTDvnmABnRMBKaXYAs3ZCvw9CkDPOWTeUJMFRAtmUx52ohaA3nD8bCJ6UfpQ2pFfOdShwpb6GKv0g+BgcdIG2LHPJ0Ufmr+XmpgZgq/HIge0hjcCADpjDgq2z4B0L4xtAA1M8MrUx02hxb7104nFKqMuv5zJTQl3sgwqXUyP+9zHQP9y/Z5Fx/AQWrOXCW56dV7P4cFBJl8zHqinlhkOStZ1m22+9Hlq+eC0hJ2lkF1LuzRdJJb/51LXoPKRnopFDng6XpoD7eG6w4YpAx9+P00JuUoBsYSrdsuFiyWyQQGBAnjI69ggbSLcW+hJytuinaxawVlItJkS2eV5Z4XsxPg7f82uRkdtN0hTHeI93CN3OWeRebnK7MIIGrjCCBJagAwIBAgIQBzY3tyRUfNhHrP0oZipeWzANBgkqhkiG9w0BAQsFADBiMQswCQYDVQQGEwJVUzEVMBMGA1UEChMMRGlnaUNlcnQgSW5jMRkwFwYDVQQLExB3d3cuZGlnaWNlcnQuY29tMSEwHwYDVQQDExhEaWdpQ2VydCBUcnVzdGVkIFJvb3QgRzQwHhcNMjIwMzIzMDAwMDAwWhcNMzcwMzIyMjM1OTU5WjBjMQswCQYDVQQGEwJVUzEXMBUGA1UEChMORGlnaUNlcnQsIEluYy4xOzA5BgNVBAMTMkRpZ2lDZXJ0IFRydXN0ZWQgRzQgUlNBNDA5NiBTSEEyNTYgVGltZVN0YW1waW5nIENBMIICIjANBgkqhkiG9w0BAQEFAAOCAg8AMIICCgKCAgEAxoY1BkmzwT1ySVFVxyUDxPKRN6mXUaHW0oPRnkyibaCwzIP5WvYRoUQVQl+kiPNo+n3znIkLf50fng8zH1ATCyZzlm34V6gCff1DtITaEfFzsbPuK4CEiiIY3+vaPcQXf6sZKz5C3GeO6lE98NZW1OcoLevTsbV15x8GZY2UKdPZ7Gnf2ZCHRgB720RBidx8ald68Dd5n12sy+iEZLRS8nZH92GDGd1ftFQLIWhuNyG7QKxfst5Kfc71ORJn7w6lY2zkpsUdzTYNXNXmG6jBZHRAp8ByxbpOH7G1WE15/tePc5OsLDnipUjW8LAxE6lXKZYnLvWHpo9OdhVVJnCYJn+gGkcgQ+NDY4B7dW4nJZCYOjgRs/b2nuY7W+yB3iIU2YIqx5K/oN7jPqJz+ucfWmyU8lKVEStYdEAoq3NDzt9KoRxrOMUp88qqlnNCaJ+2RrOdOqPVA+C/8KI8ykLcGEh/FDTP0kyr75s9/g64ZCr6dSgkQe1CvwWcZklSUPRR8zZJTYsg0ixXNXkrqPNFYLwjjVj33GHek/45wPmyMKVM1+mYSlg+0wOI/rOP015LdhJRk8mMDDtbiiKowSYI+RQQEgN9XyO7ZONj4KbhPvbCdLI/Hgl27KtdRnXiYKNYCQEoAA6EVO7O6V3IXjASvUaetdN2udIOa5kM0jO0zbECAwEAAaOCAV0wggFZMBIGA1UdEwEB/wQIMAYBAf8CAQAwHQYDVR0OBBYEFLoW2W1NhS9zKXaaL3WMaiCPnshvMB8GA1UdIwQYMBaAFOzX44LScV1kTN8uZz/nupiuHA9PMA4GA1UdDwEB/wQEAwIBhjATBgNVHSUEDDAKBggrBgEFBQcDCDB3BggrBgEFBQcBAQRrMGkwJAYIKwYBBQUHMAGGGGh0dHA6Ly9vY3NwLmRpZ2ljZXJ0LmNvbTBBBggrBgEFBQcwAoY1aHR0cDovL2NhY2VydHMuZGlnaWNlcnQuY29tL0RpZ2lDZXJ0VHJ1c3RlZFJvb3RHNC5jcnQwQwYDVR0fBDwwOjA4oDagNIYyaHR0cDovL2NybDMuZGlnaWNlcnQuY29tL0RpZ2lDZXJ0VHJ1c3RlZFJvb3RHNC5jcmwwIAYDVR0gBBkwFzAIBgZngQwBBAIwCwYJYIZIAYb9bAcBMA0GCSqGSIb3DQEBCwUAA4ICAQB9WY7Ak7ZvmKlEIgF+ZtbYIULhsBguEE0TzzBTzr8Y+8dQXeJLKftwig2qKWn8acHPHQfpPmDI2AvlXFvXbYf6hCAlNDFnzbYSlm/EUExiHQwIgqgWvalWzxVzjQEiJc6VaT9Hd/tydBTX/6tPiix6q4XNQ1/tYLaqT5Fmniye4Iqs5f2MvGQmh2ySvZ180HAKfO+ovHVPulr3qRCyXen/KFSJ8NWKcXZl2szwcqMj+sAngkSumScbqyQeJsG33irr9p6xeZmBo1aGqwpFyd/EjaDnmPv7pp1yr8THwcFqcdnGE4AJxLafzYeHJLtPo0m5d2aR8XKc6UsCUqc3fpNTrDsdCEkPlM05et3/JWOZJyw9P2un8WbDQc1PtkCbISFA0LcTJM3cHXg65J6t5TRxktcma+Q4c6umAU+9Pzt4rUyt+8SVe+0KXzM5h0F4ejjpnOHdI/0dKNPH+ejxmF/7K9h+8kaddSweJywm228Vex4Ziza4k9Tm8heZWcpw8De/mADfIBZPJ/tgZxahZrrdVcA6KYawmKAr7ZVBtzrVFZgxtGIJDwq9gdkT/r+k0fNX2bwE+oLeMt8EifAAzV3C+dAjfwAL5HYCJtnwZXZCpimHCUcr5n8apIUP/JiW9lVUKx+A+sDyDivl1vupL0QVSucTDh3bNzgaoSv27dZ8/DGCAbcwggGzAgEBMHcwYzELMAkGA1UEBhMCVVMxFzAVBgNVBAoTDkRpZ2lDZXJ0LCBJbmMuMTswOQYDVQQDEzJEaWdpQ2VydCBUcnVzdGVkIEc0IFJTQTQwOTYgU0hBMjU2IFRpbWVTdGFtcGluZyBDQQIQBR6ekdcekQq75D1c7dDd2TANBglghkgBZQMEAgEFAKCB0TAaBgkqhkiG9w0BCQMxDQYLKoZIhvcNAQkQAQQwHAYJKoZIhvcNAQkFMQ8XDTIzMTExNzE1NDQ1MlowKwYLKoZIhvcNAQkQAgwxHDAaMBgwFgQU2Rq5M/4XremCHqYT9aQ6cU4+fn0wLwYJKoZIhvcNAQkEMSIEID++m07O/aSnGC+d3sH2RekK30vsQBxics9ePjmk/Z9GMDcGCyqGSIb3DQEJEAIvMSgwJjAkMCIEIILa8ZSVezaEAkWP1ScAaf5ixxRW+p4Lhqv4J+hTICfZMAoGCCqGSM49BAMCBEYwRAIgBaaKLmrkTXFU5dm4C8incLZZYe9Yn+mEbC2GWjma9xECIDq3nto15rEItoaOXR3t4fa3IejCiiLWjfNiSV5uTMm0Z3g1Y2hhaW6CWQYzMIIGLzCCBBegAwIBAgIQG1sLO9qw5F3y8w2eVNHa0jANBgkqhkiG9w0BAQsFADB1MQswCQYDVQQGEwJVUzEjMCEGA1UEChMaQWRvYmUgU3lzdGVtcyBJbmNvcnBvcmF0ZWQxHTAbBgNVBAsTFEFkb2JlIFRydXN0IFNlcnZpY2VzMSIwIAYDVQQDExlBZG9iZSBQcm9kdWN0IFNlcnZpY2VzIEczMB4XDTIzMDIwMTAwMDAwMFoXDTI0MDIwMTIzNTk1OVowgaExETAPBgNVBAMMCGNhaS1wcm9kMRwwGgYDVQQLDBNDb250ZW50IENyZWRlbnRpYWxzMRMwEQYDVQQKDApBZG9iZSBJbmMuMREwDwYDVQQHDAhTYW4gSm9zZTETMBEGA1UECAwKQ2FsaWZvcm5pYTELMAkGA1UEBhMCVVMxJDAiBgkqhkiG9w0BCQEWFWdycC1jYWktb3BzQGFkb2JlLmNvbTCCASIwDQYJKoZIhvcNAQEBBQADggEPADCCAQoCggEBAO/TAKd9hj2WQcOzKStMbsViWdgcFzK5qW4Pm71QuPO/4WxNY4uDw2GvP1FPEj0R4Fu7dabt/i+o+xBh/GQSnTAhroNWYQ5mFsB5F9uHJtZD8Pha+9yTiYRlH5BmZOkifsdfrWBu0wUeUlTGRgFy0igC31MEAVvP13kiDZYbRuwff1vr/xRJecgiTgUHp20FFPXF4TBIO3A53VgGldc0EmZFYdc0llnzmh/a0FN6yD+Qy9Os4knFgNn3tTjXrBy9tWiaV56z41dRjf9kHjEf42xmKWzubVsva/aFKceIuipl5QqSVsdSZPhmmOtkJ224ixabmPY89cqvscpS4JtlJcECAwEABaOCAYwwggGIMAwGA1UdEwEB/wQCMAAwDgYDVR0PAQH/BAQDAgeAMB4GA1UdJQQXMBUGCSqGSIb3LwEBDAYIKwYBBQUHAwQwgY4GA1UdIASBhjCBgzCBgAYJKoZIhvcvAQIDMHMwcQYIKwYBBQUHAgIwZQxjWW91IGFyZSBub3QgcGVybWl0dGVkIHRvIHVzZSB0aGlzIExpY2Vuc2UgQ2VydGlmaWNhdGUgZXhjZXB0IGFzIHBlcm1pdHRlZCBieSB0aGUgbGljZW5zZSBhZ3JlZW1lbnQuMF0GA1UdHwRWMFQwUqBQoE6GTGh0dHA6Ly9wa2ktY3JsLnN5bWF1dGguY29tL2NhXzdhNWMzYTBjNzMxMTc0MDZhZGQxOTMxMmJjMWJjMjNmL0xhdGVzdENSTC5jcmwwNwYIKwYBBQUHAQEEKzApMCcGCCsGAQUFBzABhhtodHRwOi8vcGtpLW9jc3Auc3ltYXV0aC5jb20wHwYDVR0jBBgwFoAUVyl6Mk3M/uQ1TsAfJHPOc1Or32owDQYJKoZIhvcNAQELBQADggIBAFeOUZrfIAr8aKOfqf8k1T0VmbvYw/q9zlzOtZ73LRP4RrC5G+GkPkR2LVOdeSul7ywySBKNMZ1tj7IaGrzOUJZB5c3X9pajcv1evW43Fj+hWkufS5ZZ+d8nvJH2AqX/Kgx+GPJ1Pi3V9ceL8yF+GtZJVEepfZTfVQUbP97b3w/aS/6+qHOkhSjVuP6OJu2g8swxBwI5O0qIk5OHijdVJmnBAMRELOj3U2QX4udmPBiXp8TlRIiSD+gKiiZfFI+mjDJsOtxEn2KVu0lwRHjz8saDDO/9zs5h2uifg+cRebUWQ5pWP5BF/s7CI1OLOieEjMtHlV+nRAc5a/9s/O8KM9B35evRDjTfZaVLFDCiy01MA+2hUBTg4LBUfcRyHfx6YnTT/p+QMJ2vsw3z/ifYtI2sxS9oERl2YuoMIGc7TZ1sWuamDelNzQWpFDgYv/zymNE1IzLm1T1KhCdIIZioiyN8vwDOA8QaJddGAAFhzW5d5x/j95rJvcrYw+zuGdZNtQqkcckjDGl03e9MZ1k1anP07F+6jd4QtCWRO8AIeCqRpeL8UBqcd7k8KGfp+vX/hw0XyCgPRu48CmBLfPPCqNGHGsfwhLA98mfwmrO6sxosMyedzXy0fNSIy1fveN/qheHu+gLFf9PgPecU+XFTeibZylwtDVZ3jTbrHXyuVIZHWQalMIIGoTCCBImgAwIBAgIQDKi2VHuJ5tIGiXXNi5uJ4jANBgkqhkiG9w0BAQsFADBsMQswCQYDVQQGEwJVUzEjMCEGA1UEChMaQWRvYmUgU3lzdGVtcyBJbmNvcnBvcmF0ZWQxHTAbBgNVBAsTFEFkb2JlIFRydXN0IFNlcnZpY2VzMRkwFwYDVQQDExBBZG9iZSBSb290IENBIEcyMB4XDTE2MTEyOTAwMDAwMFoXDTQxMTEyODIzNTk1OVowdTELMAkGA1UEBhMCVVMxIzAhBgNVBAoTGkFkb2JlIFN5c3RlbXMgSW5jb3Jwb3JhdGVkMR0wGwYDVQQLExRBZG9iZSBUcnVzdCBTZXJ2aWNlczEiMCAGA1UEAxMZQWRvYmUgUHJvZHVjdCBTZXJ2aWNlcyBHMzCCAiIwDQYJKoZIhvcNAQEBBQADggIPADCCAgoCggIBALcfLr29CbNcSGz+DIOubAHqUXglpIA+iaexsohk2vaJdoH5+R3zlfx4mI2Yjs/k7hxVPg1zWnfOsRKoFXhlTJbyBxnvxB3CgcbxA13ZU1wecyBJH5dP0hp+yer01/DDcm30oveXkA1DmfX4wmqvjwRY0uWX3jZs4v8kfjLANIyiqFmq0kQhRRQaVBUFnwIC8lzssTp10DkLnY8TY+lrtF9CAdd/iB9dVnCnFhFlzOI+I4eoS8tvQndxKFRt6MXFXpzBfxDIA9rV48eDVG0zQdf4PfjEejcOTIaeZP4N2rTRMQMYbboAvk90g0oUhCX7NqrookVB7V90YTnCtbNTiYE+bNrPcRsuf7sVaXACGitiogyV1t8cTfJ1z5pNTUlbv5sbX2qa+E70iW4a1O1AN6oUGPZ+Dp9rGx9V9U8Puy03pPCggOWQ4IThET4iKfybfPd6qL9WxOayZGoHFYNFqo4fPTYQmgQPFckbd6L5RsginTVdlC925+b3RbE5O6qpqfZmpM9f0rlV2MSH+i+vvEVzmrV1mj5JrnLixNUzznj+0tTeSU6BQrPNJdg9hLcaEFxgkePCv3E1Eec1f30PoXSDs6KNJxZ++2PGHXdpO/8fQRO/KZqHjJ8OlV2H1wrlhII+qe46Wy6MUDKFjAlc5YO9llTYSRZUsOGg/H3Ons3hAgMBAAGjggE0MIIBMDASBgNVHRMBAf8ECDAGAQH/AgEAMDUGA1UdHwQuMCwwKqAooCaGJGh0dHA6Ly9jcmwuYWRvYmUuY29tL2Fkb2Jlcm9vdGcyLmNybDAOBgNVHQ8BAf8EBAMCAQYwFAYDVR0lBA0wCwYJKoZIhvcvAQEHMFcGA1UdIARQME4wTAYJKoZIhvcvAQIDMD8wPQYIKwYBBQUHAgEWMWh0dHBzOi8vd3d3LmFkb2JlLmNvbS9taXNjL3BraS9wcm9kX3N2Y2VfY3BzLmh0bWwwJAYDVR0RBB0wG6QZMBcxFTATBgNVBAMTDFNZTUMtNDA5Ni0zMzAdBgNVHQ4EFgQUVyl6Mk3M/uQ1TsAfJHPOc1Or32owHwYDVR0jBBgwFoAUphzhbVQkTKiPSHK/bqmM1eTsMdQwDQYJKoZIhvcNAQELBQADggIBAHHO5QeMptwt3MjgO2VeAJKBleuVICSvn2k4Xcl88bjapU0AZTslwRhcnr5Zt9wbBjtZgyX6M7si8k9vuyFcVhb1ucmDFfuUtTXgoTFyGZws1jV57oiEEnZjw/NkxFQpJ3kKRRE+DQ8EsaPP8pH8Oh8fH4bis9MI4Y5FjF5it3TWVyLmFXG8pxy8iTswPr1lN7B9k9Iz7RaexTd/RmZ3uGBtGlTJZx4bR4cWl1Qor9kVaEeMNULbyh0Kc3zzm0edwpe+Ii0rRlRSj8Ai2EUqWEReyer1Uv18VuC87zdm+lRCjnLyZjdy4acRUZd2GM1vncJ8LW7h1uliZZo332y5tTMSxRpRveWgs99V/MM6mDbL2/fuQF3L/C5evbS15jtTrbGP98CCzVBKeFS2UxN8Kpt5/ITJwpWYoismQkuy+BNJgpW8fgUUjB93laOo4L3uNf3ytxUDOEAjSJKRrOxY4y8vqbQvicslqnH7zkaxVfxjoAeYQ/huYISXCKXooA/5R7AkWLDmubBXakRIcCFi5klrTcHy2XSd3ZAnO8kaZt4GpeqkX05GKcUzccSsrym5GiQ6MUfb7Vqwt4ja0HfVb8Qt017bs6B26rpnqoHAKnn1hfburJ0OEPRZF83riQKzbkrzyIYAY1bYIB9MNL5v5ZgkGIgv2NdhngsX4GJS9927Y3BhZFkLvgAAAAAAAAAAAAAAAAAAAAAAAAAAAAAAAAAAAAAAAAAAAAAAAAAAAAAAAAAAAAAAAAAAAAAAAAAAAAAAAAAAAAAAAAAAAAAAAAAAAAAAAAAAAAAAAAAAAAAAAAAAAAAAAAAAAAAAAAAAAAAAAAAAAAAAAAAAAAAAAAAAAAAAAAAAAAAAAAAAAAAAAAAAAAAAAAAAAAAAAAAAAAAAAAAAAAAAAAAAAAAAAAAAAAAAAAAAAAAAAAAAAAAAAAAAAAAAAAAAAAAAAAAAAAAAAAAAAAAAAAAAAAAAAAAAAAAAAAAAAAAAAAAAAAAAAAAAAAAAAAAAAAAAAAAAAAAAAAAAAAAAAAAAAAAAAAAAAAAAAAAAAAAAAAAAAAAAAAAAAAAAAAAAAAAAAAAAAAAAAAAAAAAAAAAAAAAAAAAAAAAAAAAAAAAAAAAAAAAAAAAAAAAAAAAAAAAAAAAAAAAAAAAAAAAAAAAAAAAAAAAAAAAAAAAAAAAAAAAAAAAAAAAAAAAAAAAAAAAAAAAAAAAAAAAAAAAAAAAAAAAAAAAAAAAAAAAAAAAAAAAAAAAAAAAAAAAAAAAAAAAAAAAAAAAAAAAAAAAAAAAAAAAAAAAAAAAAAAAAAAAAAAAAAAAAAAAAAAAAAAAAAAAAAAAAAAAAAAAAAAAAAAAAAAAAAAAAAAAAAAAAAAAAAAAAAAAAAAAAAAAAAAAAAAAAAAAAAAAAAAAAAAAAAAAAAAAAAAAAAAAAAAAAAAAAAAAAAAAAAAAAAAAAAAAAAAAAAAAAAAAAAAAAAAAAAAAAAAAAAAAAAAAAAAAAAAAAAAAAAAAAAAAAAAAAAAAAAAAAAAAAAAAAAAAAAAAAAAAAAAAAAAAAAAAAAAAAAAAAAAAAAAAAAAAAAAAAAAAAAAAAAAAAAAAAAAAAAAAAAAAAAAAAAAAAAAAAAAAAAAAAAAAAAAAAAAAAAAAAAAAAAAAAAAAAAAAAAAAAAAAAAAAAAAAAAAAAAAAAAAAAAAAAAAAAAAAAAAAAAAAAAAAAAAAAAAAAAAAAAAAAAAAAAAAAAAAAAAAAAAAAAAAAAAAAAAAAAAAAAAAAAAAAAAAAAAAAAAAAAAAAAAAAAAAAAAAAAAAAAAAAAAAAAAAAAAAAAAAAAAAAAAAAAAAAAAAAAAAAAAAAAAAAAAAAAAAAAAAAAAAAAAAAAAAAAAAAAAAAAAAAAAAAAAAAAAAAAAAAAAAAAAAAAAAAAAAAAAAAAAAAAAAAAAAAAAAAAAAAAAAAAAAAAAAAAAAAAAAAAAAAAAAAAAAAAAAAAAAAAAAAAAAAAAAAAAAAAAAAAAAAAAAAAAAAAAAAAAAAAAAAAAAAAAAAAAAAAAAAAAAAAAAAAAAAAAAAAAAAAAAAAAAAAAAAAAAAAAAAAAAAAAAAAAAAAAAAAAAAAAAAAAAAAAAAAAAAAAAAAAAAAAAAAAAAAAAAAAAAAAAAAAAAAAAAAAAAAAAAAAAAAAAAAAAAAAAAAAAAAAAAAAAAAAAAAAAAAAAAAAAAAAAAAAAAAAAAAAAAAAAAAAAAAAAAAAAAAAAAAAAAAAAAAAAAAAAAAAAAAAAAAAAAAAAAAAAAAAAAAAAAAAAAAAAAAAAAAAAAAAAAAAAAAAAAAAAAAAAAAAAAAAAAAAAAAAAAAAAAAAAAAAAAAAAAAAAAAAAAAAAAAAAAAAAAAAAAAAAAAAAAAAAAAAAAAAAAAAAAAAAAAAAAAAAAAAAAAAAAAAAAAAAAAAAAAAAAAAAAAAAAAAAAAAAAAAAAAAAAAAAAAAAAAAAAAAAAAAAAAAAAAAAAAAAAAAAAAAAAAAAAAAAAAAAAAAAAAAAAAAAAAAAAAAAAAAAAAAAAAAAAAAAAAAAAAAAAAAAAAAAAAAAAAAAAAAAAAAAAAAAAAAAAAAAAAAAAAAAAAAAAAAAAAAAAAAAAAAAAAAAAAAAAAAAAAAAAAAAAAAAAAAAAAAAAAAAAAAAAAAAAAAAAAAAAAAAAAAAAAAAAAAAAAAAAAAAAAAAAAAAAAAAAAAAAAAAAAAAAAAAAAAAAAAAAAAAAAAAAAAAAAAAAAAAAAAAAAAAAAAAAAAAAAAAAAAAAAAAAAAAAAAAAAAAAAAAAAAAAAAAAAAAAAAAAAAAAAAAAAAAAAAAAAAAAAAAAAAAAAAAAAAAAAAAAAAAAAAAAAAAAAAAAAAAAAAAAAAAAAAAAAAAAAAAAAAAAAAAAAAAAAAAAAAAAAAAAAAAAAAAAAAAAAAAAAAAAAAAAAAAAAAAAAAAAAAAAAAAAAAAAAAAAAAAAAAAAAAAAAAAAAAAAAAAAAAAAAAAAAAAAAAAAAAAAAAAAAAAAAAAAAAAAAAAAAAAAAAAAAAAAAAAAAAAAAAAAAAAAAAAAAAAAAAAAAAAAAAAAAAAAAAAAAAAAAAAAAAAAAAAAAAAAAAAAAAAAAAAAAAAAAAAAAAAAAAAAAAAAAAAAAAAAAAAAAAAAAAAAAAAAAAAAAAAAAAAAAAAAAAAAAAAAAAAAAAAAAAAAAAAAAAAAAAAAAAAAAAAAAAAAAAAAAAAAAAAAAAAAAAAAAAAAAAAAAAAAAAAAAAAAAAAAAAAAAAAAAAAAAAAAAAAAAAAAAAAAAAAAAAAAAAAAAAAAAAAAAAAAAAAAAAAAAAAAAAAAAAAAAAAAAAAAAAAAAAAAAAAAAAAAAAAAAAAAAAAAAAAAAAAAAAAAAAAAAAAAAAAAAAAAAAAAAAAAAAAAAAAAAAAAAAAAAAAAAAAAAAAAAAAAAAAAAAAAAAAAAAAAAAAAAAAAAAAAAAAAAAAAAAAAAAAAAAAAAAAAAAAAAAAAAAAAAAAAAAAAAAAAAAAAAAAAAAAAAAAAAAAAAAAAAAAAAAAAAAAAAAAAAAAAAAAAAAAAAAAAAAAAAAAAAAAAAAAAAAAAAAAAAAAAAAAAAAAAAAAAAAAAAAAAAAAAAAAAAAAAAAAAAAAAAAAAAAAAAAAAAAAAAAAAAAAAAAAAAAAAAAAAAAAAAAAAAAAAAAAAAAAAAAAAAAAAAAAAAAAAAAAAAAAAAAAAAAAAAAAAAAAAAAAAAAAAAAAAAAAAAAAAAAAAAAAAAAAAAAAAAAAAAAAAAAAAAAAAAAAAAAAAAAAAAAAAAAAAAAAAAAAAAAAAAAAAAAAAAAAAAAAAAAAAAAAAAAAAAAAAAAAAAAAAAAAAAAAAAAAAAAAAAAAAAAAAAAAAAAAAAAAAAAAAAAAAAAAAAAAAAAAAAAAAAAAAAAAAAAAAAAAAAAAAAAAAAAAAAAAAAAAAAAAAAAAAAAAAAAAAAAAAAAAAAAAAAAAAAAAAAAAAAAAAAAAAAAAAAAAAAAAAAAAAAAAAAAAAAAAAAAAAAAAAAAAAAAAAAAAAAAAAAAAAAAAAAAAAAAAAAAAAAAAAAAAAAAAAAAAAAAAAAAAAAAAAAAAAAAAAAAAAAAAAAAAAAAAAAAAAAAAAAAAAAAAAAAAAAAAAAAAAAAAAAAAAAAAAAAAAAAAAAAAAAAAAAAAAAAAAAAAAAAAAAAAAAAAAAAAAAAAAAAAAAAAAAAAAAAAAAAAAAAAAAAAAAAAAAAAAAAAAAAAAAAAAAAAAAAAAAAAAAAAAAAAAAAAAAAAAAAAAAAAAAAAAAAAAAAAAAAAAAAAAAAAAAAAAAAAAAAAAAAAAAAAAAAAAAAAAAAAAAAAAAAAAAAAAAAAAAAAAAAAAAAAAAAAAAAAAAAAAAAAAAAAAAAAAAAAAAAAAAAAAAAAAAAAAAAAAAAAAAAAAAAAAAAAAAAAAAAAAAAAAAAAAAAAAAAAAAAAAAAAAAAAAAAAAAAAAAAAAAAAAAAAAAAAAAAAAAAAAAAAAAAAAAAAAAAAAAAAAAAAAAAAAAAAAAAAAAAAAAAAAAAAAAAAAAAAAAAAAAAAAAAAAAAAAAAAAAAAAAAAAAAAAAAAAAAAAAAAAAAAAAAAAAAAAAAAAAAAAAAAAAAAAAAAAAAAAAAAAAAAAAAAAAAAAAAAAAAAAAAAAAAAAAPZZAQCtLmbqb9+4ru92HdUyL9sV+9mLr3xA8yCHFUajuKq1DpxGE4cwvVE8YRj1Ny1UBApas7ls7HLNmD05CmZPRDm4q0AmYvo6Gweq8zCZrhGrDBFXVMiCY8mKkkVPXL9l0BHaSNxKVYilxupBK+nDHFciIW2x+encGK08Qkpiqhhw4xCrvz6IO57v7oyt2Xfili8H+trPR9yaUmo6WPvaJOT11vSuGYOowngz/h0W1kbPT5nOK8yduVZF3d3s9ekdR+cMgCDLMxNOI3+aJonCpUXZpu8zzxrnEP2RZWxiCbBNcfrGmippAmRoz975C4PnYXJEiOc9BaS/SP8ykEPeBxD8</c2pa:manifest></metadata>
  <defs>
    <style>.cls-1 {
  fill: #fefefe;
}

.cls-1, .cls-2, .cls-3, .cls-4 {
  stroke-width: 0;
}

.cls-2 {
  fill: #f5d123;
}

.cls-3 {
  fill: #edd777;
}

.cls-4 {
  fill: #251236;
}

</style>
  </defs>
  <path class="cls-1" d="m25.603,122.446c.003.518.01,1.036.01,1.554,0,9.738.011,19.476-.005,29.214-.004,2.509.862,4.608,2.77,6.24,1.682,1.439,3.689,1.857,5.857,1.856,40.558-.012,81.117-.007,121.675-.01,1.214,0,1.023.151,1.023-1.022.004-42.319.001-84.639.022-126.958,0-.757-.207-.944-.933-.936-3.211.036-6.423.017-9.634.018-.014-.258-.041-.515-.041-.773-.004-4.998.02-9.997-.014-14.995-.032-4.818-3.404-8.121-8.223-8.121-33.693,0-67.385,0-101.078.004-.304,0-.623-.083-.91.093-.274.147-.555.281-.82.442-7.151,4.314-14.289,8.65-21.467,12.919-.779.463-.97.937-.97,1.763.018,34.107.015,68.213.015,102.32,0,1.036-.007,2.072.005,3.108.003.218-.128.509.118.639.204.108.368-.138.534-.238,3.412-2.053,6.808-4.132,10.235-6.159.587-.347,1.097-.879,1.831-.957Z"></path>
  <path class="cls-2" d="m36.121,8.611c.288-.176.607-.093.911-.093,33.693-.004,67.385-.004,101.078-.004,4.819,0,8.191,3.302,8.223,8.121.033,4.998.01,9.996.014,14.995,0,.258.027.516.041.773-.003.233-.01.466-.01.699,0,27.248,0,54.497-.002,81.745,0,1.188.124,1.073-1.091,1.073-21.395.002-42.789.002-64.184.001-14.971,0-29.942-.004-44.913-.005-.002-.311-.004-.622-.004-.932,0-35.123-.001-70.245-.004-105.368,0-.335-.038-.669-.058-1.004Zm54.697,23.954c-3.057,0-6.113.018-9.169-.015-.627-.007-.903.171-1.075.793-1.016,3.69-2.072,7.369-3.124,11.049-2.616,9.152-5.238,18.302-7.857,27.453-1.83,6.391-3.661,12.782-5.49,19.172q-.31,1.084.854,1.086c4.248.001,8.496-.021,12.744.022.741.007,1.033-.22,1.204-.918.916-3.743,1.895-7.471,2.8-11.216.175-.725.479-.917,1.203-.912,5.362.033,10.724.029,16.085.004.596-.003.859.154,1.021.745,1.069,3.89,2.186,7.766,3.26,11.654.126.455.297.632.781.631,4.637-.015,9.273-.014,13.91,0,.565.002.645-.165.479-.69-.661-2.096-1.274-4.208-1.91-6.312-2.3-7.602-4.609-15.201-6.904-22.804-2.915-9.658-5.824-19.318-8.712-28.985-.172-.576-.408-.775-1.008-.769-3.03.029-6.061.013-9.092.013Z"></path>
  <path class="cls-4" d="m36.188,115.915c14.971.002,29.942.005,44.913.005,21.395,0,42.789,0,64.184-.001,1.215,0,1.091.115,1.091-1.073.001-27.248.001-54.497.002-81.745,0-.233.007-.466.01-.699,3.211,0,6.423.018,9.634-.018.726-.008.934.179.933.936-.021,42.319-.018,84.639-.022,126.958,0,1.174.191,1.022-1.023,1.022-40.558.003-81.117-.001-121.675.01-2.168,0-4.175-.417-5.857-1.856-1.908-1.632-2.774-3.731-2.77-6.24.016-9.738.006-19.476.005-29.214,0-.518-.006-1.036-.01-1.554.11-.227.336-.309.533-.429,3.351-2.033,6.701-4.068,10.052-6.103Zm71.865,18.038c.378.313.466.648.608.948,2.149,4.537,4.302,9.073,6.433,13.619.203.433.431.629.928.62,1.605-.029,3.212-.028,4.818,0,.509.009.667-.148.666-.66-.014-7.123-.013-14.247,0-21.37,0-.476-.143-.633-.618-.621-1.139.028-2.282.053-3.418-.007-.702-.037-.865.198-.859.871.033,3.833.022,7.667.014,11.501,0,.329.107.696-.172,1.054-.129-.214-.232-.361-.31-.519-2-4.092-4.001-8.185-5.99-12.282-.179-.369-.33-.631-.834-.621-1.838.036-3.678.03-5.517.004-.494-.007-.611.168-.603.628.024,1.502.009,3.005.009,4.507,0,5.569.011,11.139-.014,16.708-.003.657.19.843.829.814,1.086-.05,2.176-.044,3.263-.002.569.022.765-.133.761-.729-.02-3.367.001-6.735.007-10.102.002-1.415,0-2.83,0-4.358Zm-26.032,3.827h-.002c0,3.523.012,7.045-.011,10.568-.004.596.146.816.78.796,1.423-.047,2.849-.035,4.273-.002.524.012.661-.173.655-.672-.024-1.942-.01-3.885-.011-5.828,0-1.681,0-1.657,1.652-1.689.564-.011.883.144,1.134.675.829,1.755,1.692,3.494,2.585,5.217,1.236,2.388,3.728,3.353,6.256,2.485.398-.137.594-.334.577-.779-.029-.776-.019-1.554-.005-2.331.006-.34-.094-.557-.464-.565-.899-.019-1.388-.579-1.771-1.306-.722-1.374-1.447-2.748-2.199-4.106-.218-.393-.122-.562.246-.768,1.153-.648,2.06-1.539,2.645-2.753.642-1.333.421-2.744.424-4.13.005-2.06-.949-3.613-2.672-4.704-1.583-1.002-3.357-1.347-5.189-1.375-2.667-.04-5.336.01-8.003-.03-.691-.01-.925.145-.916.886.042,3.47.019,6.941.019,10.412Zm-13.415-11.283c-1.036,0-2.073.037-3.107-.015-.564-.028-.752.209-.889.703-.746,2.692-1.521,5.375-2.288,8.061-1.257,4.401-2.506,8.805-3.786,13.199-.181.62.032.702.568.693,1.424-.024,2.849-.028,4.272.003.484.01.681-.169.791-.622.304-1.257.666-2.5.966-3.757.1-.418.249-.598.713-.591,1.864.029,3.729.034,5.593.002.509-.009.659.204.771.642.3,1.178.667,2.338.962,3.516.145.579.363.856,1.041.82,1.317-.071,2.64-.02,3.961-.021,1.019,0,1.023-.003.729-.976-2.123-7.032-4.252-14.062-6.364-21.096-.125-.415-.297-.586-.748-.571-1.061.034-2.123.011-3.185.01Z"></path>
  <path class="cls-3" d="m36.188,115.915c-3.35,2.035-6.701,4.069-10.052,6.103-.197.12-.423.202-.533.429-.734.077-1.244.609-1.831.957-3.427,2.027-6.823,4.106-10.235,6.159-.166.1-.33.346-.534.238-.246-.13-.115-.421-.118-.639-.012-1.036-.005-2.072-.005-3.108,0-34.107.002-68.213-.015-102.32,0-.826.191-1.3.97-1.763,7.178-4.268,14.316-8.605,21.467-12.919.266-.16.546-.295.82-.442.02.335.058.669.058,1.004.003,35.123.004,70.245.004,105.368,0,.311.003.622.004.932Z"></path>
  <path class="cls-4" d="m90.818,32.564c3.031,0,6.062.016,9.092-.013.6-.006.836.194,1.008.769,2.888,9.666,5.798,19.326,8.712,28.985,2.295,7.603,4.603,15.202,6.904,22.804.637,2.104,1.25,4.215,1.91,6.312.165.525.086.691-.479.69-4.637-.013-9.273-.015-13.91,0-.484.002-.655-.176-.781-.631-1.074-3.888-2.191-7.764-3.26-11.654-.162-.591-.425-.748-1.021-.745-5.362.025-10.724.029-16.085-.004-.724-.004-1.028.187-1.203.912-.905,3.746-1.884,7.473-2.8,11.216-.171.698-.463.926-1.204.918-4.248-.043-8.496-.021-12.744-.022q-1.162,0-.854-1.086c1.83-6.391,3.661-12.782,5.49-19.172,2.62-9.151,5.241-18.301,7.857-27.453,1.052-3.68,2.108-7.359,3.124-11.049.171-.622.447-.799,1.075-.793,3.056.033,6.113.015,9.169.015Zm-.036,10.173c-.316.262-.297.536-.354.782-.848,3.65-1.691,7.3-2.547,10.948-1.009,4.301-2.019,8.602-3.061,12.895-.132.545-.042.665.503.663,3.597-.018,7.195-.018,10.792.001.577.003.802-.104.622-.741-.295-1.044-.511-2.11-.765-3.165-.98-4.069-1.959-8.139-2.946-12.207-.735-3.032-1.482-6.062-2.244-9.176Z"></path>
  <path class="cls-2" d="m108.053,133.953c0,1.528.002,2.943,0,4.358-.005,3.367-.026,6.735-.007,10.102.003.596-.192.751-.761.729-1.086-.042-2.177-.047-3.263.002-.639.029-.832-.157-.829-.814.026-5.569.015-11.138.014-16.708,0-1.502.015-3.005-.009-4.507-.007-.46.109-.636.603-.628,1.839.027,3.679.032,5.517-.004.504-.01.654.252.834.621,1.989,4.098,3.99,8.19,5.99,12.282.078.159.181.305.31.519.279-.358.171-.725.172-1.054.008-3.834.019-7.667-.014-11.501-.006-.674.157-.909.859-.871,1.137.061,2.279.035,3.418.007.475-.012.619.146.618.621-.013,7.123-.014,14.247,0,21.37,0,.512-.158.669-.666.66-1.606-.028-3.212-.029-4.818,0-.497.009-.725-.187-.928-.62-2.131-4.546-4.283-9.082-6.433-13.619-.142-.3-.229-.635-.608-.948Z"></path>
  <path class="cls-2" d="m82.021,137.78c0-3.471.023-6.942-.019-10.412-.009-.741.225-.896.916-.886,2.667.039,5.336-.01,8.003.03,1.832.028,3.606.373,5.189,1.375,1.724,1.091,2.677,2.644,2.672,4.704-.003,1.386.218,2.796-.424,4.13-.585,1.215-1.492,2.105-2.645,2.753-.368.207-.463.375-.246.768.752,1.358,1.477,2.732,2.199,4.106.382.727.872,1.287,1.771,1.306.37.008.47.224.464.565-.014.777-.025,1.555.005,2.331.017.446-.179.642-.577.779-2.528.869-5.019-.097-6.256-2.485-.892-1.723-1.756-3.463-2.585-5.217-.251-.531-.57-.686-1.134-.675-1.652.033-1.652.009-1.652,1.689,0,1.943-.013,3.885.011,5.828.006.499-.13.684-.655.672-1.424-.032-2.85-.044-4.273.002-.634.021-.784-.2-.78-.796.023-3.522.011-7.045.011-10.568h.002Zm5.665-3.974c0,.957.003,1.915-.002,2.872-.001.302-.009.571.426.558.879-.026,1.765.035,2.637-.051,1.524-.15,2.334-1.102,2.359-2.651.008-.466.008-.932.003-1.397-.017-1.657-.879-2.587-2.55-2.694-.773-.049-1.553.001-2.328-.032-.463-.02-.566.178-.555.599.026.931.008,1.863.008,2.795Z"></path>
  <path class="cls-2" d="m68.606,126.498c1.062,0,2.124.023,3.185-.011.452-.014.624.156.748.571,2.112,7.035,4.241,14.065,6.364,21.096.294.973.29.975-.729.976-1.321.001-2.644-.05-3.961.021-.678.036-.896-.241-1.041-.82-.295-1.178-.663-2.339-.962-3.516-.111-.437-.261-.65-.771-.642-1.864.032-3.729.027-5.593-.002-.465-.007-.614.172-.713.591-.3,1.258-.662,2.5-.966,3.757-.109.452-.307.632-.791.622-1.424-.03-2.848-.026-4.272-.003-.536.009-.749-.073-.568-.693,1.28-4.394,2.529-8.798,3.786-13.199.767-2.686,1.542-5.369,2.288-8.061.137-.494.325-.731.889-.703,1.033.051,2.071.015,3.107.015Zm.048,4.203c-.119.045-.161.05-.165.065-.696,2.914-1.387,5.828-2.085,8.741-.106.442.146.465.472.463,1.113-.006,2.228-.032,3.34.011.622.024.683-.211.551-.734-.481-1.905-.931-3.818-1.399-5.726-.23-.939-.474-1.874-.714-2.82Z"></path>
  <path class="cls-2" d="m90.782,42.737c.762,3.114,1.508,6.144,2.244,9.176.987,4.068,1.965,8.137,2.946,12.207.254,1.055.47,2.122.765,3.165.18.637-.045.744-.622.741-3.597-.019-7.195-.019-10.792-.001-.545.003-.635-.118-.503-.663,1.042-4.293,2.052-8.594,3.061-12.895.856-3.648,1.699-7.298,2.547-10.948.057-.247.038-.521.354-.782Z"></path>
  <path class="cls-4" d="m87.686,133.806c0-.932.018-1.864-.008-2.795-.012-.421.092-.619.555-.599.775.033,1.554-.018,2.328.032,1.671.107,2.533,1.036,2.55,2.694.005.466.005.932-.003,1.397-.026,1.548-.836,2.5-2.359,2.651-.872.086-1.758.024-2.637.051-.435.013-.428-.256-.426-.558.004-.957.002-1.915.002-2.872Z"></path>
  <path class="cls-4" d="m68.654,130.701c.24.946.483,1.881.714,2.82.468,1.908.918,3.821,1.399,5.726.132.523.071.758-.551.734-1.112-.043-2.226-.017-3.34-.011-.325.002-.577-.021-.472-.463.698-2.913,1.389-5.828,2.085-8.741.003-.014.046-.019.165-.065Z"></path>
</svg>