<svg id="Calque_1" data-name="Calque 1" xmlns="http://www.w3.org/2000/svg" viewBox="0 0 169.809 169.809"><path d="M84.888 5.993c43.249-.308 79.232 35.274 78.977 79.299-.25 43.278-35.469 78.81-79.399 78.525-43.122-.28-78.404-34.655-78.524-78.785C5.82 40.529 41.819 5.828 84.888 5.993Zm26.062 12.558-.185.252c.306.285.617.564.916.855 1.327 1.295 2.384 2.652 2.238 4.72-.298 4.218-2.784 6.728-6.349 8.385-4.959 2.305-10.292 3.336-15.63 4.251-5.644.967-11.275 1.963-16.777 3.581-7.125 2.096-13.997 4.811-20.479 8.461-5.963 3.358-11.541 7.212-16.26 12.25-4.001 4.271-7.242 9.01-9.631 14.35-4.572 10.219-5.601 20.782-2.863 31.629 2.176 8.624 6.624 16.048 12.662 22.524 3.495 3.748 7.388 7.015 11.785 9.704 6.843 4.184 14.251 6.526 22.225 6.995 4.526.266 9.036-.095 13.466-1.181 9.562-2.343 17.864-6.808 24.461-14.265 4.303-4.864 8.262-9.953 11.41-15.658 3.486-6.318 6.084-12.983 7.588-20.022 1.144-5.354 1.941-10.783 2.838-16.188.971-5.852 1.907-11.71 3.975-17.305.973-2.631 2.177-5.162 4.623-6.758 2.683-1.751 6.297-2.424 8.601 1.027.113.169.324.271.49.404l.21-.191c-4.806-10.96-11.922-20.16-21.348-27.575a69.514 69.514 0 0 0-17.967-10.246Z" style="stroke-width:0;fill:#f5d123"/><path d="M150.262 56.371c-.07.06-.14.13-.21.19-.16-.13-.37-.23-.49-.4-2.3-3.45-5.91-2.78-8.6-1.03-2.44 1.6-3.65 4.13-4.62 6.76-2.07 5.59-3 11.45-3.98 17.3-.89 5.41-1.69 10.84-2.83 16.19-1.51 7.04-4.11 13.7-7.59 20.02-1.95 3.54-4.22 6.84-6.69 10-4.69 3.06-9.91 5.2-15.58 6.59-4.43 1.08-8.94 1.44-13.47 1.18-7.97-.47-15.38-2.81-22.22-7-4.4-2.69-8.29-5.95-11.79-9.7-6.04-6.48-10.48-13.9-12.66-22.53-2.74-10.84-1.71-21.41 2.86-31.62 1.39-3.08 3.04-5.97 4.97-8.68 2.35-1.66 4.8-3.17 7.32-4.58 6.49-3.65 13.36-6.37 20.48-8.47 5.5-1.61 11.13-2.61 16.78-3.58 5.34-.91 10.67-1.94 15.63-4.25 3.56-1.65 6.05-4.16 6.35-8.38.14-2.07-.91-3.43-2.24-4.72-.3-.29-.61-.57-.92-.86.07-.08.13-.17.19-.25a69.22 69.22 0 0 1 17.97 10.25c9.42 7.41 16.54 16.61 21.34 27.57Z" style="fill:#251236;stroke-width:0"/><path d="M115.256 125.397a112.92 112.92 0 0 1-4.725 5.665c-6.595 7.455-14.9 11.92-24.46 14.265-4.43 1.085-8.94 1.445-13.465 1.18-7.975-.47-15.385-2.81-22.225-6.995-4.4-2.69-8.295-5.955-11.785-9.705-6.04-6.475-10.49-13.9-12.665-22.525-2.735-10.845-1.705-21.405 2.865-31.625 2.39-5.34 5.63-10.08 9.63-14.35 2.73-2.915 5.745-5.435 8.96-7.685a50.274 50.274 0 0 0-4.99 8.695c-4.57 10.215-5.6 20.78-2.865 31.625 2.18 8.625 6.625 16.05 12.665 22.525 3.495 3.75 7.385 7.015 11.785 9.705 6.84 4.185 14.25 6.525 22.225 6.995 4.525.265 9.035-.095 13.465-1.18 5.67-1.39 10.895-3.525 15.585-6.59Z" style="fill:#edd777;stroke-width:0"/></svg>