<svg id="Calque_1" data-name="Calque 1" xmlns="http://www.w3.org/2000/svg" viewBox="0 0 221.128 169.809"><path d="M104.782 25.388c.367.036.734.089 1.102.105 4.684.205 9.236 1.042 13.575 2.867 2.672 1.124 5.114 2.613 7.174 4.68 2.368 2.375 3.799 5.222 4.327 8.535.681 4.279.051 8.399-1.474 12.411-1.554 4.087-3.89 7.697-6.77 10.968-3.018 3.427-6.514 6.272-10.459 8.57-2.947 1.716-6.099 2.944-9.342 3.961-3.44 1.079-6.945 1.869-10.525 2.296-4.267.51-8.533.602-12.78-.199-3.61-.681-6.765-2.26-9.377-4.864-.991-.987-1.808-2.103-2.217-3.465a5.103 5.103 0 0 1-.194-1.152c-.021-.356.172-.63.505-.786.332-.156.606-.021.852.19.204.174.407.354.583.556 1.573 1.803 3.603 2.878 5.823 3.635 1.929.658 3.921.978 5.958 1.074 3.395.16 6.722-.318 10.021-1.033 6.209-1.346 11.988-3.726 17.25-7.308 3.809-2.592 7.152-5.678 9.821-9.453 1.697-2.4 3.025-4.98 3.689-7.865.432-1.875.504-3.76.1-5.655-.45-2.11-1.613-3.729-3.363-4.952-1.93-1.349-4.095-2.141-6.368-2.661-2.202-.504-4.437-.741-6.697-.798-5.694-.142-11.244.757-16.709 2.272-5.881 1.63-11.475 3.976-16.88 6.795-5.527 2.882-10.877 6.045-15.804 9.882-3.323 2.588-6.394 5.437-8.916 8.832-1.904 2.562-3.375 5.337-4.101 8.478-1.078 4.664-.238 8.933 2.546 12.831 1.451 2.032 3.182 3.802 5.032 5.461 3.097 2.776 6.47 5.211 9.733 7.781 2.177 1.715 4.304 3.487 6.26 5.455.29.292.57.594.898.937.222-.107.444-.203.656-.318 3.283-1.794 6.564-3.592 9.846-5.387 1.578-.863 3.153-1.73 4.738-2.58a2.77 2.77 0 0 0 .922-.8c2.563-3.378 5.668-6.117 9.509-7.968 1.371-.661 2.806-1.095 4.356-1.067 2.235.04 3.824 1.162 4.541 3.27.458 1.348.592 2.744.487 4.158-.058.782-.167 1.56-.249 2.34-.006.057.018.117.044.266.203-.127.378-.215.529-.334.495-.39 1.056-.549 1.679-.519.807.04 1.542.301 2.194.766.595.424.916 1.01.845 1.757a7.424 7.424 0 0 1-.199 1.157c-.935 3.621-1.904 7.234-2.812 10.862a72.574 72.574 0 0 0-1.025 4.913c-.202 1.138-.29 2.298-.083 3.454.028.154.083.304.161.58.246-.276.453-.446.581-.663.408-.694.823-1.388 1.171-2.114 1.455-3.038 2.93-6.067 4.317-9.136 2.477-5.48 4.889-10.989 7.34-16.481 1.13-2.533 2.214-5.084 2.737-7.823.208-1.089.844-1.632 1.861-1.882 2.007-.493 4.034-.682 6.085-.385.46.067.924.242 1.336.46.74.391.914.911.665 1.702-.428 1.36-.887 2.71-1.284 4.079-.643 2.22-.61 4.473-.387 6.76.235 2.411 1.179 4.541 2.263 6.642.036.07.096.127.182.238.127-.173.245-.308.337-.46 2.562-4.249 5.03-8.551 7.248-12.992a47.586 47.586 0 0 0 1.425-3.097c.298-.722.51-1.482.728-2.235.385-1.329.756-2.663 1.11-4 .165-.624.556-1.017 1.148-1.187.753-.215 1.512-.433 2.284-.547 1.432-.212 2.876-.319 4.322-.087.578.093 1.13.254 1.608.608.572.424.699.826.484 1.505-.418 1.32-.858 2.633-1.25 3.96-.703 2.38-.711 4.789-.397 7.243.246 1.925.863 3.691 1.734 5.395.461.902.912 1.808 1.373 2.711.091.178.203.346.315.535.182-.061.322-.093.448-.152 3.269-1.523 6.692-2.51 10.279-2.892 4.579-.488 9.083-.2 13.443 1.412 2.931 1.084 5.543 2.678 7.716 4.938 2.369 2.464 3.976 5.341 4.401 8.768.371 2.987-.053 5.821-2.025 8.253-1.26 1.554-2.787 2.762-4.652 3.508-.415.166-.873.25-1.319.31-.395.053-.64-.121-.75-.414-.116-.308-.052-.56.275-.81.36-.276.747-.518 1.126-.769 1.061-.705 1.986-1.552 2.721-2.596 1.425-2.023 1.784-4.226 1.121-6.605-.762-2.733-2.359-4.889-4.585-6.603-2.167-1.668-4.635-2.694-7.268-3.352-2.173-.543-4.384-.795-6.62-.918-3.184-.176-6.318.099-9.4.905-.938.245-1.85.59-2.772.894-.115.038-.218.111-.39.201.06.217.107.43.178.635.44 1.272.772 2.568.974 3.903.421 2.782-.291 5.258-2.021 7.433-2.197 2.762-4.976 4.761-8.267 6.032-1.193.461-2.37.981-3.649 1.188-.863.14-1.692.046-2.482-.324-1.463-.685-2.037-1.928-2.1-3.457-.069-1.684.363-3.28.975-4.827.915-2.314 2.323-4.327 3.91-6.22a32.324 32.324 0 0 1 3.852-3.856c.156-.133.302-.276.435-.398-.879-2.057-1.865-4.041-2.578-6.12-.714-2.083-1.156-4.259-1.739-6.477-.121.225-.234.425-.337.629-2.189 4.317-4.565 8.527-7.218 12.578a69.845 69.845 0 0 1-1.599 2.362c-.219.307-.244.566-.099.91.676 1.604 1.227 3.249 1.484 4.977.499 3.343-.113 6.422-2.25 9.11-1.227 1.544-2.777 2.714-4.511 3.631-2.504 1.324-5.131 2.301-7.974 2.574-1.152.111-2.312.164-3.459-.072a3.667 3.667 0 0 1-.764-.248c-1.137-.515-1.667-1.57-1.422-2.793.15-.748.502-1.399.966-1.99.958-1.219 1.914-2.439 2.896-3.637 1.966-2.397 3.958-4.772 5.919-7.173.561-.687 1.044-1.437 1.585-2.142.232-.302.247-.565.078-.905a260.546 260.546 0 0 1-1.945-4.018c-1.073-2.256-1.66-4.667-2.225-7.083-.145-.618-.272-1.241-.443-2.021-.147.284-.235.432-.302.589-1.596 3.723-3.158 7.46-4.792 11.166-1.76 3.992-3.785 7.857-5.841 11.703a232.749 232.749 0 0 1-3.108 5.649 14.855 14.855 0 0 1-3.444 4.117c-.876.725-1.842 1.243-3.049 1.164-1.211-.08-2.114-.646-2.78-1.626-.678-.998-.978-2.135-1.158-3.308-.3-1.953-.275-3.911-.057-5.87.052-.469.097-.939.071-1.438-.07.132-.148.26-.209.396-1.165 2.58-2.285 5.182-3.511 7.732-.633 1.317-1.428 2.56-2.208 3.8-.302.481-.73.901-1.16 1.281-1.246 1.101-2.739 1.359-4.348 1.2-1.49-.148-2.649-.845-3.56-2.015-1.367-1.757-2.235-3.758-2.895-5.86-.888-2.827-1.31-5.722-1.098-8.683.236-3.305.72-6.572 1.784-9.729.058-.173.102-.351.164-.568-.306-.054-.5.124-.699.237a1762.792 1762.792 0 0 0-6.408 3.658c-.553.317-1.098.648-1.661.981.058.186.082.328.143.453.963 1.978 1.439 4.092 1.679 6.257.379 3.419.167 6.81-.677 10.151-1.777 7.036-5.896 12.336-12.034 16.108-3.055 1.878-6.387 3.005-9.954 3.401-2.721.302-5.405.068-8.049-.638-1.339-.358-2.342-1.206-3.195-2.244-1.673-2.035-2.529-4.408-2.652-7.013-.223-4.725 1.325-8.851 4.407-12.416 2.328-2.693 5.076-4.909 7.967-6.958 3.819-2.707 7.861-5.043 12.032-7.161.476-.242.942-.504 1.504-.805-.28-.261-.481-.487-.718-.663-1.741-1.294-3.467-2.612-5.242-3.86-3.602-2.532-7.271-4.968-10.747-7.676-2.301-1.793-4.526-3.674-6.562-5.767-2.229-2.291-4.222-4.763-5.702-7.617-1.074-2.071-1.85-4.24-2.137-6.567-.123-.997.015-1.982.162-2.962.531-3.553 1.939-6.779 3.744-9.848 2.334-3.968 5.3-7.427 8.589-10.625 3.885-3.777 8.176-7.034 12.732-9.948 8.508-5.44 17.599-9.668 27.157-12.893a60.4 60.4 0 0 1 13.554-2.891c1.233-.119 2.473-.167 3.709-.254.224-.016.445-.064.668-.098h3.225Zm-38.626 84.97c-.193.093-.288.131-.375.182-3.201 1.86-6.342 3.816-9.305 6.042-2.199 1.652-4.374 3.339-6.206 5.41-1.607 1.816-2.827 3.864-3.56 6.189-.409 1.297-.586 2.618-.481 3.975.147 1.89 1.102 2.948 2.967 3.265.304.052.616.082.924.083 1.404.003 2.748-.319 4.049-.818 2.771-1.062 5.149-2.715 7.157-4.888 4.954-5.362 6.68-11.6 5.039-18.738-.05-.216-.127-.426-.21-.702Zm19.894 3.325c-.023 1.37.086 2.728.392 4.062.129.56.305 1.121.551 1.639.529 1.112 1.245 1.198 2.038.269.294-.344.575-.713.787-1.11.583-1.093 1.191-2.179 1.674-3.317 1.889-4.451 3.649-8.953 5.212-13.53.808-2.365 1.566-4.749 2.04-7.21a8.568 8.568 0 0 0 .163-1.659c-.004-.571-.32-.867-.884-.932-.221-.025-.467-.029-.673.041-.545.185-1.105.361-1.604.639a10.208 10.208 0 0 0-2.925 2.461c-1.586 1.928-2.787 4.095-3.884 6.324-1.912 3.884-2.842 8-2.888 12.321Zm63.415-9.422c-.191.142-.356.243-.496.371a19.531 19.531 0 0 0-2.878 3.313c-1.227 1.764-2.043 3.723-2.667 5.766-.101.33-.152.69-.15 1.035.004.473.201.599.629.433 1.302-.504 2.502-1.182 3.517-2.153 1.655-1.585 2.402-3.566 2.507-5.821.046-.978-.061-1.932-.462-2.943Zm-28.774 16.172.084.174c.194-.013.399.007.58-.048.295-.09.596-.194.857-.354 1.845-1.135 3.522-2.464 4.783-4.255.736-1.045 1.242-2.19 1.427-3.463.048-.334.102-.675-.027-1.114-.196.236-.327.387-.45.544-.601.763-1.169 1.554-1.805 2.287-1.639 1.887-3.309 3.747-4.963 5.621-.172.195-.324.406-.486.609Z" style="fill:#251236;stroke-width:0"/></svg>