<?xml version="1.0" encoding="UTF-8"?>
<svg id="Calque_1" data-name="Calque 1" xmlns="http://www.w3.org/2000/svg" viewBox="0 0 221.128 169.809"><metadata><c2pa:manifest xmlns:c2pa="http://c2pa.org/manifest">AAAsZ2p1bWIAAAAeanVtZGMycGEAEQAQgAAAqgA4m3EDYzJwYQAAACxBanVtYgAAAEdqdW1kYzJtYQARABCAAACqADibcQN1cm46dXVpZDoyY2YwYjAxYi1mMzM5LTRjNjgtOWQ4Ni05OGI0MWQwZWMyMDAAAAABp2p1bWIAAAApanVtZGMyYXMAEQAQgAAAqgA4m3EDYzJwYS5hc3NlcnRpb25zAAAAAMpqdW1iAAAAJmp1bWRjYm9yABEAEIAAAKoAOJtxA2MycGEuYWN0aW9ucwAAAACcY2JvcqFnYWN0aW9uc4GjZmFjdGlvbmtjMnBhLmVkaXRlZG1zb2Z0d2FyZUFnZW50bUFkb2JlIEZpcmVmbHlxZGlnaXRhbFNvdXJjZVR5cGV4Rmh0dHA6Ly9jdi5pcHRjLm9yZy9uZXdzY29kZXMvZGlnaXRhbHNvdXJjZXR5cGUvdHJhaW5lZEFsZ29yaXRobWljTWVkaWEAAACsanVtYgAAAChqdW1kY2JvcgARABCAAACqADibcQNjMnBhLmhhc2guZGF0YQAAAAB8Y2JvcqVqZXhjbHVzaW9uc4GiZXN0YXJ0GM9mbGVuZ3RoGTs0ZG5hbWVuanVtYmYgbWFuaWZlc3RjYWxnZnNoYTI1NmRoYXNoWCDcWVLony8PqC1HQEC18ovU5qnQ/k4E8mFMvmFMIm+p4mNwYWRJAAAAAAAAAAAAAAACC2p1bWIAAAAkanVtZGMyY2wAEQAQgAAAqgA4m3EDYzJwYS5jbGFpbQAAAAHfY2JvcqhoZGM6dGl0bGVvR2VuZXJhdGVkIEltYWdlaWRjOmZvcm1hdG1pbWFnZS9zdmcreG1samluc3RhbmNlSUR4LHhtcDppaWQ6MGI0MzViMGEtNDQ0Ny00NGVhLTk3YTEtNWUyNmU1ZTBhY2Y4b2NsYWltX2dlbmVyYXRvcng2QWRvYmVfSWxsdXN0cmF0b3IvMjguMCBhZG9iZV9jMnBhLzAuNy42IGMycGEtcnMvMC4yNS4ydGNsYWltX2dlbmVyYXRvcl9pbmZvgb9kbmFtZXFBZG9iZSBJbGx1c3RyYXRvcmd2ZXJzaW9uZDI4LjD/aXNpZ25hdHVyZXgZc2VsZiNqdW1iZj1jMnBhLnNpZ25hdHVyZWphc3NlcnRpb25zgqJjdXJseCdzZWxmI2p1bWJmPWMycGEuYXNzZXJ0aW9ucy9jMnBhLmFjdGlvbnNkaGFzaFgg66xm4WqDn3xgnOk59f7WI0GCp10rxJISEEb0ImTQK8GiY3VybHgpc2VsZiNqdW1iZj1jMnBhLmFzc2VydGlvbnMvYzJwYS5oYXNoLmRhdGFkaGFzaFggZi5sKUqHq1RjNSwSA9OhLLlkzv3p7UM1uhktusjRxsJjYWxnZnNoYTI1NgAAKEBqdW1iAAAAKGp1bWRjMmNzABEAEIAAAKoAOJtxA2MycGEuc2lnbmF0dXJlAAAAKBBjYm9y0oREoQE4JKNmc2lnVHN0oWl0c3RUb2tlbnOBoWN2YWxZDjYwgg4yMAMCAQAwgg4pBgkqhkiG9w0BBwKggg4aMIIOFgIBAzEPMA0GCWCGSAFlAwQCAQUAMIGBBgsqhkiG9w0BCRABBKByBHAwbgIBAQYJYIZIAYb9bAcBMDEwDQYJYIZIAWUDBAIBBQAEIN9sLSz/oGDGidpgbWE+r2rgRGrAO4qEuasnfbx4DdMPAhB59wyamBZIDIXhfGuSR6J9GA8yMDIzMTExNzE1NDQ1MloCCE0lOOjF/Ve2oIILvTCCBQcwggLvoAMCAQICEAUenpHXHpEKu+Q9XO3Q3dkwDQYJKoZIhvcNAQELBQAwYzELMAkGA1UEBhMCVVMxFzAVBgNVBAoTDkRpZ2lDZXJ0LCBJbmMuMTswOQYDVQQDEzJEaWdpQ2VydCBUcnVzdGVkIEc0IFJTQTQwOTYgU0hBMjU2IFRpbWVTdGFtcGluZyBDQTAeFw0yMzA5MDgwMDAwMDBaFw0zNDEyMDcyMzU5NTlaMFgxCzAJBgNVBAYTAlVTMRcwFQYDVQQKEw5EaWdpQ2VydCwgSW5jLjEwMC4GA1UEAxMnRGlnaUNlcnQgQWRvYmUgQUFUTCBUaW1lc3RhbXAgUmVzcG9uZGVyMFkwEwYHKoZIzj0CAQYIKoZIzj0DAQcDQgAETSyuUfkD/7Xn8wWXVqw2HxDxO5s6wRV+7SqUmsXSyaO3AvUh4dn8AHsnn27VOumGjUEM3zmV9NjfSs0Gx9P6bKOCAYswggGHMA4GA1UdDwEB/wQEAwIHgDAMBgNVHRMBAf8EAjAAMBYGA1UdJQEB/wQMMAoGCCsGAQUFBwMIMCAGA1UdIAQZMBcwCAYGZ4EMAQQCMAsGCWCGSAGG/WwHATAfBgNVHSMEGDAWgBS6FtltTYUvcyl2mi91jGogj57IbzAdBgNVHQ4EFgQUsDWqVsMhqYvO07i8ixYlV53vNOEwWgYDVR0fBFMwUTBPoE2gS4ZJaHR0cDovL2NybDMuZGlnaWNlcnQuY29tL0RpZ2lDZXJ0VHJ1c3RlZEc0UlNBNDA5NlNIQTI1NlRpbWVTdGFtcGluZ0NBLmNybDCBkAYIKwYBBQUHAQEEgYMwgYAwJAYIKwYBBQUHMAGGGGh0dHA6Ly9vY3NwLmRpZ2ljZXJ0LmNvbTBYBggrBgEFBQcwAoZMaHR0cDovL2NhY2VydHMuZGlnaWNlcnQuY29tL0RpZ2lDZXJ0VHJ1c3RlZEc0UlNBNDA5NlNIQTI1NlRpbWVTdGFtcGluZ0NBLmNydDANBgkqhkiG9w0BAQsFAAOCAgEAeCuMQseEEIRYlILJFfuWwvQL0smBtfWvJVjJI1HEeQxHYuoLs9BlEmAM1H6Qminw/m/YHOn+MyvPDhTiljqti/cjwekWUlri4HBRMhSAdamLxfF3UkQRf3g844OLsfJJ6RfrQDTnkGjMVvsYZVrFvQut5BNFeeSvqCA81Q9f0aH7ZJw7GVN1BAuBluR1i/GjcCnpzL2uJmKNHE5mqI7JZLExSGArF4rPCsVbpdt7RrA2E5RdnMjFziLGkrNZIi2k8nfRmIFCfj1TcANhOeyFs31mRMDWkd/82i/ZlS+912RnxRi/Cj28G8tMO+eYAGdEwEppdgCzdkK/D0KQM85ZN5QkwVEC2ZTHnaiFoDecPxsInpR+lDakV851KHClvoYq/SD4GBx0gbYsc8nRR+av5eamBmCr8ciB7SGNwIAOmMOCrbPgHQvjG0ADUzwytTHTaHFvvXTicUqoy6/nMlNCXeyDCpdTI/73MdA/3L9nkXH8BBas5cJbnp1Xs/hwUEmXzMeqKeWGQ5K1nWbbb70eWr54LSEnaWQXUu7NF0klv/nUteg8pGeikUOeDpemgPt4brDhikDH34/TQm5SgGxhKt2y4WLJbJBAYECeMjr2CBtItxb6EnK26KdrFrBWUi0mRLZ5XlnhezE+Dt/za5GR203SFMd4j3cI3c5Z5F5ucrswggauMIIElqADAgECAhAHNje3JFR82Ees/ShmKl5bMA0GCSqGSIb3DQEBCwUAMGIxCzAJBgNVBAYTAlVTMRUwEwYDVQQKEwxEaWdpQ2VydCBJbmMxGTAXBgNVBAsTEHd3dy5kaWdpY2VydC5jb20xITAfBgNVBAMTGERpZ2lDZXJ0IFRydXN0ZWQgUm9vdCBHNDAeFw0yMjAzMjMwMDAwMDBaFw0zNzAzMjIyMzU5NTlaMGMxCzAJBgNVBAYTAlVTMRcwFQYDVQQKEw5EaWdpQ2VydCwgSW5jLjE7MDkGA1UEAxMyRGlnaUNlcnQgVHJ1c3RlZCBHNCBSU0E0MDk2IFNIQTI1NiBUaW1lU3RhbXBpbmcgQ0EwggIiMA0GCSqGSIb3DQEBAQUAA4ICDwAwggIKAoICAQDGhjUGSbPBPXJJUVXHJQPE8pE3qZdRodbSg9GeTKJtoLDMg/la9hGhRBVCX6SI82j6ffOciQt/nR+eDzMfUBMLJnOWbfhXqAJ9/UO0hNoR8XOxs+4rgISKIhjf69o9xBd/qxkrPkLcZ47qUT3w1lbU5ygt69OxtXXnHwZljZQp09nsad/ZkIdGAHvbREGJ3HxqV3rwN3mfXazL6IRktFLydkf3YYMZ3V+0VAshaG43IbtArF+y3kp9zvU5EmfvDqVjbOSmxR3NNg1c1eYbqMFkdECnwHLFuk4fsbVYTXn+149zk6wsOeKlSNbwsDETqVcplicu9Yemj052FVUmcJgmf6AaRyBD40NjgHt1biclkJg6OBGz9vae5jtb7IHeIhTZgirHkr+g3uM+onP65x9abJTyUpURK1h0QCirc0PO30qhHGs4xSnzyqqWc0Jon7ZGs506o9UD4L/wojzKQtwYSH8UNM/STKvvmz3+DrhkKvp1KCRB7UK/BZxmSVJQ9FHzNklNiyDSLFc1eSuo80VgvCONWPfcYd6T/jnA+bIwpUzX6ZhKWD7TA4j+s4/TXkt2ElGTyYwMO1uKIqjBJgj5FBASA31fI7tk42PgpuE+9sJ0sj8eCXbsq11GdeJgo1gJASgADoRU7s7pXcheMBK9Rp6103a50g5rmQzSM7TNsQIDAQABo4IBXTCCAVkwEgYDVR0TAQH/BAgwBgEB/wIBADAdBgNVHQ4EFgQUuhbZbU2FL3MpdpovdYxqII+eyG8wHwYDVR0jBBgwFoAU7NfjgtJxXWRM3y5nP+e6mK4cD08wDgYDVR0PAQH/BAQDAgGGMBMGA1UdJQQMMAoGCCsGAQUFBwMIMHcGCCsGAQUFBwEBBGswaTAkBggrBgEFBQcwAYYYaHR0cDovL29jc3AuZGlnaWNlcnQuY29tMEEGCCsGAQUFBzAChjVodHRwOi8vY2FjZXJ0cy5kaWdpY2VydC5jb20vRGlnaUNlcnRUcnVzdGVkUm9vdEc0LmNydDBDBgNVHR8EPDA6MDigNqA0hjJodHRwOi8vY3JsMy5kaWdpY2VydC5jb20vRGlnaUNlcnRUcnVzdGVkUm9vdEc0LmNybDAgBgNVHSAEGTAXMAgGBmeBDAEEAjALBglghkgBhv1sBwEwDQYJKoZIhvcNAQELBQADggIBAH1ZjsCTtm+YqUQiAX5m1tghQuGwGC4QTRPPMFPOvxj7x1Bd4ksp+3CKDaopafxpwc8dB+k+YMjYC+VcW9dth/qEICU0MWfNthKWb8RQTGIdDAiCqBa9qVbPFXONASIlzpVpP0d3+3J0FNf/q0+KLHqrhc1DX+1gtqpPkWaeLJ7giqzl/Yy8ZCaHbJK9nXzQcAp876i8dU+6WvepELJd6f8oVInw1YpxdmXazPByoyP6wCeCRK6ZJxurJB4mwbfeKuv2nrF5mYGjVoarCkXJ38SNoOeY+/umnXKvxMfBwWpx2cYTgAnEtp/Nh4cku0+jSbl3ZpHxcpzpSwJSpzd+k1OsOx0ISQ+UzTl63f8lY5knLD0/a6fxZsNBzU+2QJshIUDQtxMkzdwdeDrknq3lNHGS1yZr5Dhzq6YBT70/O3itTK37xJV77QpfMzmHQXh6OOmc4d0j/R0o08f56PGYX/sr2H7yRp11LB4nLCbbbxV7HhmLNriT1ObyF5lZynDwN7+YAN8gFk8n+2BnFqFmut1VwDophrCYoCvtlUG3OtUVmDG0YgkPCr2B2RP+v6TR81fZvAT6gt4y3wSJ8ADNXcL50CN/AAvkdgIm2fBldkKmKYcJRyvmfxqkhQ/8mJb2VVQrH4D6wPIOK+XW+6kvRBVK5xMOHds3OBqhK/bt1nz8MYIBuTCCAbUCAQEwdzBjMQswCQYDVQQGEwJVUzEXMBUGA1UEChMORGlnaUNlcnQsIEluYy4xOzA5BgNVBAMTMkRpZ2lDZXJ0IFRydXN0ZWQgRzQgUlNBNDA5NiBTSEEyNTYgVGltZVN0YW1waW5nIENBAhAFHp6R1x6RCrvkPVzt0N3ZMA0GCWCGSAFlAwQCAQUAoIHRMBoGCSqGSIb3DQEJAzENBgsqhkiG9w0BCRABBDAcBgkqhkiG9w0BCQUxDxcNMjMxMTE3MTU0NDUyWjArBgsqhkiG9w0BCRACDDEcMBowGDAWBBTZGrkz/het6YIephP1pDpxTj5+fTAvBgkqhkiG9w0BCQQxIgQgMTTMkZ+DaBWXZnVEUz53PdHXQVU78MpqENubxu/xiVowNwYLKoZIhvcNAQkQAi8xKDAmMCQwIgQggtrxlJV7NoQCRY/VJwBp/mLHFFb6nguGq/gn6FMgJ9kwCgYIKoZIzj0EAwIESDBGAiEAnFgRUiapb+yfsHYKPCJEyO+1ENp/djTz/zgCf+dXZi4CIQCDGLY25N2FMXG0Sq+/HILH2o0+Pwn9gyZsr10Qb+YxHWd4NWNoYWluglkGMzCCBi8wggQXoAMCAQICEBtbCzvasORd8vMNnlTR2tIwDQYJKoZIhvcNAQELBQAwdTELMAkGA1UEBhMCVVMxIzAhBgNVBAoTGkFkb2JlIFN5c3RlbXMgSW5jb3Jwb3JhdGVkMR0wGwYDVQQLExRBZG9iZSBUcnVzdCBTZXJ2aWNlczEiMCAGA1UEAxMZQWRvYmUgUHJvZHVjdCBTZXJ2aWNlcyBHMzAeFw0yMzAyMDEwMDAwMDBaFw0yNDAyMDEyMzU5NTlaMIGhMREwDwYDVQQDDAhjYWktcHJvZDEcMBoGA1UECwwTQ29udGVudCBDcmVkZW50aWFsczETMBEGA1UECgwKQWRvYmUgSW5jLjERMA8GA1UEBwwIU2FuIEpvc2UxEzARBgNVBAgMCkNhbGlmb3JuaWExCzAJBgNVBAYTAlVTMSQwIgYJKoZIhvcNAQkBFhVncnAtY2FpLW9wc0BhZG9iZS5jb20wggEiMA0GCSqGSIb3DQEBAQUAA4IBDwAwggEKAoIBAQDv0wCnfYY9lkHDsykrTG7FYlnYHBcyualuD5u9ULjzv+FsTWOLg8Nhrz9RTxI9EeBbu3Wm7f4vqPsQYfxkEp0wIa6DVmEOZhbAeRfbhybWQ/D4Wvvck4mEZR+QZmTpIn7HX61gbtMFHlJUxkYBctIoAt9TBAFbz9d5Ig2WG0bsH39b6/8USXnIIk4FB6dtBRT1xeEwSDtwOd1YBpXXNBJmRWHXNJZZ85of2tBTesg/kMvTrOJJxYDZ97U416wcvbVomlees+NXUY3/ZB4xH+NsZils7m1bL2v2hSnHiLoqZeUKklbHUmT4ZpjrZCdtuIsWm5j2PPXKr7HKUuCbZSXBAgMBAAWjggGMMIIBiDAMBgNVHRMBAf8EAjAAMA4GA1UdDwEB/wQEAwIHgDAeBgNVHSUEFzAVBgkqhkiG9y8BAQwGCCsGAQUFBwMEMIGOBgNVHSAEgYYwgYMwgYAGCSqGSIb3LwECAzBzMHEGCCsGAQUFBwICMGUMY1lvdSBhcmUgbm90IHBlcm1pdHRlZCB0byB1c2UgdGhpcyBMaWNlbnNlIENlcnRpZmljYXRlIGV4Y2VwdCBhcyBwZXJtaXR0ZWQgYnkgdGhlIGxpY2Vuc2UgYWdyZWVtZW50LjBdBgNVHR8EVjBUMFKgUKBOhkxodHRwOi8vcGtpLWNybC5zeW1hdXRoLmNvbS9jYV83YTVjM2EwYzczMTE3NDA2YWRkMTkzMTJiYzFiYzIzZi9MYXRlc3RDUkwuY3JsMDcGCCsGAQUFBwEBBCswKTAnBggrBgEFBQcwAYYbaHR0cDovL3BraS1vY3NwLnN5bWF1dGguY29tMB8GA1UdIwQYMBaAFFcpejJNzP7kNU7AHyRzznNTq99qMA0GCSqGSIb3DQEBCwUAA4ICAQBXjlGa3yAK/Gijn6n/JNU9FZm72MP6vc5czrWe9y0T+EawuRvhpD5Edi1TnXkrpe8sMkgSjTGdbY+yGhq8zlCWQeXN1/aWo3L9Xr1uNxY/oVpLn0uWWfnfJ7yR9gKl/yoMfhjydT4t1fXHi/MhfhrWSVRHqX2U31UFGz/e298P2kv+vqhzpIUo1bj+jibtoPLMMQcCOTtKiJOTh4o3VSZpwQDERCzo91NkF+LnZjwYl6fE5USIkg/oCoomXxSPpowybDrcRJ9ilbtJcER48/LGgwzv/c7OYdron4PnEXm1FkOaVj+QRf7OwiNTizonhIzLR5Vfp0QHOWv/bPzvCjPQd+Xr0Q4032WlSxQwostNTAPtoVAU4OCwVH3Ech38emJ00/6fkDCdr7MN8/4n2LSNrMUvaBEZdmLqDCBnO02dbFrmpg3pTc0FqRQ4GL/88pjRNSMy5tU9SoQnSCGYqIsjfL8AzgPEGiXXRgABYc1uXecf4/eayb3K2MPs7hnWTbUKpHHJIwxpdN3vTGdZNWpz9Oxfuo3eELQlkTvACHgqkaXi/FAanHe5PChn6fr1/4cNF8goD0buPApgS3zzwqjRhxrH8ISwPfJn8JqzurMaLDMnnc18tHzUiMtX73jf6oXh7voCxX/T4D3nFPlxU3om2cpcLQ1Wd4026x18rlSGR1kGpTCCBqEwggSJoAMCAQICEAyotlR7iebSBol1zYubieIwDQYJKoZIhvcNAQELBQAwbDELMAkGA1UEBhMCVVMxIzAhBgNVBAoTGkFkb2JlIFN5c3RlbXMgSW5jb3Jwb3JhdGVkMR0wGwYDVQQLExRBZG9iZSBUcnVzdCBTZXJ2aWNlczEZMBcGA1UEAxMQQWRvYmUgUm9vdCBDQSBHMjAeFw0xNjExMjkwMDAwMDBaFw00MTExMjgyMzU5NTlaMHUxCzAJBgNVBAYTAlVTMSMwIQYDVQQKExpBZG9iZSBTeXN0ZW1zIEluY29ycG9yYXRlZDEdMBsGA1UECxMUQWRvYmUgVHJ1c3QgU2VydmljZXMxIjAgBgNVBAMTGUFkb2JlIFByb2R1Y3QgU2VydmljZXMgRzMwggIiMA0GCSqGSIb3DQEBAQUAA4ICDwAwggIKAoICAQC3Hy69vQmzXEhs/gyDrmwB6lF4JaSAPomnsbKIZNr2iXaB+fkd85X8eJiNmI7P5O4cVT4Nc1p3zrESqBV4ZUyW8gcZ78QdwoHG8QNd2VNcHnMgSR+XT9Iafsnq9Nfww3Jt9KL3l5ANQ5n1+MJqr48EWNLll942bOL/JH4ywDSMoqhZqtJEIUUUGlQVBZ8CAvJc7LE6ddA5C52PE2Ppa7RfQgHXf4gfXVZwpxYRZcziPiOHqEvLb0J3cShUbejFxV6cwX8QyAPa1ePHg1RtM0HX+D34xHo3DkyGnmT+Ddq00TEDGG26AL5PdINKFIQl+zaq6KJFQe1fdGE5wrWzU4mBPmzaz3EbLn+7FWlwAhorYqIMldbfHE3ydc+aTU1JW7+bG19qmvhO9IluGtTtQDeqFBj2fg6faxsfVfVPD7stN6TwoIDlkOCE4RE+Iin8m3z3eqi/VsTmsmRqBxWDRaqOHz02EJoEDxXJG3ei+UbIIp01XZQvdufm90WxOTuqqan2ZqTPX9K5VdjEh/ovr7xFc5q1dZo+Sa5y4sTVM854/tLU3klOgUKzzSXYPYS3GhBcYJHjwr9xNRHnNX99D6F0g7OijScWfvtjxh13aTv/H0ETvymah4yfDpVdh9cK5YSCPqnuOlsujFAyhYwJXOWDvZZU2EkWVLDhoPx9zp7N4QIDAQABo4IBNDCCATAwEgYDVR0TAQH/BAgwBgEB/wIBADA1BgNVHR8ELjAsMCqgKKAmhiRodHRwOi8vY3JsLmFkb2JlLmNvbS9hZG9iZXJvb3RnMi5jcmwwDgYDVR0PAQH/BAQDAgEGMBQGA1UdJQQNMAsGCSqGSIb3LwEBBzBXBgNVHSAEUDBOMEwGCSqGSIb3LwECAzA/MD0GCCsGAQUFBwIBFjFodHRwczovL3d3dy5hZG9iZS5jb20vbWlzYy9wa2kvcHJvZF9zdmNlX2Nwcy5odG1sMCQGA1UdEQQdMBukGTAXMRUwEwYDVQQDEwxTWU1DLTQwOTYtMzMwHQYDVR0OBBYEFFcpejJNzP7kNU7AHyRzznNTq99qMB8GA1UdIwQYMBaAFKYc4W1UJEyoj0hyv26pjNXk7DHUMA0GCSqGSIb3DQEBCwUAA4ICAQBxzuUHjKbcLdzI4DtlXgCSgZXrlSAkr59pOF3JfPG42qVNAGU7JcEYXJ6+WbfcGwY7WYMl+jO7IvJPb7shXFYW9bnJgxX7lLU14KExchmcLNY1ee6IhBJ2Y8PzZMRUKSd5CkURPg0PBLGjz/KR/DofHx+G4rPTCOGORYxeYrd01lci5hVxvKccvIk7MD69ZTewfZPSM+0WnsU3f0Zmd7hgbRpUyWceG0eHFpdUKK/ZFWhHjDVC28odCnN885tHncKXviItK0ZUUo/AIthFKlhEXsnq9VL9fFbgvO83ZvpUQo5y8mY3cuGnEVGXdhjNb53CfC1u4dbpYmWaN99subUzEsUaUb3loLPfVfzDOpg2y9v37kBdy/wuXr20teY7U62xj/fAgs1QSnhUtlMTfCqbefyEycKVmKIrJkJLsvgTSYKVvH4FFIwfd5WjqOC97jX98rcVAzhAI0iSkazsWOMvL6m0L4nLJapx+85GsVX8Y6AHmEP4bmCElwil6KAP+UewJFiw5rmwV2pESHAhYuZJa03B8tl0nd2QJzvJGmbeBqXqpF9ORinFM3HErK8puRokOjFH2+1asLeI2tB31W/ELdNe27Ogduq6Z6qBwCp59YX27qydDhD0WRfN64kCs25K88iGAGNW2CAfTDS+b+WYJBiIL9jXYZ4LF+BiUvfdu2NwYWRZC70AAAAAAAAAAAAAAAAAAAAAAAAAAAAAAAAAAAAAAAAAAAAAAAAAAAAAAAAAAAAAAAAAAAAAAAAAAAAAAAAAAAAAAAAAAAAAAAAAAAAAAAAAAAAAAAAAAAAAAAAAAAAAAAAAAAAAAAAAAAAAAAAAAAAAAAAAAAAAAAAAAAAAAAAAAAAAAAAAAAAAAAAAAAAAAAAAAAAAAAAAAAAAAAAAAAAAAAAAAAAAAAAAAAAAAAAAAAAAAAAAAAAAAAAAAAAAAAAAAAAAAAAAAAAAAAAAAAAAAAAAAAAAAAAAAAAAAAAAAAAAAAAAAAAAAAAAAAAAAAAAAAAAAAAAAAAAAAAAAAAAAAAAAAAAAAAAAAAAAAAAAAAAAAAAAAAAAAAAAAAAAAAAAAAAAAAAAAAAAAAAAAAAAAAAAAAAAAAAAAAAAAAAAAAAAAAAAAAAAAAAAAAAAAAAAAAAAAAAAAAAAAAAAAAAAAAAAAAAAAAAAAAAAAAAAAAAAAAAAAAAAAAAAAAAAAAAAAAAAAAAAAAAAAAAAAAAAAAAAAAAAAAAAAAAAAAAAAAAAAAAAAAAAAAAAAAAAAAAAAAAAAAAAAAAAAAAAAAAAAAAAAAAAAAAAAAAAAAAAAAAAAAAAAAAAAAAAAAAAAAAAAAAAAAAAAAAAAAAAAAAAAAAAAAAAAAAAAAAAAAAAAAAAAAAAAAAAAAAAAAAAAAAAAAAAAAAAAAAAAAAAAAAAAAAAAAAAAAAAAAAAAAAAAAAAAAAAAAAAAAAAAAAAAAAAAAAAAAAAAAAAAAAAAAAAAAAAAAAAAAAAAAAAAAAAAAAAAAAAAAAAAAAAAAAAAAAAAAAAAAAAAAAAAAAAAAAAAAAAAAAAAAAAAAAAAAAAAAAAAAAAAAAAAAAAAAAAAAAAAAAAAAAAAAAAAAAAAAAAAAAAAAAAAAAAAAAAAAAAAAAAAAAAAAAAAAAAAAAAAAAAAAAAAAAAAAAAAAAAAAAAAAAAAAAAAAAAAAAAAAAAAAAAAAAAAAAAAAAAAAAAAAAAAAAAAAAAAAAAAAAAAAAAAAAAAAAAAAAAAAAAAAAAAAAAAAAAAAAAAAAAAAAAAAAAAAAAAAAAAAAAAAAAAAAAAAAAAAAAAAAAAAAAAAAAAAAAAAAAAAAAAAAAAAAAAAAAAAAAAAAAAAAAAAAAAAAAAAAAAAAAAAAAAAAAAAAAAAAAAAAAAAAAAAAAAAAAAAAAAAAAAAAAAAAAAAAAAAAAAAAAAAAAAAAAAAAAAAAAAAAAAAAAAAAAAAAAAAAAAAAAAAAAAAAAAAAAAAAAAAAAAAAAAAAAAAAAAAAAAAAAAAAAAAAAAAAAAAAAAAAAAAAAAAAAAAAAAAAAAAAAAAAAAAAAAAAAAAAAAAAAAAAAAAAAAAAAAAAAAAAAAAAAAAAAAAAAAAAAAAAAAAAAAAAAAAAAAAAAAAAAAAAAAAAAAAAAAAAAAAAAAAAAAAAAAAAAAAAAAAAAAAAAAAAAAAAAAAAAAAAAAAAAAAAAAAAAAAAAAAAAAAAAAAAAAAAAAAAAAAAAAAAAAAAAAAAAAAAAAAAAAAAAAAAAAAAAAAAAAAAAAAAAAAAAAAAAAAAAAAAAAAAAAAAAAAAAAAAAAAAAAAAAAAAAAAAAAAAAAAAAAAAAAAAAAAAAAAAAAAAAAAAAAAAAAAAAAAAAAAAAAAAAAAAAAAAAAAAAAAAAAAAAAAAAAAAAAAAAAAAAAAAAAAAAAAAAAAAAAAAAAAAAAAAAAAAAAAAAAAAAAAAAAAAAAAAAAAAAAAAAAAAAAAAAAAAAAAAAAAAAAAAAAAAAAAAAAAAAAAAAAAAAAAAAAAAAAAAAAAAAAAAAAAAAAAAAAAAAAAAAAAAAAAAAAAAAAAAAAAAAAAAAAAAAAAAAAAAAAAAAAAAAAAAAAAAAAAAAAAAAAAAAAAAAAAAAAAAAAAAAAAAAAAAAAAAAAAAAAAAAAAAAAAAAAAAAAAAAAAAAAAAAAAAAAAAAAAAAAAAAAAAAAAAAAAAAAAAAAAAAAAAAAAAAAAAAAAAAAAAAAAAAAAAAAAAAAAAAAAAAAAAAAAAAAAAAAAAAAAAAAAAAAAAAAAAAAAAAAAAAAAAAAAAAAAAAAAAAAAAAAAAAAAAAAAAAAAAAAAAAAAAAAAAAAAAAAAAAAAAAAAAAAAAAAAAAAAAAAAAAAAAAAAAAAAAAAAAAAAAAAAAAAAAAAAAAAAAAAAAAAAAAAAAAAAAAAAAAAAAAAAAAAAAAAAAAAAAAAAAAAAAAAAAAAAAAAAAAAAAAAAAAAAAAAAAAAAAAAAAAAAAAAAAAAAAAAAAAAAAAAAAAAAAAAAAAAAAAAAAAAAAAAAAAAAAAAAAAAAAAAAAAAAAAAAAAAAAAAAAAAAAAAAAAAAAAAAAAAAAAAAAAAAAAAAAAAAAAAAAAAAAAAAAAAAAAAAAAAAAAAAAAAAAAAAAAAAAAAAAAAAAAAAAAAAAAAAAAAAAAAAAAAAAAAAAAAAAAAAAAAAAAAAAAAAAAAAAAAAAAAAAAAAAAAAAAAAAAAAAAAAAAAAAAAAAAAAAAAAAAAAAAAAAAAAAAAAAAAAAAAAAAAAAAAAAAAAAAAAAAAAAAAAAAAAAAAAAAAAAAAAAAAAAAAAAAAAAAAAAAAAAAAAAAAAAAAAAAAAAAAAAAAAAAAAAAAAAAAAAAAAAAAAAAAAAAAAAAAAAAAAAAAAAAAAAAAAAAAAAAAAAAAAAAAAAAAAAAAAAAAAAAAAAAAAAAAAAAAAAAAAAAAAAAAAAAAAAAAAAAAAAAAAAAAAAAAAAAAAAAAAAAAAAAAAAAAAAAAAAAAAAAAAAAAAAAAAAAAAAAAAAAAAAAAAAAAAAAAAAAAAAAAAAAAAAAAAAAAAAAAAAAAAAAAAAAAAAAAAAAAAAAAAAAAAAAAAAAAAAAAAAAAAAAAAAAAAAAAAAAAAAAAAAAAAAAAAAAAAAAAAAAAAAAAAAAAAAAAAAAAAAAAAAAAAAAAAAAAAAAAAAAAAAAAAAAAAAAAAAAAAAAAAAAAAAAAAAAAAAAAAAAAAAAAAAAAAAAAAAAAAAAAAAAAAAAAAAAAAAAAAAAAAAAAAAAAAAAAAAAAAAAAAAAAAAAAAAAAAAAAAAAAAAAAAAAAAAAAAAAAAAAAAAAAAAAAAAAAAAAAAAAAAAAAAAAAAAAAAAAAAAAAAAAAAAAAAAAAAAAAAAAAAAAAAAAAAAAAAAAAAAAAAAAAAAAAAAAAAAAAAAAAAAAAAAAAAAAAAAAAAAAAAAAAAAAAAAAAAAAAAAAAAAAAAAAAAAAAAAAAAAAAAAAAAAAAAAAAAAAAAAAAAAAAAAAAAAAAAAAAAAAAAAAAAAAAAAAAAAAAAAAAAAAAAAAAAAAAAAAAAAAAAAAAAAAAAAAAAAAAAAAAAAAAAAAAAAAAAAAAAAAAAAAAAAAAAAAAAAAAAAAAAAAAAAAAAAAAAAAAAAAAAAAAAAAAAAAAAAAAAAAAAAAAAAAAAAAAAAAAAAAAAAAAAAAAAAAAAAAAAAAAAAAAAAAAAAAAAAAAAAAAAAAAAAAAAAAAAAAAAAAAAAAAAAAAAAAAAAAAAAAAAAAAAAAAAAAAAAAAAAAAAAAAAAAAAAAAAAAAAAAAAAAAAAAAAAAAAAAAAAAAAAAAAAAAAAAAAAAAAAAAAAAAAAAAAAAAAAAAAAAAAAAAAAAAAAAAAAAAAAAAAAAAAAAAAAAAAAAAAAAAAAAAAAAAAAAAAAAAAAAAAAAAAAAAAAAAAAAAAAAAAAAAAAAAAAAAAAAAAAAAAAAAAAAAAAAAAAAAAAAAAAAAAAAAAAAAAAAAAAAAAAAAAAAAAAAAAAAAAAAAAAAAAAAAAAAAAAAAAAAAAAAAAAAAAAAAAAAAAAAAAAAAAAAAAAAAAAAAAAAAAAAAAAAAAAAAAAAAAAAAAAAAAAAAAAAAAAAAAAAAAAAAAAAAAAAAAAAAAAAAAAAAAAAAAAAAAAAAAAAAAAAAAAAAAAAAAAAAAAAPZZAQBQqKWKMbcRKT1NlRMtDexdutAufzy8Sif5ydSLPkitr56KenZogoQnzKhnc00MjKjdR225uM3yInUoVe0rK6jxlYw9FPgHwxuHg77K+0SpfowZa+beTjwemtsAhEX37rhCSd3T8C4q0EwCmXvTGOYHRJj4UMZzfQ5Fzrumb86S7pmKqGh3+c3chFdLDCQT5xkMN8aIXpZeiHooQgzRKNDNEjYpVy4ZlW/s63y3TakTgr+EDDZVQAKriEm7zogZvwWWsO/gBVwOQAJH3YHS/hr9DZvjBVsu/vgrc2/42xUOUNw4SMO4BGwCJmcBBnNs2iLxGinulKaaI4ILZ0DQhtiC</c2pa:manifest></metadata>
  <defs>
    <style>.cls-1 {
  fill: #251236;
  stroke-width: 0;
}

</style>
  </defs>
  <path class="cls-1" d="m104.782,25.388c.367.036.734.089,1.102.105,4.684.205,9.236,1.042,13.575,2.867,2.672,1.124,5.114,2.613,7.174,4.68,2.368,2.375,3.799,5.222,4.327,8.535.681,4.279.051,8.399-1.474,12.411-1.554,4.087-3.89,7.697-6.77,10.968-3.018,3.427-6.514,6.272-10.459,8.57-2.947,1.716-6.099,2.944-9.342,3.961-3.44,1.079-6.945,1.869-10.525,2.296-4.267.51-8.533.602-12.78-.199-3.61-.681-6.765-2.26-9.377-4.864-.991-.987-1.808-2.103-2.217-3.465-.111-.371-.171-.765-.194-1.152-.021-.356.172-.63.505-.786.332-.156.606-.021.852.19.204.174.407.354.583.556,1.573,1.803,3.603,2.878,5.823,3.635,1.929.658,3.921.978,5.958,1.074,3.395.16,6.722-.318,10.021-1.033,6.209-1.346,11.988-3.726,17.25-7.308,3.809-2.592,7.152-5.678,9.821-9.453,1.697-2.4,3.025-4.98,3.689-7.865.432-1.875.504-3.76.1-5.655-.45-2.11-1.613-3.729-3.363-4.952-1.93-1.349-4.095-2.141-6.368-2.661-2.202-.504-4.437-.741-6.697-.798-5.694-.142-11.244.757-16.709,2.272-5.881,1.63-11.475,3.976-16.88,6.795-5.527,2.882-10.877,6.045-15.804,9.882-3.323,2.588-6.394,5.437-8.916,8.832-1.904,2.562-3.375,5.337-4.101,8.478-1.078,4.664-.238,8.933,2.546,12.831,1.451,2.032,3.182,3.802,5.032,5.461,3.097,2.776,6.47,5.211,9.733,7.781,2.177,1.715,4.304,3.487,6.26,5.455.29.292.57.594.898.937.222-.107.444-.203.656-.318,3.283-1.794,6.564-3.592,9.846-5.387,1.578-.863,3.153-1.73,4.738-2.58.375-.201.665-.461.922-.8,2.563-3.378,5.668-6.117,9.509-7.968,1.371-.661,2.806-1.095,4.356-1.067,2.235.04,3.824,1.162,4.541,3.27.458,1.348.592,2.744.487,4.158-.058.782-.167,1.56-.249,2.34-.006.057.018.117.044.266.203-.127.378-.215.529-.334.495-.39,1.056-.549,1.679-.519.807.04,1.542.301,2.194.766.595.424.916,1.01.845,1.757-.037.389-.101.779-.199,1.157-.935,3.621-1.904,7.234-2.812,10.862-.406,1.622-.732,3.266-1.025,4.913-.202,1.138-.29,2.298-.083,3.454.028.154.083.304.161.58.246-.276.453-.446.581-.663.408-.694.823-1.388,1.171-2.114,1.455-3.038,2.93-6.067,4.317-9.136,2.477-5.48,4.889-10.989,7.34-16.481,1.13-2.533,2.214-5.084,2.737-7.823.208-1.089.844-1.632,1.861-1.882,2.007-.493,4.034-.682,6.085-.385.46.067.924.242,1.336.46.74.391.914.911.665,1.702-.428,1.36-.887,2.71-1.284,4.079-.643,2.22-.61,4.473-.387,6.76.235,2.411,1.179,4.541,2.263,6.642.036.07.096.127.182.238.127-.173.245-.308.337-.46,2.562-4.249,5.03-8.551,7.248-12.992.508-1.016.991-2.047,1.425-3.097.298-.722.51-1.482.728-2.235.385-1.329.756-2.663,1.11-4,.165-.624.556-1.017,1.148-1.187.753-.215,1.512-.433,2.284-.547,1.432-.212,2.876-.319,4.322-.087.578.093,1.13.254,1.608.608.572.424.699.826.484,1.505-.418,1.32-.858,2.633-1.25,3.96-.703,2.38-.711,4.789-.397,7.243.246,1.925.863,3.691,1.734,5.395.461.902.912,1.808,1.373,2.711.091.178.203.346.315.535.182-.061.322-.093.448-.152,3.269-1.523,6.692-2.51,10.279-2.892,4.579-.488,9.083-.2,13.443,1.412,2.931,1.084,5.543,2.678,7.716,4.938,2.369,2.464,3.976,5.341,4.401,8.768.371,2.987-.053,5.821-2.025,8.253-1.26,1.554-2.787,2.762-4.652,3.508-.415.166-.873.25-1.319.31-.395.053-.64-.121-.75-.414-.116-.308-.052-.56.275-.81.36-.276.747-.518,1.126-.769,1.061-.705,1.986-1.552,2.721-2.596,1.425-2.023,1.784-4.226,1.121-6.605-.762-2.733-2.359-4.889-4.585-6.603-2.167-1.668-4.635-2.694-7.268-3.352-2.173-.543-4.384-.795-6.62-.918-3.184-.176-6.318.099-9.4.905-.938.245-1.85.59-2.772.894-.115.038-.218.111-.39.201.06.217.107.43.178.635.44,1.272.772,2.568.974,3.903.421,2.782-.291,5.258-2.021,7.433-2.197,2.762-4.976,4.761-8.267,6.032-1.193.461-2.37.981-3.649,1.188-.863.14-1.692.046-2.482-.324-1.463-.685-2.037-1.928-2.1-3.457-.069-1.684.363-3.28.975-4.827.915-2.314,2.323-4.327,3.91-6.22,1.171-1.397,2.463-2.675,3.852-3.856.156-.133.302-.276.435-.398-.879-2.057-1.865-4.041-2.578-6.12-.714-2.083-1.156-4.259-1.739-6.477-.121.225-.234.425-.337.629-2.189,4.317-4.565,8.527-7.218,12.578-.521.795-1.046,1.589-1.599,2.362-.219.307-.244.566-.099.91.676,1.604,1.227,3.249,1.484,4.977.499,3.343-.113,6.422-2.25,9.11-1.227,1.544-2.777,2.714-4.511,3.631-2.504,1.324-5.131,2.301-7.974,2.574-1.152.111-2.312.164-3.459-.072-.261-.054-.521-.138-.764-.248-1.137-.515-1.667-1.57-1.422-2.793.15-.748.502-1.399.966-1.99.958-1.219,1.914-2.439,2.896-3.637,1.966-2.397,3.958-4.772,5.919-7.173.561-.687,1.044-1.437,1.585-2.142.232-.302.247-.565.078-.905-.662-1.333-1.306-2.674-1.945-4.018-1.073-2.256-1.66-4.667-2.225-7.083-.145-.618-.272-1.241-.443-2.021-.147.284-.235.432-.302.589-1.596,3.723-3.158,7.46-4.792,11.166-1.76,3.992-3.785,7.857-5.841,11.703-1.013,1.895-2.043,3.783-3.108,5.649-.898,1.574-2.045,2.96-3.444,4.117-.876.725-1.842,1.243-3.049,1.164-1.211-.08-2.114-.646-2.78-1.626-.678-.998-.978-2.135-1.158-3.308-.3-1.953-.275-3.911-.057-5.87.052-.469.097-.939.071-1.438-.07.132-.148.26-.209.396-1.165,2.58-2.285,5.182-3.511,7.732-.633,1.317-1.428,2.56-2.208,3.8-.302.481-.73.901-1.16,1.281-1.246,1.101-2.739,1.359-4.348,1.2-1.49-.148-2.649-.845-3.56-2.015-1.367-1.757-2.235-3.758-2.895-5.86-.888-2.827-1.31-5.722-1.098-8.683.236-3.305.72-6.572,1.784-9.729.058-.173.102-.351.164-.568-.306-.054-.5.124-.699.237-2.139,1.214-4.274,2.435-6.408,3.658-.553.317-1.098.648-1.661.981.058.186.082.328.143.453.963,1.978,1.439,4.092,1.679,6.257.379,3.419.167,6.81-.677,10.151-1.777,7.036-5.896,12.336-12.034,16.108-3.055,1.878-6.387,3.005-9.954,3.401-2.721.302-5.405.068-8.049-.638-1.339-.358-2.342-1.206-3.195-2.244-1.673-2.035-2.529-4.408-2.652-7.013-.223-4.725,1.325-8.851,4.407-12.416,2.328-2.693,5.076-4.909,7.967-6.958,3.819-2.707,7.861-5.043,12.032-7.161.476-.242.942-.504,1.504-.805-.28-.261-.481-.487-.718-.663-1.741-1.294-3.467-2.612-5.242-3.86-3.602-2.532-7.271-4.968-10.747-7.676-2.301-1.793-4.526-3.674-6.562-5.767-2.229-2.291-4.222-4.763-5.702-7.617-1.074-2.071-1.85-4.24-2.137-6.567-.123-.997.015-1.982.162-2.962.531-3.553,1.939-6.779,3.744-9.848,2.334-3.968,5.3-7.427,8.589-10.625,3.885-3.777,8.176-7.034,12.732-9.948,8.508-5.44,17.599-9.668,27.157-12.893,4.4-1.485,8.927-2.445,13.554-2.891,1.233-.119,2.473-.167,3.709-.254.224-.016.445-.064.668-.098,1.075,0,2.15,0,3.225,0Zm-38.626,84.97c-.193.093-.288.131-.375.182-3.201,1.86-6.342,3.816-9.305,6.042-2.199,1.652-4.374,3.339-6.206,5.41-1.607,1.816-2.827,3.864-3.56,6.189-.409,1.297-.586,2.618-.481,3.975.147,1.89,1.102,2.948,2.967,3.265.304.052.616.082.924.083,1.404.003,2.748-.319,4.049-.818,2.771-1.062,5.149-2.715,7.157-4.888,4.954-5.362,6.68-11.6,5.039-18.738-.05-.216-.127-.426-.21-.702Zm19.894,3.325c-.023,1.37.086,2.728.392,4.062.129.56.305,1.121.551,1.639.529,1.112,1.245,1.198,2.038.269.294-.344.575-.713.787-1.11.583-1.093,1.191-2.179,1.674-3.317,1.889-4.451,3.649-8.953,5.212-13.53.808-2.365,1.566-4.749,2.04-7.21.105-.544.166-1.106.163-1.659-.004-.571-.32-.867-.884-.932-.221-.025-.467-.029-.673.041-.545.185-1.105.361-1.604.639-1.129.628-2.104,1.463-2.925,2.461-1.586,1.928-2.787,4.095-3.884,6.324-1.912,3.884-2.842,8-2.888,12.321Zm63.415-9.422c-.191.142-.356.243-.496.371-1.089.992-2.039,2.106-2.878,3.313-1.227,1.764-2.043,3.723-2.667,5.766-.101.33-.152.69-.15,1.035.004.473.201.599.629.433,1.302-.504,2.502-1.182,3.517-2.153,1.655-1.585,2.402-3.566,2.507-5.821.046-.978-.061-1.932-.462-2.943Zm-28.774,16.172l.084.174c.194-.013.399.007.58-.048.295-.09.596-.194.857-.354,1.845-1.135,3.522-2.464,4.783-4.255.736-1.045,1.242-2.19,1.427-3.463.048-.334.102-.675-.027-1.114-.196.236-.327.387-.45.544-.601.763-1.169,1.554-1.805,2.287-1.639,1.887-3.309,3.747-4.963,5.621-.172.195-.324.406-.486.609Z"></path>
</svg>