<svg id="Calque_1" data-name="Calque 1" xmlns="http://www.w3.org/2000/svg" viewBox="0 0 338.585 169.809"><defs><style>.cls-2{stroke-width:0}.cls-2{fill:#251236}</style></defs><path class="cls-2" d="M98.512 25.734c.802.066 1.603.139 2.406.196 6.855.492 13.446 2.09 19.685 4.965 15.327 7.062 25.914 18.538 31.713 34.385 1.738 4.749 2.762 9.671 3.135 14.717 1.176 15.928-3.182 30.177-13.326 42.513-9.042 10.997-20.681 17.805-34.678 20.531a55.686 55.686 0 0 1-12.41 1.006c-13.36-.416-25.323-4.722-35.724-13.131-10.234-8.274-16.966-18.843-20.249-31.591a55.865 55.865 0 0 1-1.775-14.175c.051-14.487 4.673-27.347 14.018-38.435 7.372-8.747 16.582-14.812 27.491-18.268a56.837 56.837 0 0 1 15.086-2.622c.203-.008.404-.059.606-.091h4.023Zm9.22 58.937c.022-.053.035-.104.062-.146.13-.202.263-.403.398-.602 2.561-3.753 4.334-7.835 5.128-12.321.606-3.426.627-6.87.225-10.316-.27-2.31-.748-4.577-1.746-6.701-.892-1.899-2.565-2.743-4.609-2.29-.488.108-.673-.021-.896-.441-.699-1.318-1.384-2.655-2.216-3.89-1.302-1.931-3.674-2.515-5.801-1.557-1.112.501-2.04 1.266-2.683 2.27-.886 1.383-1.645 2.848-2.433 4.291-.152.279-.278.456-.631.489-3.862.37-7.251 1.843-10.032 4.551-1.014.988-2.134 1.673-3.419 2.217-.701.297-1.434.775-1.88 1.373-1.558 2.089-2.519 4.45-2.623 7.088-.1 2.547.691 4.878 1.911 7.072.258.463.223.715-.169 1.077-2.032 1.873-3.844 3.939-5.17 6.38-2.058 3.787-2.845 7.886-2.861 12.157-.002.476-.118.83-.448 1.191-2.962 3.252-4.504 6.978-3.799 11.457.39 2.48 1.135 4.805 2.697 6.819.126.162.161.441.146.66-.11 1.575.335 2.951 1.416 4.111.757.813 1.72 1.307 2.735 1.702 2.962 1.153 5.948 1.505 8.983.242.137-.057.403.022.526.131.85.759 1.832 1.262 2.91 1.607 1.377.441 2.799.597 4.225.539 5.047-.208 10.088-.534 15.1-1.188 1.784-.233 3.517-.628 5.029-1.692a4.475 4.475 0 0 1 1.136-.573c4.958-1.659 9.69-3.794 14.114-6.595a100.19 100.19 0 0 1 3.93-2.363c1.719-.982 3.636-1.422 5.517-1.97 2.38-.693 4.105-2.821 4.283-5.158.208-2.735-1.055-5.033-3.4-6.186-1.679-.826-3.446-.825-5.244-.575-3.03.421-5.781 1.596-8.409 3.103-1.52.871-3.031 1.759-4.549 2.634-.182.105-.382.177-.619.285.338-7.308-2.024-13.542-6.836-18.883ZM301.297 85.837c-.555 1.658-1.029 3.349-1.685 4.967-1.147 2.833-2.731 5.395-5.148 7.353-2.216 1.795-4.756 2.558-7.594 2.298-3.115-.286-5.661-2.712-6.38-6.138-.185-.883-.245-1.805-.249-2.71-.021-5.927-.002-11.855-.019-17.782a37.681 37.681 0 0 0-.178-3.341c-.043-.469-.194-.946-.388-1.379-.373-.83-1.123-1.155-1.962-.807a5.76 5.76 0 0 0-1.524.936c-1.951 1.675-3.297 3.811-4.451 6.072-1.17 2.294-2.008 4.705-2.347 7.27a8.876 8.876 0 0 0-.069 1.129c-.005 4.433.004 8.865-.012 13.298a8.661 8.661 0 0 1-.199 1.888c-.227.996-.893 1.538-1.907 1.574-.63.023-1.278.002-1.894-.12-1.724-.34-2.742-1.545-2.877-3.3-.009-.115-.027-.229-.041-.344l-.172-.142c-.092.16-.158.344-.28.477-3.037 3.325-7.596 4.397-11.68 2.713-2.985-1.231-4.543-3.6-5.144-6.675-.433-2.217-.297-4.449-.056-6.672.581-5.367 2.181-10.474 4.002-15.524.103-.286.196-.575.318-.931-.246-.026-.425-.06-.605-.061-2.252-.004-4.504.011-6.756-.012-.509-.005-.626.187-.644.66-.189 5.002-.628 9.979-1.877 14.842-.874 3.402-2.004 6.718-4.008 9.66-1.472 2.161-3.269 3.972-5.792 4.843-3.139 1.083-6.169.923-8.875-1.215-.637-.503-1.147-1.167-1.765-1.809-2.193 2.433-4.908 3.779-8.29 3.638-3.361-.14-5.977-1.604-7.921-4.375-.111.141-.194.225-.253.323-2.292 3.832-5.279 7.063-8.633 9.975-.33.287-.464.572-.463 1.009.014 5.017.015 10.034.007 15.051-.004 2.506-.255 4.978-1.231 7.319-1.21 2.901-3.212 4.947-6.379 5.61-3.741.783-7.116-.771-9.053-4.107-.995-1.714-1.486-3.572-1.569-5.545-.25-5.934 2.007-10.853 6.138-14.983 1.493-1.493 3.064-2.911 4.632-4.326.408-.369.576-.73.573-1.279-.024-3.35-.012-6.701-.012-10.051v-.595l-.133-.037c-.099.146-.199.291-.295.438-1.076 1.656-2.307 3.169-3.97 4.277-4.057 2.701-9.462 1.462-11.973-2.744-1.234-2.067-1.777-4.345-1.963-6.715-.326-4.155.096-8.277.784-12.361.553-3.281 1.311-6.527 2-9.784.149-.704.392-1.387.587-2.081.222-.789.724-1.32 1.496-1.575 1.35-.446 2.738-.503 4.123-.253 1.036.187 1.419.767 1.304 1.809-.037.338-.103.691-.246.995-1.035 2.201-1.416 4.586-1.969 6.92-1.111 4.686-1.592 9.443-1.492 14.257.031 1.518.221 3.016.825 4.431.748 1.754 2.052 2.652 3.683 2.504 1.238-.112 2.172-.801 2.975-1.691 1.074-1.19 1.802-2.591 2.408-4.058.863-2.088 1.435-4.261 1.815-6.485.043-.252.041-.513.041-.77.002-4.433.021-8.866-.013-13.298-.008-1.057-.161-2.118-.307-3.168-.119-.853.111-1.388.899-1.744.764-.346 1.562-.336 2.377-.225 1.87.256 3.984 1.497 3.969 4.437-.053 10.257-.02 20.514-.02 30.771v.647l.195.124c.073-.133.124-.285.221-.397 2.663-3.039 4.77-6.421 6.281-10.168.143-.354.216-.763.209-1.145-.097-4.955.809-9.687 3.266-14.031 3.201-5.66 7.932-9.35 14.33-10.786 1.58-.355 3.191-.548 4.81-.379 2.87.301 3.935 2.591 3.36 5.112-.117.511-.502.727-.998.723-.446-.004-.892-.049-1.336-.086-5.355-.447-9.474 1.782-12.644 5.937-2.083 2.73-3.109 5.907-3.549 9.28-.281 2.152-.41 4.313.001 6.464.259 1.354.756 2.606 1.769 3.596a4.396 4.396 0 0 0 6.066.089c1.033-.956 1.7-2.149 2.207-3.44.072-.184.075-.403.076-.606.004-4.536.015-9.072-.009-13.607-.004-.749-.126-1.504-.26-2.244-.206-1.139.116-1.724 1.222-2.069 2.451-.765 5.392.801 5.876 3.143.069.332.07.682.07 1.024.004 4.862-.019 9.725.025 14.586.008.839.173 1.723.478 2.503.709 1.808 2.555 2.395 4.26 1.454.935-.516 1.571-1.324 2.094-2.225 1.134-1.956 1.696-4.114 2.232-6.287.992-4.022 1.381-8.116 1.561-12.24.067-1.527.119-3.055.195-4.581.018-.353-.101-.56-.407-.744-1.134-.683-2.105-1.546-2.768-2.711-.623-1.095-.892-2.278-.698-3.523.282-1.811 1.745-3.179 3.623-3.459 2.958-.441 5.408 1.118 6.401 4.125.169.512.426.666.935.732 2.825.367 5.662.253 8.496.3.473.008.993.151 1.405.384 1.167.662 2.099 1.598 2.826 2.732.518.809.68 1.652.412 2.602-.798 2.825-1.618 5.646-2.326 8.494-.954 3.839-1.638 7.726-1.649 11.703-.003 1.025.113 2.023.545 2.964.919 2.001 2.915 2.717 4.905 1.761.978-.47 1.686-1.231 2.26-2.127 1.15-1.793 1.725-3.805 2.228-5.845.218-.883.435-1.766.638-2.653.053-.231.071-.476.071-.714.004-5.017.017-10.034-.011-15.051-.005-.851-.158-1.706-.295-2.551-.157-.964.129-1.561 1.076-1.869 1.481-.482 2.897-.201 4.212.557 1.279.737 1.913 1.887 1.922 3.366.008 1.235.002 2.47.112 3.754.09-.162.185-.321.27-.486 1.191-2.302 2.554-4.48 4.536-6.202 1.921-1.668 4.134-2.392 6.678-2.043 2.903.399 4.995 2.247 5.71 5.27.321 1.357.494 2.78.507 4.175.053 6.15.015 12.301.034 18.452.003.801.057 1.623.246 2.397.448 1.83 1.849 2.447 3.563 1.646.867-.405 1.511-1.068 2.045-1.841 1.363-1.972 2.05-4.219 2.626-6.509.18-.715.296-1.452.535-2.147.687-2.001 2.233-2.343 3.756-.874.745.719 1.148 1.61 1.378 2.598v.412Zm-114.739 27.062c-.212.193-.317.278-.409.374-3.417 3.579-4.844 7.863-4.493 12.761.076 1.066.315 2.109.942 3.014.374.54.862.882 1.558.824 1.07-.089 1.579-.82 1.905-1.716.447-1.227.527-2.517.531-3.806.01-3.589 0-7.178-.004-10.767 0-.182-.015-.364-.029-.684Z"/><path d="M107.733 84.671c4.811 5.341 7.174 11.575 6.836 18.883.237-.108.438-.18.619-.285 1.518-.875 3.029-1.763 4.549-2.634 2.628-1.506 5.378-2.682 8.409-3.103 1.798-.25 3.565-.25 5.244.575 2.345 1.153 3.608 3.451 3.4 6.186-.178 2.337-1.903 4.464-4.283 5.158-1.881.548-3.798.988-5.517 1.97a101.433 101.433 0 0 0-3.93 2.363c-4.424 2.801-9.156 4.937-14.114 6.595a4.443 4.443 0 0 0-1.136.573c-1.512 1.065-3.244 1.459-5.029 1.692-5.013.655-10.053.98-15.1 1.188-1.426.059-2.848-.097-4.225-.539-1.078-.346-2.059-.849-2.91-1.607-.122-.109-.388-.188-.526-.131-3.034 1.263-6.021.91-8.983-.242-1.014-.395-1.977-.89-2.735-1.702-1.081-1.16-1.526-2.536-1.416-4.111.015-.218-.02-.497-.146-.66-1.562-2.015-2.307-4.339-2.697-6.819-.705-4.479.837-8.206 3.799-11.457.329-.362.446-.716.448-1.191.016-4.27.803-8.369 2.861-12.157 1.326-2.441 3.138-4.506 5.17-6.38.392-.361.426-.614.169-1.077-1.221-2.194-2.011-4.525-1.911-7.072.104-2.638 1.065-4.998 2.623-7.088.446-.599 1.179-1.076 1.88-1.373 1.284-.544 2.405-1.229 3.419-2.217 2.78-2.708 6.169-4.182 10.032-4.551.353-.034.478-.21.631-.489.788-1.444 1.547-2.909 2.433-4.291.644-1.004 1.572-1.77 2.683-2.27 2.126-.958 4.499-.374 5.801 1.557.832 1.234 1.516 2.572 2.216 3.89.223.42.408.549.896.441 2.044-.453 3.717.392 4.609 2.29.998 2.123 1.476 4.391 1.746 6.701.402 3.446.381 6.89-.225 10.316-.794 4.486-2.567 8.568-5.128 12.321-.136.199-.268.4-.398.602-.027.042-.04.093-.062.146Zm-36.188 28.495c-.267.431-.487.738-.657 1.071a5.78 5.78 0 0 0-.428 1.045c-.324 1.143.004 2.009 1.095 2.456 1.072.439 2.193.88 3.329 1.021 3.72.462 5.508-.858 6.382-4.011.261-.943.49-1.895.745-2.839.069-.256.177-.501.281-.791l2.17 2.051c-.406.312-.858.6-1.238.963-1.011.963-1.37 2.132-1.064 3.517.304 1.377 1.244 2.103 2.518 2.339 1.189.22 2.417.338 3.625.317 1.922-.034 3.844-.188 5.76-.352 2.908-.25 5.815-.53 8.717-.845 1.235-.134 2.437-.433 3.417-1.295.222-.195.5-.363.781-.452 4.869-1.545 9.541-3.537 13.849-6.296 3.344-2.141 6.731-4.13 10.686-4.96 1.173-.246 1.871-1.366 1.846-2.557-.025-1.211-.811-2.307-2.059-2.496-1.016-.154-2.092-.116-3.115.026-2.615.365-4.931 1.541-7.192 2.841-1.697.976-3.367 2.015-5.133 2.848-1.307.617-2.733 1.009-4.136 1.388-1.101.298-1.285.058-1.123-1.057.146-1.002.297-2.004.399-3.011.553-5.47-.85-10.435-4.048-14.864-.957-1.325-2.201-2.445-3.335-3.638-.297-.312-.382-.556-.107-.928.429-.579.806-1.197 1.221-1.787 2.081-2.959 3.735-6.122 4.692-9.631.948-3.477 1.1-7.012.799-10.577-.171-2.023-.508-4.02-1.249-5.927-.481-1.239-.62-1.313-1.84-.804-.726.303-1.43.659-2.19 1.012-.151-.315-.291-.624-.445-.926-.986-1.925-1.94-3.868-2.979-5.764-.519-.948-1.368-1.076-2.203-.387a7.13 7.13 0 0 0-1.301 1.445c-1.082 1.566-1.807 3.314-2.445 5.095-.139.388-.306.51-.732.493-3.905-.159-7.329 1.051-10.104 3.82-1.214 1.211-2.581 2.074-4.161 2.68-.356.136-.736.43-.919.756-.444.789-.8 1.631-1.151 2.468-.491 1.175-.536 2.408-.338 3.648.359 2.247 1.427 4.173 2.76 5.974.19.257.39.507.576.749-.995.862-1.971 1.651-2.881 2.509-2.333 2.201-4.35 4.636-5.459 7.708-1.136 3.147-1.563 6.393-1.346 9.726.024.377-.074.643-.354.902a14.47 14.47 0 0 0-1.205 1.271c-1.187 1.399-2.289 2.878-2.659 4.709-.576 2.85-.072 5.566 1.321 8.114.543.993 1.3 1.604 2.627 1.235Z" style="stroke-width:0;fill:#f5d123"/><path class="cls-2" d="M71.544 113.166c-1.327.369-2.084-.242-2.627-1.235-1.393-2.548-1.896-5.264-1.321-8.114.37-1.832 1.471-3.31 2.659-4.709a14.47 14.47 0 0 1 1.205-1.271c.28-.26.379-.525.354-.902-.216-3.333.211-6.579 1.346-9.726 1.109-3.072 3.126-5.507 5.459-7.708.91-.858 1.886-1.647 2.881-2.509-.186-.242-.386-.492-.576-.749-1.332-1.801-2.401-3.728-2.76-5.974-.198-1.239-.154-2.473.338-3.648.35-.838.707-1.679 1.151-2.468.183-.326.563-.619.919-.756a11.671 11.671 0 0 0 4.161-2.68c2.775-2.769 6.199-3.98 10.104-3.82.426.017.593-.104.732-.493.638-1.782 1.364-3.53 2.445-5.095a7.16 7.16 0 0 1 1.301-1.445c.835-.689 1.683-.56 2.203.387 1.039 1.896 1.993 3.839 2.979 5.764.154.301.294.61.445.926.76-.354 1.464-.709 2.19-1.012 1.22-.509 1.359-.435 1.84.804.741 1.908 1.078 3.904 1.249 5.927.302 3.566.149 7.1-.799 10.577-.957 3.509-2.611 6.672-4.692 9.631-.415.59-.792 1.208-1.221 1.787-.275.372-.19.615.107.928 1.134 1.193 2.379 2.313 3.335 3.638 3.198 4.43 4.601 9.395 4.048 14.864-.102 1.007-.253 2.009-.399 3.011-.162 1.115.022 1.355 1.123 1.057 1.403-.379 2.829-.771 4.136-1.388 1.766-.833 3.436-1.872 5.133-2.848 2.261-1.3 4.577-2.476 7.192-2.841 1.023-.143 2.099-.18 3.115-.026 1.248.189 2.034 1.286 2.059 2.496.024 1.191-.673 2.311-1.846 2.557-3.955.829-7.343 2.819-10.686 4.96-4.309 2.759-8.98 4.751-13.849 6.296a2.245 2.245 0 0 0-.781.452c-.981.862-2.182 1.161-3.417 1.295-2.902.315-5.808.595-8.717.845-1.917.165-3.839.318-5.76.352a18.297 18.297 0 0 1-3.625-.317c-1.275-.236-2.214-.962-2.518-2.339-.306-1.386.053-2.554 1.064-3.517.381-.363.833-.651 1.238-.963l-2.17-2.051c-.104.29-.212.535-.281.791-.255.945-.484 1.897-.745 2.839-.874 3.154-2.661 4.473-6.382 4.011-1.137-.141-2.257-.581-3.329-1.021-1.091-.447-1.419-1.312-1.095-2.456.102-.36.258-.71.428-1.045.17-.333.39-.64.657-1.071Z"/></svg>