<svg id="Calque_1" data-name="Calque 1" xmlns="http://www.w3.org/2000/svg" viewBox="0 0 359.766 169.809"><defs><style>.cls-1{fill:#251236;stroke-width:0}</style></defs><path class="cls-1" d="M231.221 107.431c3.896-7.428 5.23-7.964 11.844-5.326 6.475 2.582 13.7-.285 16.221-6.437 2.285-5.576-.311-9.341-6.255-8.845-2.331.195-5.245 1.12-5.483-2.098-.143-1.941 1.272-4.574 2.829-5.951 4.266-3.772 8.977-7.043 13.222-11.621h-18.914c.099-8.149 1.724-9.866 8.697-9.873 7.132-.007 14.269.161 21.394-.06 3.981-.124 5.399 2.019 4.506 5.142-.809 2.829-2.46 5.732-4.535 7.816-3.088 3.101-6.877 5.511-10.472 8.296 10.228 7.203 11.163 16.221 2.658 25.22-7.886 8.344-17.679 10.675-28.643 7.605-2.536-.71-4.75-2.564-7.068-3.867ZM100.724 84.154c.219-.078.372-.169.532-.184 14.938-1.338 15.609-.738 15.608 13.934q0 9.659-9.921 10.93c-2.79.35-5.683 1.031-8.387.625-3.351-.503-6.988-1.33-9.742-3.155-8.682-5.752-11.3-23.275-5.445-33.589 5.481-9.654 16.883-12.924 28.219-8.093 6.169 2.629 6.368 4.193 1.156 8.754-2.794-1.045-5.494-2.392-8.354-3.058-6.962-1.621-12.29 1.556-13.866 8.515-.825 3.646-1.235 7.57-.85 11.268 1.088 10.448 6.727 13.768 18.302 11.074v-9.12c-3.674-1.225-10.724-.009-7.254-7.901ZM195.739 107.715c-6.316 2.26-8.609 1.616-10.007-3.947-1.198-4.769-3.803-5.985-8.16-5.427-1.468.188-3.006.205-4.469-.002-3.888-.55-5.532 1.218-6.522 4.871-1.747 6.447-2.071 6.434-9.593 4.88.237-1.212.347-2.474.733-3.645 4.084-12.365 8.348-24.674 12.243-37.098 1.114-3.554 3.044-4.476 6.477-4.526 3.531-.052 5.301 1.135 6.383 4.585 3.847 12.259 8.016 24.418 12.035 36.624.398 1.208.597 2.482.88 3.685ZM181.39 90.618l-5.416-17.948-5.193 17.948h10.609ZM120.827 103.993l3.162-5.575c4.755 1.325 8.806 2.775 12.984 3.515 3.166.56 6.684.051 7.842-3.628 1.193-3.787-1.578-5.775-4.569-7.206-3.133-1.499-6.417-2.689-9.518-4.247-5.903-2.965-8.253-6.965-7.674-12.601.526-5.121 4.409-9.64 10.079-11.029 7.052-1.727 13.744-.53 19.966 3.019-1.256 6.494-1.547 6.477-7.25 4.94-3.126-.843-6.541-1.089-9.772-.858-1.335.095-3.412 2.046-3.56 3.334-.18 1.565.874 4.028 2.186 4.853 3.049 1.917 6.595 3.039 9.903 4.565 7.565 3.489 10.554 8.181 9.64 15.005-.8 5.971-5.655 10.275-13.374 11.267-7.148.92-13.776-.647-20.044-5.356ZM210.222 94.049v14.37h-8.172c-.152-1.421-.429-2.827-.433-4.234-.035-12.038.131-24.08-.106-36.114-.078-3.983 1.322-5.313 5.135-5.028 4.927.368 9.999-.126 14.781.854 7.72 1.582 10.884 6.712 10.662 15.438-.184 7.254-4.074 12.08-11.305 13.55-3.208.652-6.531.74-10.56 1.163Zm.358-7.44c4.579-.452 9.653 1.25 11.314-3.893.96-2.972.889-7.075-.47-9.803-2.105-4.224-6.715-2.91-10.845-2.62v16.315Z"/></svg>