<svg id="Calque_1" data-name="Calque 1" xmlns="http://www.w3.org/2000/svg" viewBox="0 0 169.809 169.809"><defs><style>.cls-2,.cls-5{stroke-width:0}.cls-2{fill:#9b9c93}.cls-5{fill:#251236}</style></defs><path d="M85.072 8.369c16.784 0 33.568-.003 50.352 0 15.777.003 27.973 12.162 27.976 27.902.005 32.479.007 64.958 0 97.437-.003 15.504-12.268 27.727-27.819 27.73-33.786.006-67.572.006-101.358 0-15.544-.003-27.807-12.232-27.811-27.738-.007-32.588-.01-65.176.002-97.764C6.42 20.652 18.741 8.38 34.067 8.372c17.002-.009 34.004-.002 51.006-.002ZM63.936 70.484c5.798.957 10.508 3.715 14.437 8.124 3.395 3.81 7.103 7.349 10.763 10.914 2.463 2.399 5.85 2.37 8.193.124 2.275-2.18 2.453-5.787.164-8.218-4.544-4.827-8.967-9.81-13.892-14.225-5.124-4.593-10.407-7.504-18.258-8.461-1.532-.096-3.164-.087-4.804-.026-18.078.672-32.397 16.015-31.775 34.082.555 14.731 10.156 26.93 24.287 30.781 8.412 2.293 16.964.814 25.51.987-4.13-3.357-8.61-6.076-12.085-9.99-1.116-1.257-2.306-1.67-3.957-1.715-7.414-.203-13.393-3.291-17.885-9.24-2.435-3.224-3.258-7.042-4.172-10.837.294-6.963 2.424-13.059 8.067-17.597 4.529-3.643 9.715-4.96 15.407-4.702Zm67.008-12.52c-14.006-16.649-42.221-18.381-56.323-3.399 3.315 1.858 6.651 3.647 9.894 5.593 1.025.615 1.598.107 2.328-.329 2.348-1.403 4.821-2.489 7.52-3.034 10.799-2.182 19.943.973 27.721 8.563.842 1.131 1.744 2.223 2.518 3.398 11.402 17.309.416 41.699-20.008 44.446-10.276.89-18.294-3.455-25.199-10.647-5.207-5.424-10.593-10.678-15.946-15.96-2.794-2.757-6.184-2.809-8.653-.269-2.374 2.444-2.314 5.746.308 8.422 5.872 5.994 11.713 12.022 17.73 17.869 9.321 9.059 20.354 13.52 33.509 11.873 3.391-.653 6.818-1.301 9.959-2.727 12.903-5.858 20.984-15.419 23.768-29.661 2.555-13.072-.754-24.185-9.126-34.139Z" style="stroke-width:0;fill:#f5d123"/><path d="M104.594 113.202c20.424-2.746 31.41-27.136 20.008-44.446-.774-1.176-1.676-2.267-2.519-3.399l8.861-7.394c8.372 9.954 11.681 21.067 9.126 34.139-2.784 14.242-10.865 23.803-23.768 29.661-3.141 1.426-6.568 2.074-9.954 2.725a8050.47 8050.47 0 0 0-1.753-11.286Z" style="fill:#765c8f;stroke-width:0"/><path class="cls-2" d="M104.594 113.202c.586 3.761 1.171 7.522 1.753 11.286-13.159 1.65-24.192-2.811-33.513-11.87-6.016-5.847-11.858-11.875-17.73-17.869-2.622-2.676-2.682-5.978-.308-8.422 2.469-2.541 5.859-2.488 8.653.269 5.354 5.282 10.739 10.536 15.946 15.96 6.905 7.192 14.923 11.537 25.199 10.647ZM40.462 92.784c.914 3.795 1.737 7.613 4.172 10.837 4.492 5.949 10.471 9.037 17.885 9.24 1.652.045 2.841.458 3.957 1.715 3.475 3.915 7.955 6.634 12.085 9.99-8.546-.172-17.097 1.306-25.51-.987-14.131-3.851-23.732-16.05-24.287-30.781l11.698-.014Z"/><path class="cls-5" d="m130.944 57.964-8.861 7.394c-7.777-7.59-16.921-10.745-27.72-8.563-2.699.545-5.172 1.631-7.52 3.034-.73.436-1.303.944-2.328.329-3.243-1.946-6.58-3.735-9.894-5.593 14.101-14.982 42.316-13.25 56.323 3.399Z"/><path d="m40.462 92.784-11.698.014c-.623-18.066 13.697-33.413 31.775-34.081 1.594-.059 2.935-.122 4.804.026-.066 3.738-.85 8.062-1.407 11.741-5.693-.258-10.879 1.059-15.407 4.702-5.643 4.539-7.773 10.634-8.067 17.597Z" style="fill:#9c8a35;stroke-width:0"/><path class="cls-5" d="M63.936 70.484c.226-1.72.57-4.158.753-5.565s.447-4.197.654-6.176c2.491.189 5.972.967 9.874 2.735 2.697 1.222 4.844 2.553 8.384 5.726 4.925 4.415 9.348 9.398 13.892 14.224 2.289 2.431 2.111 6.038-.164 8.218-2.343 2.245-5.73 2.275-8.193-.124-3.66-3.565-7.368-7.104-10.763-10.914-3.929-4.41-8.639-7.168-14.437-8.124Z"/></svg>