<svg id="Calque_1" data-name="Calque 1" xmlns="http://www.w3.org/2000/svg" viewBox="0 0 169.809 169.809"><defs><style>.cls-1{fill:#f5d123}.cls-1,.cls-2{stroke-width:0}.cls-2{fill:#251236}</style></defs><path class="cls-1" d="M135.696 8.299c-33.8-.01-67.61 0-101.41 0-15.78 0-27.93 12.19-27.94 28v96.84c0 16.25 11.97 28.3 28.25 28.35 16.69.05 33.37.01 50.06.01 17.01-.01 34.02.04 51.03-.02 15.66-.06 27.77-12.25 27.77-27.84.01-32.49.01-64.99 0-97.49 0-15.59-12.21-27.84-27.76-27.85Zm-45.46 107.67c-1.01-.07-2.34-1.44-2.78-2.52-1.44-3.51-2.6-7.15-3.73-10.78-.63-2.05-1.68-3.01-3.96-2.97-6.32.13-12.64.1-18.96.02-2.09-.03-3.14.77-3.73 2.79-1.09 3.75-2.33 7.47-3.72 11.13-.36.95-1.44 2.24-2.26 2.3-3.77.24-7.56.1-11.99.1 1.31-3.98 2.39-7.45 3.59-10.88 5.75-16.54 11.54-33.07 17.3-49.6.33-.93.69-1.86.84-2.82.85-5.42.23-4.86 5.86-4.9 2.83-.01 5.68.17 8.49-.05 2.77-.21 4.07.87 4.98 3.47 6.66 19.11 13.47 38.16 20.23 57.23.82 2.33 1.61 4.67 2.62 7.6-4.76 0-8.79.17-12.78-.12Zm31.11.18c-2.71-.2-5.45-.1-8.17-.03-1.79.04-2.56-.66-2.55-2.49.03-15.47.03-30.95 0-46.42 0-1.82.79-2.61 2.56-2.51.1 0 .21 0 .32-.01q11.07-.59 11.07 10.41v15.69c0 7.3-.08 14.6.04 21.9.04 2.47-.56 3.66-3.27 3.46Zm-3.74-57.71c-4.7 0-7.7-3.24-7.64-8.23.06-4.64 3.17-7.62 7.9-7.6 4.66.02 7.45 3.02 7.41 7.96-.03 4.71-3.1 7.86-7.67 7.87Z"/><path class="cls-2" d="M125.275 50.569c-.03 4.71-3.1 7.86-7.67 7.87-4.7 0-7.7-3.24-7.64-8.23.06-4.64 3.17-7.62 7.9-7.6 4.66.02 7.45 3.02 7.41 7.96ZM124.616 112.689c.04 2.47-.56 3.66-3.27 3.46-2.71-.2-5.45-.1-8.17-.03-1.79.04-2.56-.66-2.55-2.49.03-15.47.03-30.95 0-46.42 0-1.82.79-2.61 2.56-2.51.1 0 .21 0 .32-.01q11.07-.59 11.07 10.41v15.69c0 7.3-.08 14.6.04 21.9ZM100.396 108.489c-6.76-19.07-13.57-38.12-20.23-57.23-.91-2.6-2.21-3.68-4.98-3.47-2.81.22-5.66.04-8.49.05-5.63.04-5.01-.52-5.86 4.9-.15.96-.51 1.89-.84 2.82-5.76 16.53-11.55 33.06-17.3 49.6-1.2 3.43-2.28 6.9-3.59 10.88 4.43 0 8.22.14 11.99-.1.82-.06 1.9-1.35 2.26-2.3 1.39-3.66 2.63-7.38 3.72-11.13.59-2.02 1.64-2.82 3.73-2.79 6.32.08 12.64.11 18.96-.02 2.28-.04 3.33.92 3.96 2.97 1.13 3.63 2.29 7.27 3.73 10.78.44 1.08 1.77 2.45 2.78 2.52 3.99.29 8.02.12 12.78.12-1.01-2.93-1.8-5.27-2.62-7.6Zm-38.6-21.56c2.75-9 5.4-17.67 8.05-26.35l.78-.15c2.7 8.67 5.4 17.34 8.25 26.5h-17.08Z"/><path class="cls-1" d="M78.876 86.929h-17.08c2.75-9 5.4-17.67 8.05-26.35l.78-.15c2.7 8.67 5.4 17.34 8.25 26.5Z"/></svg>