<?xml version="1.0" encoding="UTF-8"?><svg xmlns="http://www.w3.org/2000/svg" viewBox="0 0 50 50"><defs><style>.cls-1 {
  fill: #c1bbb7;
}

.cls-1, .cls-2 {
  stroke-width: 0;
}

.cls-2 {
  fill: #ebebeb;
}

</style></defs><g id="Calque_16"><rect class="cls-1" width="50" height="50"></rect></g><g id="behance"><rect class="cls-2" x="28.896" y="18.179" width="6.832" height="1.943"></rect><path class="cls-2" d="m34.202,29.281c-.459.288-.907.427-1.505.427-2.274,0-2.722-1.911-2.722-2.754h7.697c0-.854,0-1.473-.139-2.188-.16-.705-1.196-3.662-4.996-3.662-5.305,0-5.583,4.654-5.583,5.359s.149,1.548.459,2.114c.299.705.598,1.27,1.046,1.697.448.416,1.057.843,1.665,1.121.758.288,1.505.427,2.263.427,1.217,0,2.263-.278,3.171-.843.907-.566,1.516-1.42,1.964-2.541h-2.562c-.149.288-.31.566-.758.843Zm-1.665-6.202c1.484,0,2.114,1.548,2.274,2.252h-4.836c0-.139.363-2.252,2.562-2.252Z"></path><path class="cls-2" d="m21.595,24.445c.576-.288,1.857-.918,1.857-2.786,0-3.533-3.854-3.48-4.569-3.48h-6.554v13.643h6.843c.576,0,4.857-.16,4.857-3.896,0-2.423-1.569-3.213-2.434-3.48Zm-6.341-3.896h2.85c.288,0,2.135.096,2.135,1.527s-1.42,1.665-1.847,1.665h-3.138v-3.192Zm3.267,8.903h-3.267v-3.758h3.267c.705,0,2.263.235,2.263,1.954s-1.986,1.804-2.263,1.804Z"></path></g></svg>