<svg xmlns="http://www.w3.org/2000/svg" viewBox="0 0 50 50"><defs><style>.cls-1{fill:#c1bbb7}.cls-1{stroke-width:0}</style></defs><path class="cls-1" d="M0 0h50v50H0z" id="Calque_16"/><g id="discord"><path d="M37.342 30.914a.52.52 0 0 1-.247.403c-1.956 1.235-3.652 2.073-5.329 2.658a1.643 1.643 0 0 1-1.878-.644l-.76-1.131a12.103 12.103 0 0 0 1.774-.819.54.54 0 0 0 .195-.734.527.527 0 0 0-.728-.201c-1.638.936-3.483 1.423-5.349 1.423s-3.711-.487-5.349-1.423a.527.527 0 0 0-.728.201.54.54 0 0 0 .195.734c.552.312 1.124.572 1.716.793l-.741 1.131c-.416.637-1.189.91-1.891.663-1.677-.578-3.367-1.423-5.316-2.652a.52.52 0 0 1-.247-.403c-.494-4.673.5-8.806 3.035-12.647.37-.546.884-.968 1.495-1.209 1.319-.533 2.463-.89 3.484-1.085a1.617 1.617 0 0 1 1.761.871l.084.169c.754-.084 1.56-.11 2.496-.091.916-.02 1.716.006 2.47.091l.084-.169c.344-.663 1.046-1.014 1.768-.871 1.014.195 2.158.552 3.484 1.085.604.24 1.124.663 1.488 1.209 2.535 3.834 3.529 7.974 3.035 12.647Z" style="fill:#ebebeb;stroke-width:0"/><path class="cls-1" d="M30.42 25.143c0 1.339-.845 2.431-1.865 2.431-1.027 0-1.872-1.092-1.872-2.431s.845-2.431 1.872-2.431c1.02 0 1.865 1.098 1.865 2.431ZM23.453 25.176c0 1.326-.851 2.418-1.885 2.418-1.04 0-1.891-1.092-1.891-2.418s.851-2.418 1.891-2.418c1.033 0 1.885 1.092 1.885 2.418Z"/></g></svg>