<?xml version="1.0" encoding="UTF-8"?><svg xmlns="http://www.w3.org/2000/svg" viewBox="0 0 50 50"><defs><style>.cls-1 {
  fill: #c1bbb7;
}

.cls-1, .cls-2 {
  stroke-width: 0;
}

.cls-2 {
  fill: #ebebeb;
}

</style></defs><g id="Calque_16"><rect class="cls-1" width="50" height="50"></rect></g><g id="discord"><path class="cls-2" d="m37.342,30.914c-.013.169-.104.312-.247.403-1.956,1.235-3.652,2.073-5.329,2.658-.169.058-.344.084-.52.084-.533,0-1.046-.266-1.358-.728l-.76-1.131c.611-.227,1.202-.494,1.774-.819.253-.15.344-.474.195-.734-.143-.26-.474-.351-.728-.201-1.638.936-3.483,1.423-5.349,1.423s-3.711-.487-5.349-1.423c-.253-.15-.585-.059-.728.201-.149.26-.058.585.195.734.552.312,1.124.572,1.716.793l-.741,1.131c-.416.637-1.189.91-1.891.663-1.677-.578-3.367-1.423-5.316-2.652-.143-.091-.234-.234-.247-.403-.494-4.673.5-8.806,3.035-12.647.37-.546.884-.968,1.495-1.209,1.319-.533,2.463-.89,3.484-1.085.708-.143,1.423.208,1.761.871l.084.169c.754-.084,1.56-.11,2.496-.091.916-.02,1.716.006,2.47.091l.084-.169c.344-.663,1.046-1.014,1.768-.871,1.014.195,2.158.552,3.484,1.085.604.24,1.124.663,1.488,1.209,2.535,3.834,3.529,7.974,3.035,12.647Z"></path><path class="cls-1" d="m30.42,25.143c0,1.339-.845,2.431-1.865,2.431-1.027,0-1.872-1.092-1.872-2.431s.845-2.431,1.872-2.431c1.02,0,1.865,1.098,1.865,2.431Z"></path><path class="cls-1" d="m23.453,25.176c0,1.326-.851,2.418-1.885,2.418-1.04,0-1.891-1.092-1.891-2.418s.851-2.418,1.891-2.418c1.033,0,1.885,1.092,1.885,2.418Z"></path></g></svg>