<svg id="Calque_1" xmlns="http://www.w3.org/2000/svg" viewBox="0 0 1000 1000"><defs><style>.cls-1{fill:#dbdbdb;fill-rule:evenodd}.cls-1{stroke-width:0}</style></defs><path style="fill:#0b0b0b;stroke-width:0" d="M0 0h1000v1000H0z"/><g id="black_assemble_"><path class="cls-1" d="M549.307 278.191c-1.619 32.019-16.727 87.928-26.913 154.473-8.966 58.567-15.945 119.442-18.434 182.124-.881 22.261-1.316 45.87-1.545 68.3a306.13 306.13 0 0 0-14.216-.339c-3.208-.004-6.397.044-9.56.14-.616-21.519-1.338-44.171-2.197-65.819-2.489-62.682-8.277-125.662-15.986-184.405-8.926-68.012-25.295-122.454-26.913-154.473-1.006-19.908 11.053-59.183 57.144-59.356h1.474c46.091.173 58.151 39.448 57.144 59.356ZM700.669 379.885c-24.015 21.774-68.621 64.027-96.061 118.402-17.696 35.068-36.063 78.826-48.665 167.008a829.443 829.443 0 0 0-3.123 24.646c-8.741-2.031-17.884-3.664-27.341-4.863 8.612-95.585 22.666-184.726 34.15-233.612 14.817-63.079 37.387-114.653 54.932-140.095 15.123-21.929 54.235-51.573 90.324-16.959 36.867 35.359 12.974 69.882-4.218 85.473ZM456.693 684.364c-10.411 1.084-20.48 2.703-30.087 4.793a1700.993 1700.993 0 0 0-3.385-26.441c-10.577-77.915-29.125-129.728-46.821-164.796-27.44-54.379-70.427-95.755-95.855-118.712-16.542-14.935-39.415-51.212-4.055-84.426 37.468-35.194 74.464-5.338 89.587 16.59 17.545 25.442 40.163 76.92 55.301 140.095 11.654 48.646 26.611 138.477 35.315 232.897ZM816.963 628.798c.004 13.169-1.626 20.771-11.698 32.557-7.956 9.316-22.069 14.629-40.654 13.527-45.796-2.725-95.607 19.683-116.242 88.216-.841-11.772-6.444-22.928-15.823-32.974 8.14-30.345 22.629-70.037 48.008-100.588 28.336-34.113 57.841-49.87 85.24-50.641 35.492-.999 51.164 29.933 51.168 49.903Z"/><path class="cls-1" d="M813.645 488.334c-10.253 29.147-49.214 36.79-71.522 44.978-66.14 24.27-106.815 89.546-125.348 140.832-4.391 12.151-8.173 23.872-11.296 35.426-8.018-4.491-16.966-8.523-26.677-12.015 4.31-26.342 10.54-55.503 19.54-83.873 27.263-85.941 70.398-135.851 93.642-160.003 36.945-38.39 68.761-42.025 90.693-33.18 24.27 9.784 41.52 37.84 30.968 67.835ZM401.581 696.01c-9.895 3.314-19.06 7.178-27.33 11.506-3.403-14.972-7.255-27.986-11.123-37.428-11.385-27.783-29.121-57.225-45.715-78.158-17.844-22.511-43.548-43.061-72.997-55.301-24.074-10.006-68.193-15.812-77.79-49.033-8.826-30.548 7.805-56.945 32.074-66.729 21.932-8.844 50.965-4.586 89.956 32.812 23.706 22.736 66.379 74.062 93.642 160.003 8.822 27.816 14.986 56.395 19.281 82.328Z"/><path class="cls-1" d="M346.184 727.266c-11.13 10.843-17.788 23.101-18.636 36.097h-.004c-4.45-18.161-18.537-46.648-38.519-62.674-6.257-5.018-13.464-9.246-21.387-12.892-18.71-8.616-38.681-11.44-61.196-11.44-31.293 0-43.872-25.007-43.872-44.978s14.688-50.508 48.665-50.508 65.845 19.049 90.693 51.245c18.854 24.428 34.098 56.58 44.255 95.15Z"/></g></svg>