<svg xmlns="http://www.w3.org/2000/svg" viewBox="0 0 50 50"><path style="stroke-width:0;fill:#c1bbb7" d="M0 0h50v50H0z" id="Calque_16"/><g id="gmail"><path id="mail" d="M18.945 23.695v-6.062l-.056-.041h-.005l-1.272-.941c-.778-.578-1.886-.55-2.576.13a2.515 2.515 0 0 0-.75 1.793v1.678l4.658 3.443Zm12.11-.006v.006l4.658-3.443v-1.678c0-.694-.279-1.327-.736-1.784a1.943 1.943 0 0 0-2.526-.188l-1.34.989-.056.041v6.056Zm-11.179.688 4.847 3.583a.465.465 0 0 0 .554 0l4.846-3.583v-6.056l-5.124 3.788-5.124-3.788v6.056Zm11.179.476v7.038c0 .257.209.466.466.466h3.028c.643 0 1.164-.521 1.164-1.164V21.41l-4.658 3.443Zm-12.11 0-4.658-3.443v9.783c0 .643.521 1.164 1.164 1.164h3.028a.466.466 0 0 0 .466-.466v-7.038Z" style="fill:#ebebeb;stroke-width:0"/></g></svg>