<?xml version="1.0" encoding="UTF-8"?><svg xmlns="http://www.w3.org/2000/svg" viewBox="0 0 50 50"><defs><style>.cls-1 {
  fill: #c1bbb7;
}

.cls-1, .cls-2 {
  stroke-width: 0;
}

.cls-2 {
  fill: #ebebeb;
}

</style></defs><g id="Calque_16"><rect class="cls-1" width="50" height="50"></rect></g><g id="gmail"><path id="mail" class="cls-2" d="m18.945,23.695v-6.062l-.056-.041h-.005l-1.272-.941c-.778-.578-1.886-.55-2.576.13-.461.456-.75,1.09-.75,1.793v1.678l4.658,3.443Zm12.11-.006v.006l4.658-3.443v-1.678c0-.694-.279-1.327-.736-1.784-.68-.679-1.754-.758-2.526-.188l-1.34.989-.056.041v6.056Zm-11.179.688l4.847,3.583c.164.122.389.122.554,0l4.846-3.583v-6.056l-5.124,3.788-5.124-3.788v6.056Zm11.179.476v7.038c0,.257.209.466.466.466h3.028c.643,0,1.164-.521,1.164-1.164v-9.783l-4.658,3.443Zm-12.11,0l-4.658-3.443v9.783c0,.643.521,1.164,1.164,1.164h3.028c.257,0,.466-.209.466-.466v-7.038Z"></path></g></svg>