<svg xmlns="http://www.w3.org/2000/svg" viewBox="0 0 50 50"><defs><style>.cls-2{stroke-width:0}.cls-2{fill:#ebebeb}</style></defs><path style="stroke-width:0;fill:#c1bbb7" d="M0 0h50v50H0z" id="Calque_16"/><g id="linkdin"><path class="cls-2" d="M34.203 26.128v7.059H30.26V26.61c0-1.31-.662-2.626-2.303-2.655h-.05c-1.59 0-2.252 1.36-2.252 2.655v6.577h-3.943V20.696h3.943v1.684s1.274-1.684 3.821-1.684c2.612 0 4.727 1.799 4.727 5.433ZM19.74 17.061c0 .921-.734 1.662-1.972 1.662-1.18 0-1.972-.741-1.972-1.662s.791-1.619 1.972-1.619c1.187 0 1.928.698 1.972 1.619ZM15.797 20.695h3.943v12.491h-3.943z"/></g></svg>