<?xml version="1.0" encoding="UTF-8"?><svg xmlns="http://www.w3.org/2000/svg" viewBox="0 0 50 50"><defs><style>.cls-1 {
  fill: #c1bbb7;
}

.cls-1, .cls-2 {
  stroke-width: 0;
}

.cls-2 {
  fill: #ebebeb;
}

</style></defs><g id="Calque_16"><rect class="cls-1" width="50" height="50"></rect></g><g id="linkdin"><path class="cls-2" d="m34.203,26.128v7.059h-3.943v-6.577c0-1.31-.662-2.626-2.303-2.655h-.05c-1.59,0-2.252,1.36-2.252,2.655v6.577h-3.943v-12.491h3.943v1.684s1.274-1.684,3.821-1.684c2.612,0,4.727,1.799,4.727,5.433Z"></path><path class="cls-2" d="m19.74,17.061c0,.921-.734,1.662-1.972,1.662-1.18,0-1.972-.741-1.972-1.662s.791-1.619,1.972-1.619c1.187,0,1.928.698,1.972,1.619Z"></path><rect class="cls-2" x="15.797" y="20.695" width="3.943" height="12.491"></rect></g></svg>