<svg xmlns="http://www.w3.org/2000/svg" viewBox="0 0 50 50"><defs><style>.cls-1{fill:#ebebeb;fill-rule:evenodd}.cls-1,.cls-2{stroke-width:0}.cls-2{fill:#c1bbb7}</style></defs><path class="cls-2" d="M0 0h50v50H0z" id="Calque_16"/><g id="pdf_telecharger"><path id="Subtract" class="cls-1" d="M35.411 19.088a.69.69 0 0 1 .185.444c.005 3.773.006 7.546.007 11.319a2.276 2.276 0 0 0-2.144 2.272v.645c-1.3.264-1.975 1.823-1.148 2.968l1.311 1.817H14.297V11.307H16.706c3.487 0 6.973 0 10.46.007.144 0 .321.075.425.175 2.614 2.525 5.22 5.058 7.82 7.599Zm-8.076-6.436v6.947h6.945l-3.474-3.475-3.471-3.472Z"/><path id="coin_sup_droit" class="cls-2" d="M34.281 19.599h-6.945v-6.948l6.945 6.947Z"/><path id="Union" class="cls-1" d="M36.495 33.123a.76.76 0 0 0-1.518 0v2.124h-1.128a.38.38 0 0 0-.308.601l1.886 2.614c.151.21.464.21.615 0l1.886-2.614a.38.38 0 0 0-.308-.601h-1.128v-2.124Z"/><g id="pdf"><path class="cls-2" d="M21.902 35.498h-.497v1.016h-.482v-2.595h.979c.264 0 .466.072.604.217.138.144.208.336.208.573s-.069.428-.208.573c-.138.145-.34.217-.604.217Zm-.018-.445c.227 0 .341-.115.341-.345s-.114-.345-.341-.345h-.479v.69h.479ZM23.967 36.514h-.812v-2.595h.812c.158 0 .308.026.449.078s.269.129.384.23.206.237.274.406.102.364.102.584-.034.415-.102.584c-.068.17-.159.305-.274.406s-.243.178-.384.23-.291.078-.449.078Zm-.33-.445h.178c.114 0 .218-.013.313-.039a.909.909 0 0 0 .274-.128.593.593 0 0 0 .208-.263c.051-.116.076-.257.076-.422s-.025-.307-.076-.423c-.051-.116-.12-.204-.208-.263s-.179-.102-.274-.128a1.187 1.187 0 0 0-.313-.039h-.178v1.706ZM25.609 33.918h1.643v.445h-1.161v.594h.934v.445h-.934v1.112h-.482v-2.595Z"/></g><g id="cv"><path class="cls-2" d="m24.077 25.792-1.156.296c-.303-.804-.873-1.206-1.71-1.206-.567 0-1.036.201-1.408.603-.373.402-.558.985-.558 1.749s.186 1.347.558 1.749c.372.402.841.603 1.408.603.837 0 1.407-.401 1.71-1.206l1.156.297c-.165.666-.496 1.181-.993 1.547-.498.366-1.122.549-1.873.549-.916 0-1.69-.313-2.323-.939-.632-.626-.949-1.492-.949-2.6s.316-1.973.949-2.599c.633-.626 1.407-.939 2.323-.939.751 0 1.375.183 1.873.549.497.366.828.881.993 1.547ZM28.16 30.694h-1.305l-2.323-6.919h1.423l1.552 5.12 1.552-5.12h1.423l-2.322 6.919Z"/></g></g></svg>