<?xml version="1.0" encoding="UTF-8"?><svg xmlns="http://www.w3.org/2000/svg" viewBox="0 0 50 50"><defs><style>.cls-1 {
  fill: #ebebeb;
  fill-rule: evenodd;
}

.cls-1, .cls-2 {
  stroke-width: 0;
}

.cls-2 {
  fill: #c1bbb7;
}

</style></defs><g id="Calque_16"><rect class="cls-2" width="50" height="50"></rect></g><g id="pdf_telecharger"><path id="Subtract" class="cls-1" d="m35.411,19.088c.107.104.184.294.185.444.005,3.773.006,7.546.007,11.319-1.195.068-2.144,1.059-2.144,2.272v.645c-1.3.264-1.975,1.823-1.148,2.968l1.311,1.817H14.297V11.307h.317c.697,0,1.395,0,2.092,0,3.487,0,6.973,0,10.46.007.144,0,.321.075.425.175,2.614,2.525,5.22,5.058,7.82,7.599Zm-8.076-6.436v6.947h6.945c-1.156-1.157-2.317-2.317-3.474-3.475-1.163-1.163-2.322-2.323-3.471-3.472Z"></path><path id="coin_sup_droit" class="cls-2" d="m34.281,19.599h-6.945v-6.948c2.293,2.294,4.628,4.629,6.945,6.947h0Z"></path><path id="Union" class="cls-1" d="m36.495,33.123c0-.419-.34-.759-.759-.759s-.759.34-.759.759v2.124h-1.128c-.31,0-.489.35-.308.601l1.886,2.614c.151.21.464.21.615,0l1.886-2.614c.181-.251.002-.601-.308-.601h-1.128v-2.124Z"></path><g id="pdf"><path class="cls-2" d="m21.902,35.498h-.497v1.016h-.482v-2.595h.979c.264,0,.466.072.604.217.138.144.208.336.208.573s-.069.428-.208.573c-.138.145-.34.217-.604.217Zm-.018-.445c.227,0,.341-.115.341-.345s-.114-.345-.341-.345h-.479v.69h.479Z"></path><path class="cls-2" d="m23.967,36.514h-.812v-2.595h.812c.158,0,.308.026.449.078s.269.129.384.23.206.237.274.406.102.364.102.584-.034.415-.102.584c-.068.17-.159.305-.274.406s-.243.178-.384.23-.291.078-.449.078Zm-.33-.445h.178c.114,0,.218-.013.313-.039.095-.026.186-.068.274-.128.088-.059.157-.147.208-.263.051-.116.076-.257.076-.422s-.025-.307-.076-.423c-.051-.116-.12-.204-.208-.263s-.179-.102-.274-.128c-.095-.026-.2-.039-.313-.039h-.178v1.706Z"></path><path class="cls-2" d="m25.609,33.918h1.643v.445h-1.161v.594h.934v.445h-.934v1.112h-.482v-2.595Z"></path></g><g id="cv"><path class="cls-2" d="m24.077,25.792l-1.156.296c-.303-.804-.873-1.206-1.71-1.206-.567,0-1.036.201-1.408.603-.373.402-.558.985-.558,1.749s.186,1.347.558,1.749c.372.402.841.603,1.408.603.837,0,1.407-.401,1.71-1.206l1.156.297c-.165.666-.496,1.181-.993,1.547-.498.366-1.122.549-1.873.549-.916,0-1.69-.313-2.323-.939-.632-.626-.949-1.492-.949-2.6s.316-1.973.949-2.599c.633-.626,1.407-.939,2.323-.939.751,0,1.375.183,1.873.549.497.366.828.881.993,1.547Z"></path><path class="cls-2" d="m28.16,30.694h-1.305l-2.323-6.919h1.423l1.552,5.12,1.552-5.12h1.423l-2.322,6.919Z"></path></g></g></svg>