<svg xmlns="http://www.w3.org/2000/svg" viewBox="0 0 50 50"><path style="stroke-width:0;fill:#c1bbb7" d="M0 0h50v50H0z" id="Calque_16"/><path d="M34.13 19.415v3.545a5.44 5.44 0 0 1-.524.033 5.7 5.7 0 0 1-4.769-2.58v8.772c0 3.579-2.905 6.483-6.483 6.483s-6.483-2.905-6.483-6.483 2.905-6.483 6.483-6.483c.133 0 .266.017.399.025v3.188c-.133-.008-.258-.033-.399-.033-1.823 0-3.304 1.481-3.304 3.304s1.481 3.312 3.304 3.312 3.446-1.44 3.446-3.271l.025-14.898h3.054a5.706 5.706 0 0 0 5.252 5.085Z" style="fill:#ebebeb;stroke-width:0" id="tiktok"/></svg>