<?xml version="1.0" encoding="UTF-8"?><svg xmlns="http://www.w3.org/2000/svg" viewBox="0 0 50 50"><defs><style>.cls-1 {
  fill: #c1bbb7;
}

.cls-1, .cls-2 {
  stroke-width: 0;
}

.cls-2 {
  fill: #ebebeb;
}

</style></defs><g id="Calque_16"><rect class="cls-1" width="50" height="50"></rect></g><g id="tiktok"><path class="cls-2" d="m34.13,19.415v3.545c-.175.017-.35.033-.524.033-1.997,0-3.754-1.032-4.769-2.58v8.772c0,3.579-2.905,6.483-6.483,6.483s-6.483-2.905-6.483-6.483,2.905-6.483,6.483-6.483c.133,0,.266.017.399.025v3.188c-.133-.008-.258-.033-.399-.033-1.823,0-3.304,1.481-3.304,3.304s1.481,3.312,3.304,3.312,3.446-1.44,3.446-3.271c0-.075.025-14.898.025-14.898h3.054c.291,2.73,2.497,4.885,5.252,5.085Z"></path></g></svg>