<?xml version="1.0" encoding="UTF-8"?><svg xmlns="http://www.w3.org/2000/svg" viewBox="0 0 50 50"><defs><style>.cls-1 {
  fill: #c1bbb7;
}

.cls-1, .cls-2 {
  stroke-width: 0;
}

.cls-2 {
  fill: #ebebeb;
}

</style></defs><g id="Calque_16"><rect class="cls-1" width="50" height="50"></rect></g><g id="wechat"><path class="cls-2" d="m36.676,32.385l1.192,4.069-4.255-2.385c-.924.276-1.915.477-2.981.477-3.525,0-6.595-1.796-7.959-4.426-1.669.186-3.406.03-4.829-.417l-5.127,3.175,1.639-4.918c-2.332-1.729-3.614-4.121-3.614-6.774,0-4.97,4.739-9.009,10.567-9.009,5.194,0,9.568,3.204,10.41,7.527,4.255.447,7.609,3.532,7.609,7.392,0,2.109-1.051,3.957-2.653,5.291Z"></path><circle class="cls-1" cx="25.036" cy="18.39" r="1.244"></circle><circle class="cls-1" cx="17.577" cy="18.39" r="1.244"></circle><path class="cls-1" d="m35.603,31.685l-.343.261.559,1.938-2.019-1.133-.261.089c-.864.291-1.863.469-2.906.469-4.195,0-7.459-2.824-7.459-6.215s3.264-6.215,7.459-6.215,7.452,2.817,7.452,6.215c0,1.833-.932,3.443-2.482,4.59Z"></path><circle class="cls-2" cx="33.427" cy="25.537" r=".932"></circle><circle class="cls-2" cx="27.831" cy="25.537" r=".932"></circle></g></svg>