<svg xmlns="http://www.w3.org/2000/svg" viewBox="0 0 50 50"><defs><style>.cls-1{fill:#c1bbb7}.cls-1,.cls-2{stroke-width:0}.cls-2{fill:#ebebeb}</style></defs><path class="cls-1" d="M0 0h50v50H0z" id="Calque_16"/><g id="weibo"><path class="cls-2" d="M35.273 21.428c0 .514-.094 1-.261 1.449a.607.607 0 0 1-.775.362.613.613 0 0 1-.362-.775 3.015 3.015 0 0 0-2.833-4.057c-.174 0-.348.022-.522.051a.603.603 0 0 1-.703-.485.609.609 0 0 1 .493-.703 4.234 4.234 0 0 1 4.963 4.159Z"/><path class="cls-2" d="M38.895 21.428c0 .949-.174 1.847-.478 2.688a.593.593 0 0 1-.464.398.596.596 0 0 1-.58-.21.611.611 0 0 1-.094-.609 6.633 6.633 0 0 0-6.237-8.911c-.384 0-.768.043-1.152.109a.595.595 0 0 1-.695-.493.607.607 0 0 1 .485-.703 8.401 8.401 0 0 1 1.362-.123c4.332 0 7.853 3.528 7.853 7.853ZM35.128 28.709c0 3.419-4.991 7.715-12.453 7.715-5.752 0-11.569-2.724-11.569-7.273 0-2.34 1.514-5.057 4.108-7.65 2.608-2.557 5.535-4.093 7.476-4.05.652.007 1.188.196 1.565.572.695.63.761 1.775.319 3.166-.254.695.63.312.63.312 1.608-.674 4.028-.681 4.629-.616 1.21.13 1.811.884 1.811 1.753 0 .768-.181 1.34-.304 1.645-.188.507.065.565.442.695 1.579.507 3.347 1.645 3.347 3.731Z"/><path class="cls-1" d="M22.167 24.413c-4.716 0-8.534 2.405-8.534 5.375s3.818 5.368 8.534 5.368 8.534-2.405 8.534-5.368-3.818-5.375-8.534-5.375Zm3.151 6.151c-.949 2.086-3.666 3.224-5.94 2.463-2.275-.695-3.159-2.847-2.21-4.803.768-1.536 2.543-2.536 4.368-2.55.42 0 .84.043 1.253.152 2.275.572 3.477 2.717 2.528 4.738Z"/><path class="cls-1" d="M23.109 28.861c0 .348-.283.63-.63.63s-.638-.283-.638-.63c0-.355.29-.63.638-.63s.63.275.63.63ZM20.958 30.622c-.435.638-1.427.956-2.173.638-.746-.319-.935-1.087-.5-1.659.326-.485.935-.746 1.529-.739.203 0 .398.029.587.094.804.261 1.058 1.021.558 1.666Z"/></g></svg>