<?xml version="1.0" encoding="UTF-8"?><svg xmlns="http://www.w3.org/2000/svg" viewBox="0 0 50 50"><defs><style>.cls-1 {
  fill: #c1bbb7;
}

.cls-1, .cls-2 {
  stroke-width: 0;
}

.cls-2 {
  fill: #ebebeb;
}

</style></defs><g id="Calque_16"><rect class="cls-1" width="50" height="50"></rect></g><g id="xiaohongshu"><path class="cls-2" d="m43.041,20.493c0,.617-.506,1.124-1.124,1.124h-1.124v-1.124c0-.63.506-1.136,1.124-1.136s1.124.506,1.124,1.136Z"></path><path class="cls-2" d="m39.657,23.876v-2.26c0-1.247-1.013-2.26-2.247-2.26h-1.136v-1.124h-2.247v1.124h-1.136v2.26h1.136v2.26h-2.26v2.247h2.26v5.643h2.247v-5.643h3.383v3.383h-2.198c.259,1.284.272,2.26,1.642,2.26,1.556,0,2.815-1.26,2.815-2.815v-2.828c0-1.235-1.013-2.247-2.26-2.247Zm-2.247,0h-1.136v-2.26h1.136v2.26Z"></path><polygon class="cls-2" points="29.507 21.617 29.507 29.507 31.767 29.507 31.767 31.767 23.876 31.767 25 29.507 27.26 29.507 27.26 21.617 25 21.617 25 19.357 31.767 19.357 31.767 21.617 29.507 21.617"></polygon><path class="cls-2" d="m22.629,26.556h1.939l-1.124,2.26h-2.951c-.901,0-1.445-1.025-.926-1.778l2.05-3.161h-2.26c-.877,0-1.42-.963-.963-1.704l3.383-5.643,1.939,1.148-2.359,3.939h3.643l-2.371,4.939Z"></path><polygon class="cls-2" points="22.74 29.507 21.617 31.767 18.233 31.767 19.357 29.507 22.74 29.507"></polygon><path class="cls-2" d="m17.9,28.717l-1.593,1.593c-1.358-1.346-1.457-5.334-1.457-6.52v-2.173h2.26v2.173c0,2.161.383,4.507.79,4.927Z"></path><rect class="cls-2" x="11.466" y="18.233" width="2.26" height="12.41"></rect><path class="cls-2" d="m10.343,21.617v2.26c0,1.556-.222,6.643-2.951,7.038l-.309-2.235c.432-.222,1-2.42,1-4.803v-2.26h2.26Z"></path></g></svg>