<svg xmlns="http://www.w3.org/2000/svg" viewBox="0 0 50 50"><defs><style>.cls-2{stroke-width:0}.cls-2{fill:#ebebeb}</style></defs><path style="stroke-width:0;fill:#c1bbb7" d="M0 0h50v50H0z" id="Calque_16"/><g id="xiaohongshu"><path class="cls-2" d="M43.041 20.493c0 .617-.506 1.124-1.124 1.124h-1.124v-1.124c0-.63.506-1.136 1.124-1.136s1.124.506 1.124 1.136ZM39.657 23.876v-2.26a2.259 2.259 0 0 0-2.247-2.26h-1.136v-1.124h-2.247v1.124h-1.136v2.26h1.136v2.26h-2.26v2.247h2.26v5.643h2.247v-5.643h3.383v3.383h-2.198c.259 1.284.272 2.26 1.642 2.26a2.814 2.814 0 0 0 2.815-2.815v-2.828a2.258 2.258 0 0 0-2.26-2.247Zm-2.247 0h-1.136v-2.26h1.136v2.26Z"/><path class="cls-2" d="M29.507 21.617v7.89h2.26v2.26h-7.891L25 29.507h2.26v-7.89H25v-2.26h6.767v2.26h-2.26z"/><path class="cls-2" d="M22.629 26.556h1.939l-1.124 2.26h-2.951c-.901 0-1.445-1.025-.926-1.778l2.05-3.161h-2.26c-.877 0-1.42-.963-.963-1.704l3.383-5.643 1.939 1.148-2.359 3.939H25l-2.371 4.939ZM22.74 29.507l-1.123 2.26h-3.384l1.124-2.26h3.383zM17.9 28.717l-1.593 1.593c-1.358-1.346-1.457-5.334-1.457-6.52v-2.173h2.26v2.173c0 2.161.383 4.507.79 4.927ZM11.466 18.233h2.26v12.41h-2.26zM10.343 21.617v2.26c0 1.556-.222 6.643-2.951 7.038l-.309-2.235c.432-.222 1-2.42 1-4.803v-2.26h2.26Z"/></g></svg>